<?xml version="1.0" standalone="no"?>
<!DOCTYPE svg PUBLIC "-//W3C//DTD SVG 1.1//EN" "http://www.w3.org/Graphics/SVG/1.1/DTD/svg11.dtd" >
<svg xmlns="http://www.w3.org/2000/svg" xmlns:xlink="http://www.w3.org/1999/xlink" version="1.1">
<metadata>
Created by FontForge 20160407 at Fri Dec  2 14:01:31 2016
 By Jimmy Warting
Copyright (c) 2015 by Jan-Christian Bruun. All rights reserved.
</metadata>
<defs>
<font id="ArkibalSerif-Heavy" horiz-adv-x="619" >
  <font-face 
    font-family="Arkibal Serif"
    font-weight="900"
    font-stretch="normal"
    units-per-em="1000"
    panose-1="2 0 5 4 0 0 0 2 0 4"
    ascent="750"
    descent="-250"
    x-height="495"
    cap-height="699"
    bbox="-124 -309 1274 1098"
    underline-thickness="50"
    underline-position="-100"
    unicode-range="U+0020-FB02"
  />
<missing-glyph horiz-adv-x="249" 
 />
    <glyph glyph-name=".notdef" horiz-adv-x="249" 
 />
    <glyph glyph-name=".null" horiz-adv-x="0" 
 />
    <glyph glyph-name="CR" horiz-adv-x="249" 
 />
    <glyph glyph-name="space" unicode=" " horiz-adv-x="266" 
 />
    <glyph glyph-name="l" unicode="l" horiz-adv-x="390" 
d="M335 142v-142c-29 -7 -51 -9 -99 -9c-119 0 -167 57 -167 229v331h-49v148h225v-479c0 -70 24 -85 52 -85c19 0 26 3 38 7z" />
    <glyph glyph-name="o" unicode="o" horiz-adv-x="620" 
d="M310 511c152 0 276 -118 276 -263c0 -146 -124 -264 -276 -264s-275 118 -275 264c0 145 123 263 275 263zM310 132c55 0 100 51 100 113s-45 112 -100 112s-100 -50 -100 -112s45 -113 100 -113z" />
    <glyph glyph-name="r" unicode="r" horiz-adv-x="510" 
d="M392 510c40 0 66 -10 99 -30l-70 -150c-15 8 -32 14 -59 14c-62 0 -85 -53 -85 -108v-85h54v-151h-281v151h52v193h-52v151h199l24 -55h4c26 45 64 70 115 70z" />
    <glyph glyph-name="c" unicode="c" horiz-adv-x="582" 
d="M395 182l154 -72c-45 -69 -129 -125 -239 -125c-141 0 -272 113 -272 263c0 147 130 264 272 264c100 0 185 -47 234 -119l-148 -82c-18 29 -46 47 -82 47c-57 0 -100 -50 -100 -110c0 -53 38 -115 95 -115c37 0 65 18 86 49z" />
    <glyph glyph-name="n" unicode="n" horiz-adv-x="763" 
d="M660 151h55v-151h-281v151h51v98c0 64 -25 108 -100 108c-62 0 -100 -53 -100 -108v-98h55v-151h-281v151h52v193h-52v151h200l22 -55h5c25 45 69 70 140 70c150 0 234 -83 234 -261v-98z" />
    <glyph glyph-name="d" unicode="d" horiz-adv-x="701" 
d="M590 151h53v-151h-207l-19 58h-7c-23 -54 -84 -73 -136 -73c-163 0 -235 109 -235 265c0 179 114 261 232 261c65 0 114 -24 140 -69h4v106h-52v151h227v-548zM310 133c50 0 104 37 104 117c0 55 -45 108 -99 108c-49 0 -100 -44 -100 -108c0 -73 50 -117 95 -117z" />
    <glyph glyph-name="e" unicode="e" horiz-adv-x="634" 
d="M584 231v-21h-368c13 -41 41 -78 88 -78c38 0 65 16 91 47l149 -70c-44 -69 -129 -125 -238 -125c-141 0 -272 113 -272 263c0 146 130 264 272 264c168 0 271 -117 278 -280zM218 289h176c-14 35 -37 68 -84 68c-48 0 -78 -29 -92 -68z" />
    <glyph glyph-name="m" unicode="m" horiz-adv-x="1052" 
d="M954 151h53v-151h-280v151h52v99c0 68 -25 108 -80 108c-60 0 -85 -39 -85 -107v-100h53v-151h-280v151h53v99c0 69 -22 108 -81 108c-56 0 -82 -39 -82 -108v-99h54v-151h-281v151h51v193h-51v151h205l22 -54h6c24 45 85 69 138 69c72 0 113 -17 148 -72h6
c32 47 92 72 172 72c123 0 207 -72 207 -260v-99z" />
    <glyph glyph-name="u" unicode="u" horiz-adv-x="737" 
d="M641 151h52v-151h-201l-23 53h-7c-26 -45 -96 -69 -137 -69c-118 0 -234 82 -234 261v99h-55v151h231v-250c0 -63 33 -112 99 -112c61 0 99 57 99 112v99h-55v151h231v-344z" />
    <glyph glyph-name="a" unicode="a" horiz-adv-x="704" 
d="M592 151h57v-151h-211l-22 59h-4c-23 -54 -84 -74 -136 -74c-162 0 -234 109 -234 265c0 178 116 261 234 261c53 0 99 -25 125 -70h3l38 54h150v-344zM310 134c61 0 107 42 107 116c0 64 -45 107 -100 107s-99 -44 -99 -107c0 -73 47 -116 92 -116z" />
    <glyph glyph-name="b" unicode="b" horiz-adv-x="683" 
d="M394 511c118 0 232 -82 232 -261c0 -156 -72 -265 -235 -265c-52 0 -115 19 -138 73h-5l-19 -58h-154v548h-57v151h232v-257h4c26 45 76 69 140 69zM355 133c45 0 95 44 95 117c0 64 -51 108 -100 108c-54 0 -99 -53 -99 -108c0 -80 54 -117 104 -117z" />
    <glyph glyph-name="h" unicode="h" horiz-adv-x="750" 
d="M652 151h51v-151h-280v151h53v100c0 63 -19 106 -99 106c-62 0 -99 -51 -99 -106v-100h53v-151h-281v151h52v398h-49v150h224v-257h4c27 50 80 69 136 69c150 0 235 -82 235 -260v-100z" />
    <glyph glyph-name="ae" unicode="&#xe6;" horiz-adv-x="935" 
d="M903 233v-22h-368c13 -41 45 -77 89 -77c37 0 67 15 89 47l151 -70c-45 -69 -129 -125 -239 -125c-71 0 -140 29 -190 76h-2c-29 -47 -97 -76 -155 -76c-133 0 -236 101 -236 268c0 169 110 259 243 259c58 0 109 -21 154 -67h9c49 42 112 67 177 67
c168 0 271 -118 278 -280zM329 134c16 0 32 4 46 11c-14 32 -22 67 -22 104c0 35 8 68 21 98c-13 7 -27 12 -43 12c-78 0 -113 -50 -113 -105c0 -69 40 -120 111 -120zM537 291h176c-9 28 -34 68 -84 68c-54 0 -83 -42 -92 -68z" />
    <glyph glyph-name="oslash" unicode="&#xf8;" horiz-adv-x="649" 
d="M538 414c39 -45 63 -104 63 -168c0 -145 -124 -264 -278 -264c-62 0 -119 20 -165 54l-60 -60l-46 46l58 58c-39 45 -62 103 -62 166c0 146 124 265 275 265c63 0 121 -20 167 -53l61 61l46 -46zM232 201h3l137 137v4c-15 9 -30 14 -49 14c-55 0 -100 -51 -100 -112
c0 -15 4 -29 9 -43zM323 130c57 0 102 52 102 114c0 15 -4 29 -8 42h-4l-140 -137v-3c16 -10 33 -16 50 -16z" />
    <glyph glyph-name="aring" unicode="&#xe5;" horiz-adv-x="697" 
d="M339 541c-82 0 -149 64 -149 143s67 143 149 143s149 -64 149 -143s-67 -143 -149 -143zM339 735c-29 0 -53 -23 -53 -51s24 -51 53 -51s53 23 53 51s-24 51 -53 51zM587 151h57v-151h-211l-22 59h-4c-23 -54 -84 -74 -136 -74c-162 0 -234 109 -234 265
c0 178 116 261 234 261c40 0 99 -25 125 -70h3l38 54h150v-344zM305 134c61 0 107 42 107 116c0 64 -45 107 -100 107s-99 -44 -99 -107c0 -73 47 -116 92 -116z" />
    <glyph glyph-name="AE" unicode="&#xc6;" horiz-adv-x="973" 
d="M724 150h201v-150h-337l-46 125h-260l-45 -125h-190v151h53l155 397h-46v151h574v-151h-214l48 -123h215v-151h-156zM335 269h155l-76 210h-3z" />
    <glyph glyph-name="i" unicode="i" horiz-adv-x="389" 
d="M274 699v-135h-174v135h174zM274 151h53v-151h-280v151h53v194h-53v150h228z" />
    <glyph glyph-name="k" unicode="k" horiz-adv-x="655" 
d="M559 151h53v-151h-152l-111 186l-62 -67v-119h-231v151h54v398h-54v150h231v-363l144 159h169v-150h-102l-35 -37z" />
    <glyph glyph-name="q" unicode="q" horiz-adv-x="696" 
d="M279 510c58 0 113 -20 136 -74h5l21 59h206v-150h-52v-399h52v-151h-280v151h53v106h-6c-26 -45 -80 -69 -135 -69c-142 0 -235 96 -235 261c0 156 81 266 235 266zM320 132c55 0 100 57 100 112c0 80 -53 112 -103 112c-45 0 -97 -39 -97 -112c0 -63 52 -112 100 -112z
" />
    <glyph glyph-name="f" unicode="f" horiz-adv-x="404" 
d="M360 559c-60 0 -79 -15 -79 -49v-15h86v-150h-87v-194h53v-151h-281v151h53v194h-49v150h50v15c0 139 67 200 224 200c26 0 49 -4 67 -8v-147c-12 2 -24 4 -37 4z" />
    <glyph glyph-name="g" unicode="g" horiz-adv-x="701" 
d="M440 495h203v-150h-53v-300c0 -199 -61 -281 -318 -281c-88 0 -170 19 -215 45l43 148c43 -23 93 -42 170 -42c105 0 144 35 144 136v7h-6c-23 -54 -82 -74 -134 -74c-163 0 -235 112 -235 268c0 179 116 258 235 258c58 0 105 -25 128 -66h4zM310 131
c50 0 104 37 104 118c0 55 -45 107 -99 107c-49 0 -100 -44 -100 -107c0 -74 49 -118 95 -118z" />
    <glyph glyph-name="y" unicode="y" horiz-adv-x="690" 
d="M463 495h184v-151h-56l-245 -560h-169v151h57l27 66l-157 343h-57v151h181l116 -300h2z" />
    <glyph glyph-name="t" unicode="t" horiz-adv-x="401" 
d="M354 139v-148c-11 -2 -23 -2 -36 -2c-142 0 -224 43 -224 180v174h-49v152h49v140l175 36v-176h85v-152h-85v-124c0 -66 31 -80 78 -80h7z" />
    <glyph glyph-name="p" unicode="p" horiz-adv-x="696" 
d="M417 510c154 0 235 -110 235 -266c0 -165 -93 -261 -235 -261c-55 0 -109 24 -135 69h-6v-106h53v-151h-280v151h52v399h-52v150h206l21 -59h5c23 54 78 74 136 74zM376 132c48 0 100 49 100 112c0 73 -52 112 -97 112c-50 0 -103 -32 -103 -112c0 -55 45 -112 100 -112z
" />
    <glyph glyph-name="j" unicode="j" horiz-adv-x="323" 
d="M74 699h174v-135h-174v135zM21 495h227v-682l-174 -42v574h-53v150z" />
    <glyph glyph-name="period" unicode="." horiz-adv-x="276" 
d="M50 172h176v-172h-176v172z" />
    <glyph glyph-name="v" unicode="v" horiz-adv-x="640" 
d="M432 495h168v-151h-51l-149 -344h-162l-147 344h-53v151h175l86 -243l20 -74h3l22 75z" />
    <glyph glyph-name="w" unicode="w" horiz-adv-x="897" 
d="M684 495h171v-151h-50l-130 -344h-164l-60 186h-3l-61 -186h-165l-130 344h-52v151h176l66 -236l21 -74h3l24 74l73 235h98l70 -235l23 -74h3l21 74z" />
    <glyph glyph-name="z" unicode="z" horiz-adv-x="574" 
d="M283 153h249v-153h-486v139l240 202v2h-235v152h472v-139l-240 -201v-2z" />
    <glyph glyph-name="A" unicode="A" horiz-adv-x="848" 
d="M736 150h59v-150h-196l-45 125h-260l-46 -125h-195v150h59l155 399h-52v150h307zM345 266h158l-77 213h-3z" />
    <glyph glyph-name="B" unicode="B" horiz-adv-x="798" 
d="M665 356c53 -18 85 -82 85 -149c0 -129 -99 -207 -244 -207h-456v151h61v397h-61v151h441c143 0 243 -80 243 -209c0 -39 -11 -109 -69 -133v-1zM286 548v-132h192c51 0 80 27 80 65c0 37 -28 67 -80 67h-192zM493 151c55 0 80 28 81 66c0 39 -25 66 -81 66h-207v-132
h207z" />
    <glyph glyph-name="C" unicode="C" horiz-adv-x="779" 
d="M595 211l138 -97c-78 -92 -191 -131 -302 -131c-218 0 -384 150 -384 364c0 218 170 367 384 367c120 0 229 -48 302 -132l-139 -100c-39 47 -93 75 -164 75c-130 0 -207 -89 -207 -209c0 -121 78 -209 208 -209c63 0 122 21 164 72z" />
    <glyph glyph-name="D" unicode="D" horiz-adv-x="832" 
d="M373 699c267 0 412 -104 412 -350c0 -244 -150 -349 -412 -349h-323v151h54v397h-54v151h323zM373 151c156 0 236 54 236 199c0 155 -80 198 -236 198h-94v-397h94z" />
    <glyph glyph-name="E" unicode="E" horiz-adv-x="706" 
d="M656 548h-372v-123h328v-140h-328v-134h372v-151h-606v151h59v397h-59v151h606v-151z" />
    <glyph glyph-name="F" unicode="F" horiz-adv-x="700" 
d="M657 549h-373v-124h329v-140h-329v-135h61v-150h-295v150h58v399h-58v150h607v-150z" />
    <glyph glyph-name="G" unicode="G" horiz-adv-x="803" 
d="M579 350h176v-350h-113l-34 58h-3c-30 -49 -113 -73 -175 -73c-240 0 -383 162 -383 365c0 202 152 365 383 365c126 0 214 -47 283 -132l-132 -94c-39 55 -97 75 -151 75c-140 0 -208 -93 -208 -214s68 -214 208 -214c96 0 149 48 149 171v43z" />
    <glyph glyph-name="H" unicode="H" horiz-adv-x="852" 
d="M802 548h-52v-397h52v-151h-280v151h52v124h-296v-124h52v-151h-280v151h52v397h-52v151h280v-151h-52v-123h296v123h-52v151h280v-151z" />
    <glyph glyph-name="I" unicode="I" horiz-adv-x="380" 
d="M330 548h-52v-397h52v-151h-280v151h52v397h-52v151h280v-151z" />
    <glyph glyph-name="J" unicode="J" horiz-adv-x="680" 
d="M213 699h420v-151h-53v-238c0 -204 -106 -326 -304 -326c-105 0 -181 30 -232 81l112 112c30 -27 65 -41 120 -41c87 0 128 47 128 175v237h-191v151z" />
    <glyph glyph-name="K" unicode="K" horiz-adv-x="779" 
d="M661 151h68v-151h-168v1h-2l-196 266l-84 -91v-25h52v-151h-281v151h53v397h-53v151h281v-151h-52v-142l260 293h175v-151h-92l-140 -155z" />
    <glyph glyph-name="L" unicode="L" horiz-adv-x="665" 
d="M458 151v89h164v-240h-572v151h51v397h-51v151h281v-151h-55v-397h182z" />
    <glyph glyph-name="M" unicode="M" horiz-adv-x="923" 
d="M820 151h53v-151h-280v151h49v281h-3l-124 -223h-108l-122 223h-3v-281h48v-151h-280v151h53v397h-53v151h242l168 -298h3l168 298h239v-151h-50v-397z" />
    <glyph glyph-name="N" unicode="N" horiz-adv-x="846" 
d="M796 548h-51v-398h42v-150h-218l-289 409h-4v-259h54v-150h-280v150h51v398h-51v151h226l290 -421h3v270h-53v151h280v-151z" />
    <glyph glyph-name="O" unicode="O" horiz-adv-x="861" 
d="M430 714c226 0 384 -157 384 -367c0 -203 -154 -363 -383 -363c-225 0 -384 160 -384 363c0 212 163 367 383 367zM431 140c130 0 207 87 207 208c0 116 -78 210 -208 210c-131 0 -207 -90 -207 -210c0 -121 77 -208 208 -208z" />
    <glyph glyph-name="P" unicode="P" horiz-adv-x="744" 
d="M472 699c144 0 244 -88 244 -231c0 -142 -99 -228 -244 -228h-196v-90h54v-150h-280v150h51v398h-51v151h422zM460 391c44 0 80 27 80 77c0 52 -36 80 -80 80h-184v-157h184z" />
    <glyph glyph-name="Q" unicode="Q" horiz-adv-x="859" 
d="M812 348c0 -143 -76 -264 -200 -324l92 -184h-205l-61 145h-9c-225 0 -384 160 -384 363c0 211 163 367 383 367c226 0 384 -158 384 -367zM429 141c130 0 207 87 207 208c0 115 -78 210 -208 210c-131 0 -207 -90 -207 -210c0 -121 77 -208 208 -208z" />
    <glyph glyph-name="R" unicode="R" horiz-adv-x="809" 
d="M623 269l54 -118h83v-151h-203l-111 251h-163v-100h58v-151h-291v151h57v397h-57v151h466c143 0 244 -89 244 -231c0 -118 -55 -169 -137 -199zM503 391c45 0 80 27 80 77c0 51 -35 80 -80 80h-220v-157h220z" />
    <glyph glyph-name="S" unicode="S" horiz-adv-x="689" 
d="M357 435c201 -23 285 -94 285 -223c0 -138 -115 -228 -320 -228c-112 0 -236 30 -299 104l109 112c49 -43 125 -63 190 -63c100 0 144 32 144 71c0 41 -40 65 -128 73l-28 3c-184 18 -263 71 -263 222c0 129 113 209 298 209c115 0 203 -32 274 -91l-115 -113
c-38 29 -106 52 -159 52c-75 0 -121 -23 -121 -58c0 -34 12 -53 104 -66z" />
    <glyph glyph-name="T" unicode="T" horiz-adv-x="687" 
d="M641 548h-210v-397h53v-151h-281v151h52v397h-209v151h595v-151z" />
    <glyph glyph-name="U" unicode="U" horiz-adv-x="837" 
d="M510 699h280v-150h-52v-215c0 -203 -112 -349 -320 -349c-209 0 -320 146 -320 349v215h-51v150h281v-150h-51v-215c0 -143 46 -197 141 -197c93 0 142 59 142 197v215h-50v150z" />
    <glyph glyph-name="V" unicode="V" horiz-adv-x="817" 
d="M587 699h185v-151h-48l-215 -548h-199l-215 548h-50v151h191l140 -396l34 -125h3l34 124z" />
    <glyph glyph-name="W" unicode="W" horiz-adv-x="1141" 
d="M899 699h195v-151h-48l-173 -548h-194l-107 350h-3l-106 -350h-196l-172 548h-48v151h194l136 -453h3l137 453h107l136 -453h3z" />
    <glyph glyph-name="X" unicode="X" horiz-adv-x="723" 
d="M625 151h48v-151h-153l-157 225h-3l-155 -225h-155v151h47l150 202v5l-142 190h-47v151h159l143 -213h3l143 213h158v-151h-47l-142 -191v-4z" />
    <glyph glyph-name="Y" unicode="Y" horiz-adv-x="748" 
d="M515 699h187v-150h-55l-184 -301v-97h52v-151h-281v151h52v99l-184 299h-56v150h188l139 -272h4z" />
    <glyph glyph-name="Z" unicode="Z" horiz-adv-x="649" 
d="M279 154v-3h320v-151h-549l1 149l319 394v5h-320v151h549l-1 -151z" />
    <glyph glyph-name="zero" unicode="0" horiz-adv-x="727" 
d="M680 350c0 -233 -116 -369 -318 -369c-204 0 -315 133 -315 363c0 226 116 369 318 369c204 0 315 -141 315 -363zM362 562c-94 0 -139 -82 -139 -213c0 -132 46 -216 142 -216c106 0 140 80 140 212c0 131 -40 217 -143 217z" />
    <glyph glyph-name="x" unicode="x" horiz-adv-x="573" 
d="M471 344l-77 -90v-3l84 -100h58v-151h-151l-98 145h-3l-98 -145h-151v151h57l85 100v3l-77 90h-57v151h150l91 -134h3l91 134h150v-151h-57z" />
    <glyph glyph-name="Oslash" unicode="&#xd8;" horiz-adv-x="863" 
d="M737 578c50 -62 78 -141 78 -230c0 -203 -154 -363 -383 -363c-86 0 -163 24 -224 64l-70 -69l-78 78l66 65c-50 62 -78 140 -78 225c0 212 163 367 383 367c86 0 163 -23 224 -63l70 70l78 -78zM431 559c-131 0 -207 -90 -207 -210c0 -37 8 -71 22 -101h4l285 284v3
c-29 15 -64 24 -104 24zM432 141c130 0 207 87 207 208c0 37 -8 72 -23 102h-4l-284 -282v-5c29 -14 64 -23 104 -23z" />
    <glyph glyph-name="Aring" unicode="&#xc5;" horiz-adv-x="832" 
d="M728 150h59v-150h-196l-45 125h-260l-46 -125h-195v150h59l155 399h-52v150h51c-6 16 -8 32 -8 49c0 86 73 156 162 156c90 0 163 -70 163 -156c0 -39 -15 -74 -41 -102zM413 793c-26 0 -47 -20 -47 -45s21 -45 47 -45c25 0 46 20 46 45s-21 45 -46 45zM337 266h158
l-77 213h-3z" />
    <glyph glyph-name="one" unicode="1" horiz-adv-x="530" 
d="M355 151h130v-151h-436v151h130v380l-130 -27v151l200 44h106v-548z" />
    <glyph glyph-name="two" unicode="2" horiz-adv-x="623" 
d="M318 151h256v-151h-492v149c243 184 317 241 317 325c0 46 -35 82 -103 82c-66 0 -110 -21 -176 -76l-72 150c70 49 147 80 248 80c187 0 278 -89 278 -223c0 -117 -43 -182 -256 -331v-5z" />
    <glyph glyph-name="three" unicode="3" horiz-adv-x="610" 
d="M377 407c135 -25 185 -103 185 -197c0 -156 -88 -227 -310 -227c-83 0 -163 15 -203 36l30 154c39 -23 116 -35 173 -35c102 0 132 23 132 74c0 50 -30 84 -209 84l-16 105l149 138v9h-254v151h477v-152l-154 -137v-3z" />
    <glyph glyph-name="four" unicode="4" horiz-adv-x="641" 
d="M595 280v-150h-61v-130h-175v129h-317v152l257 418h202l-251 -412v-7h109v98h175v-98h61z" />
    <glyph glyph-name="five" unicode="5" 
d="M339 434c136 0 232 -65 232 -210c0 -140 -102 -242 -279 -242c-155 0 -244 61 -244 61l33 148s88 -54 176 -54s136 24 136 82c0 51 -43 76 -135 76c-48 0 -113 -14 -150 -23l-28 12v415h454v-151h-278v-122l3 -1c21 4 49 9 80 9z" />
    <glyph glyph-name="six" unicode="6" horiz-adv-x="653" 
d="M338 -17c-203 0 -290 104 -290 355c0 258 99 375 319 375c78 0 157 -23 209 -67l-80 -132c-40 29 -69 48 -129 48c-78 0 -145 -49 -145 -176v-5h4c23 53 66 77 141 77c141 0 239 -74 239 -236c0 -143 -84 -239 -268 -239zM327 311c-59 0 -103 -30 -103 -82
c0 -54 31 -94 103 -94c81 0 110 36 110 94c0 53 -31 82 -110 82z" />
    <glyph glyph-name="seven" unicode="7" horiz-adv-x="606" 
d="M45 699h516l-1 -152l-193 -547h-180l194 543v5h-169v-72h-167v223z" />
    <glyph glyph-name="eight" unicode="8" horiz-adv-x="689" 
d="M537 378c56 -18 104 -79 104 -167c0 -152 -99 -228 -296 -228c-218 0 -297 80 -297 222c0 48 30 107 101 128v4c-45 25 -86 55 -86 168c0 140 112 209 280 209c176 0 274 -78 274 -201c0 -75 -43 -113 -80 -131v-4zM338 427c18 -3 26 -4 49 -7c34 20 55 42 55 80
c0 40 -34 62 -99 62c-72 0 -104 -23 -104 -58c0 -34 11 -64 99 -77zM348 282c-20 2 -40 4 -57 7c-52 -16 -67 -42 -67 -76c0 -38 19 -77 121 -77c96 0 120 32 120 71c0 41 -32 67 -117 75z" />
    <glyph glyph-name="nine" unicode="9" horiz-adv-x="654" 
d="M316 712c203 0 290 -103 290 -354c0 -259 -98 -376 -318 -376c-84 0 -165 18 -232 53l66 138c35 -20 94 -39 166 -39c78 0 145 48 145 176v5h-4c-24 -53 -66 -77 -141 -77c-142 0 -240 73 -240 236c0 142 85 238 268 238zM327 385c59 0 103 30 103 82
c0 53 -31 94 -103 94c-81 0 -110 -36 -110 -94c0 -54 32 -82 110 -82z" />
    <glyph glyph-name="exclam" unicode="!" horiz-adv-x="290" 
d="M58 0v172h176v-172h-176zM220 279h-148l-23 437h192z" />
    <glyph glyph-name="dollar" unicode="$" horiz-adv-x="706" 
d="M662 212c0 -128 -98 -214 -274 -226v-96h-71v95c-104 4 -215 34 -273 103l108 111c43 -37 107 -57 165 -62v148c-174 19 -250 73 -250 220c0 117 94 194 250 207v96h71v-95c104 -4 185 -35 250 -90l-114 -113c-33 25 -87 45 -136 50v-127c193 -24 274 -95 274 -221z
M245 504c0 -29 9 -48 72 -60v114c-46 -8 -72 -27 -72 -54zM388 139c67 9 98 36 98 69c0 35 -31 58 -98 68v-137z" />
    <glyph glyph-name="percent" unicode="%" horiz-adv-x="932" 
d="M621 714h126l-444 -729h-119zM402 546c0 -94 -80 -171 -178 -171s-178 77 -178 171s80 170 178 170s178 -76 178 -170zM158 546c0 -35 29 -64 66 -64s66 29 66 64s-29 63 -66 63s-66 -28 -66 -63zM707 324c98 0 178 -76 178 -170s-80 -171 -178 -171
c-99 0 -178 77 -178 171s79 170 178 170zM707 90c36 0 66 29 66 64s-30 63 -66 63c-37 0 -67 -28 -67 -63s30 -64 67 -64z" />
    <glyph glyph-name="ampersand" unicode="&#x26;" horiz-adv-x="800" 
d="M631 140l125 -140h-197l-34 38c-23 -14 -90 -50 -181 -50c-197 0 -298 90 -298 227c0 79 51 146 154 191v3c-17 21 -47 66 -47 114c0 116 79 190 248 190c64 0 117 -20 119 -21l-1 -160s-55 28 -112 28c-49 0 -83 -11 -83 -42c0 -25 24 -55 39 -72l166 -191
c3 16 6 38 6 79h149c0 -77 -16 -149 -53 -194zM333 139c41 0 72 10 87 17l-136 155c-44 -20 -62 -53 -62 -94c0 -51 36 -78 111 -78z" />
    <glyph glyph-name="parenleft" unicode="(" horiz-adv-x="421" 
d="M213 -185c0 0 -168 210 -168 482s166 490 166 490h160s-168 -221 -168 -486s173 -486 173 -486h-163z" />
    <glyph glyph-name="parenright" unicode=")" horiz-adv-x="421" 
d="M208 -185h-163s173 221 173 486s-168 486 -168 486h160s166 -218 166 -490s-168 -482 -168 -482z" />
    <glyph glyph-name="plus" unicode="+" horiz-adv-x="565" 
d="M523 412v-138h-171v-171h-139v171h-171v138h171v171h139v-171h171z" />
    <glyph glyph-name="comma" unicode="," horiz-adv-x="309" 
d="M265 172l-89 -253h-129l45 253h173z" />
    <glyph glyph-name="colon" unicode=":" horiz-adv-x="275" 
d="M50 0v171h175v-171h-175zM50 495h175v-171h-175v171z" />
    <glyph glyph-name="semicolon" unicode=";" horiz-adv-x="315" 
d="M93 495h176v-171h-176v171zM175 -81l89 253h-173l-45 -253h129z" />
    <glyph glyph-name="slash" unicode="/" horiz-adv-x="493" 
d="M41 -194l260 970h152l-261 -970h-151z" />
    <glyph glyph-name="quotedblbase" unicode="&#x201e;" horiz-adv-x="519" 
d="M266 148l-106 -253h-112l45 253h173zM473 148l-106 -253h-112l45 253h173z" />
    <glyph glyph-name="equal" unicode="=" horiz-adv-x="505" 
d="M50 478h405v-138h-405v138zM50 131v138h405v-138h-405z" />
    <glyph glyph-name="question" unicode="?" horiz-adv-x="551" 
d="M147 0v172h176v-172h-176zM248 724c178 0 259 -90 259 -213c0 -199 -183 -212 -183 -212v-64h-176v160c20 1 30 0 82 6c60 6 102 30 102 94c0 48 -34 78 -117 78c-105 0 -169 -53 -169 -53v158s69 46 202 46z" />
    <glyph glyph-name="at" unicode="@" horiz-adv-x="1052" 
d="M644 459h97v-273c0 -20 4 -37 31 -37c52 0 83 40 83 169c0 154 -122 276 -296 276c-219 0 -356 -117 -356 -319c0 -200 143 -318 354 -318c122 0 208 31 208 31v-136s-77 -29 -205 -29c-322 0 -513 180 -513 452c0 268 224 455 514 455c279 0 445 -195 445 -409
c0 -180 -78 -272 -236 -272c-80 0 -125 49 -130 64h-4c-10 -16 -47 -65 -128 -65c-137 0 -212 82 -212 206c0 128 84 216 213 216c64 0 97 -39 107 -52h4zM528 161c65 0 100 31 100 95c0 62 -38 100 -100 100c-59 0 -103 -25 -103 -100c0 -62 35 -95 103 -95z" />
    <glyph glyph-name="backslash" unicode="\" horiz-adv-x="493" 
d="M452 -194h-151l-261 970h152z" />
    <glyph glyph-name="hyphen" unicode="-" horiz-adv-x="363" 
d="M313 360v-139h-263v139h263z" />
    <glyph glyph-name="quotesinglbase" unicode="&#x201a;" horiz-adv-x="309" 
d="M265 148l-89 -253h-129l45 253h173z" />
    <glyph glyph-name="bracketleft" unicode="[" horiz-adv-x="398" 
d="M50 787h299v-141h-133v-691h133v-141h-299v973z" />
    <glyph glyph-name="bracketright" unicode="]" horiz-adv-x="398" 
d="M348 787v-973h-299v141h133v691h-133v141h299z" />
    <glyph glyph-name="quotedbl" unicode="&#x22;" horiz-adv-x="381" 
d="M50 442v257h111v-257h-111zM220 699h111v-257h-111v257z" />
    <glyph glyph-name="Ccedilla" unicode="&#xc7;" horiz-adv-x="775" 
d="M428 141c63 0 123 21 164 72l138 -97c-67 -79 -161 -119 -256 -129v-36c78 0 127 -37 127 -117c0 -86 -60 -139 -164 -139c-56 0 -112 32 -112 32v101s48 -37 111 -37c59 0 68 15 68 41c0 27 -24 37 -70 37h-63l2 120c-190 23 -329 164 -329 360c0 218 170 367 385 367
c120 0 228 -48 301 -132l-138 -100c-39 47 -94 75 -165 75c-130 0 -206 -89 -206 -209c0 -121 77 -209 207 -209z" />
    <glyph glyph-name="Eth" unicode="&#xd0;" horiz-adv-x="880" 
d="M420 698c267 0 412 -103 412 -349c0 -244 -150 -349 -412 -349h-323v151h54v129h-103v139h103v129h-54v151zM420 152c156 0 236 53 236 198c0 155 -80 198 -236 198h-94v-129h143v-139h-143v-127z" />
    <glyph glyph-name="ccedilla" unicode="&#xe7;" horiz-adv-x="600" 
d="M554 112c-38 -59 -104 -108 -190 -121l1 -34c77 0 126 -37 126 -116c0 -87 -60 -140 -164 -140c-56 0 -112 32 -112 32v101s48 -37 111 -37c59 0 69 15 69 42s-25 37 -71 37h-62l1 116c-119 24 -219 126 -219 257c0 147 130 264 272 264c100 0 184 -47 234 -119l-148 -82
c-18 29 -46 47 -82 47c-57 0 -100 -50 -100 -110c0 -53 38 -114 95 -114c37 0 65 17 86 48z" />
    <glyph glyph-name="eth" unicode="&#xf0;" horiz-adv-x="652" 
d="M509 641c67 -62 95 -163 95 -303c0 -246 -97 -355 -289 -355c-178 0 -268 91 -268 243c0 163 89 232 240 232c120 0 150 -69 150 -69v50c0 38 -11 70 -38 92l-47 -48h-116l76 77c-7 1 -15 1 -22 1c-62 0 -101 -24 -131 -44l-81 128c40 25 103 68 205 68
c60 0 111 -9 153 -27l42 43h119zM326 139c76 0 110 24 110 77c0 54 -33 92 -110 92c-78 0 -110 -29 -110 -93c0 -52 34 -76 110 -76z" />
    <glyph glyph-name="divide" unicode="&#xf7;" horiz-adv-x="572" 
d="M42 364h488v-120h-488v120zM368 581v-159h-163v159h163zM205 27v160h163v-160h-163z" />
    <glyph glyph-name="Euro" unicode="&#x20ac;" horiz-adv-x="738" 
d="M491 136c35 0 66 5 93 17l92 -126c-55 -28 -118 -43 -185 -43c-168 0 -311 101 -363 243h-84v98h64c-1 7 -1 15 -1 22c0 10 1 21 1 31h-64v97h87c54 140 195 240 360 240c73 0 141 -20 199 -53l-91 -125c-30 17 -66 27 -108 27c-79 0 -139 -35 -173 -89h210v-97h-244
c-1 -10 -1 -20 -1 -30c0 -8 0 -16 1 -23h244v-98h-214c35 -56 95 -91 177 -91z" />
    <glyph glyph-name="florin" unicode="&#x192;" horiz-adv-x="437" 
d="M392 579c-68 0 -83 -19 -83 -67h83v-139h-86l-1 -374c0 -163 -53 -218 -260 -218v152c67 0 82 18 82 66l3 374h-48v139h49c0 164 53 218 261 218v-151z" />
    <glyph glyph-name="thorn" unicode="&#xfe;" horiz-adv-x="695" 
d="M420 519c119 0 234 -83 234 -261c0 -157 -71 -266 -234 -266c-51 0 -116 19 -141 71v-129h52v-151h-281v151h54v645h-54v150h281v-150h-52v-130c26 45 101 70 141 70zM386 141c45 0 93 44 93 117c0 63 -44 107 -100 107c-55 0 -100 -44 -100 -107c0 -75 46 -117 107 -117
z" />
    <glyph glyph-name="exclamdown" unicode="&#xa1;" horiz-adv-x="238" 
d="M45 421h168v-130h-168v130zM200 210l20 -331h-184l22 331h142z" />
    <glyph glyph-name="quotesingle" unicode="'" horiz-adv-x="211" 
d="M50 442v257h111v-257h-111z" />
    <glyph glyph-name="numbersign" unicode="#" horiz-adv-x="852" 
d="M806 391h-151l-18 -82h133v-139h-163l-38 -177h-175l40 177h-97l-39 -177h-172l40 177h-120v139h151l18 82h-134v139h165l40 177h166l-38 -177h100l40 177h169l-38 -177h121v-139zM465 309l18 82h-99l-17 -82h98z" />
    <glyph glyph-name="s" unicode="s" horiz-adv-x="532" 
d="M321 297c126 -27 181 -57 181 -146c0 -82 -70 -164 -240 -164c-93 0 -204 51 -243 107l127 86c26 -25 80 -46 119 -46c37 0 52 15 52 28c0 14 -14 27 -55 34l-36 7c-128 23 -171 78 -171 147c0 100 96 163 224 163c80 0 160 -33 214 -98l-130 -88c-31 24 -61 33 -94 33
c-29 0 -40 -9 -40 -22c0 -17 14 -23 40 -29z" />
    <glyph glyph-name="asterisk" unicode="*" horiz-adv-x="527" 
d="M483 509l-142 -31l95 -111l-97 -72l-75 127l-76 -127l-97 72l96 111l-143 31l38 116l135 -59l-14 146h121l-12 -146l135 59z" />
    <glyph glyph-name="fraction" unicode="&#x2044;" horiz-adv-x="493" 
d="M192 -194h-151l260 970h152z" />
    <glyph glyph-name="asciicircum" unicode="^" horiz-adv-x="609" 
d="M397 292l-91 190h-3l-91 -190h-167l188 407h143l188 -407h-167z" />
    <glyph glyph-name="braceleft" unicode="{" horiz-adv-x="505" 
d="M318 30c0 -82 22 -106 138 -106v-151c-220 0 -303 67 -303 197v142c0 82 -41 119 -93 119h-18v137h18c53 0 93 32 93 113v120c0 154 113 216 303 216l-1 -151c-114 0 -135 -22 -135 -98l-2 -111c0 -116 -57 -146 -97 -157v-3c41 -13 97 -41 97 -155v-112z" />
    <glyph glyph-name="braceright" unicode="}" horiz-adv-x="506" 
d="M188 30v112c0 114 56 142 97 155v3c-40 11 -97 41 -97 157v111c0 76 -24 98 -138 98l-1 151c190 0 304 -62 304 -216v-120c0 -81 40 -113 93 -113h18v-137h-18c-52 0 -93 -37 -93 -119v-142c0 -130 -83 -197 -303 -197v151c116 0 138 24 138 106z" />
    <glyph glyph-name="breve" unicode="&#x2d8;" horiz-adv-x="435" 
d="M173 723c0 -38 20 -56 45 -56c26 0 44 18 44 56h126c0 -121 -77 -161 -170 -161c-91 0 -171 38 -171 161h126z" />
    <glyph glyph-name="ring" unicode="&#x2da;" horiz-adv-x="450" 
d="M403 535c0 -94 -80 -170 -178 -170s-178 76 -178 170s80 171 178 171s178 -77 178 -171zM159 535c0 -35 30 -63 66 -63c37 0 67 28 67 63s-30 64 -67 64c-36 0 -66 -29 -66 -64z" />
    <glyph glyph-name="dotaccent" unicode="&#x2d9;" horiz-adv-x="276" 
d="M50 526v172h176v-172h-176z" />
    <glyph glyph-name="perthousand" unicode="&#x2030;" horiz-adv-x="1318" 
d="M623 714h126l-444 -729h-119zM404 546c0 -94 -80 -171 -178 -171s-178 77 -178 171s80 170 178 170s178 -76 178 -170zM160 546c0 -35 29 -64 66 -64s66 29 66 64s-29 63 -66 63s-66 -28 -66 -63zM709 324c98 0 178 -76 178 -170s-80 -171 -178 -171
c-99 0 -178 77 -178 171s79 170 178 170zM709 90c36 0 66 29 66 64s-30 63 -66 63c-37 0 -67 -28 -67 -63s30 -64 67 -64zM1096 324c98 0 178 -76 178 -170s-80 -171 -178 -171c-99 0 -178 77 -178 171s79 170 178 170zM1096 90c36 0 66 29 66 64s-30 63 -66 63
c-37 0 -67 -28 -67 -63s30 -64 67 -64z" />
    <glyph glyph-name="questiondown" unicode="&#xbf;" horiz-adv-x="551" 
d="M404 423v-144h-175v144h175zM304 -309c-179 0 -260 89 -260 213c0 198 183 211 183 211v94h176v-190c-20 0 -29 0 -82 -5c-59 -7 -101 -31 -101 -94c0 -48 34 -78 116 -78c105 0 169 53 169 53v-158s-69 -46 -201 -46z" />
    <glyph glyph-name="dotlessi" unicode="&#x131;" horiz-adv-x="352" 
d="M302 163h-139v299h-120v129h259v-428z" />
    <glyph glyph-name="less" unicode="&#x3c;" horiz-adv-x="591" 
d="M541 279v-167l-501 160v143l501 160v-167l-279 -63v-3z" />
    <glyph glyph-name="greater" unicode="&#x3e;" horiz-adv-x="591" 
d="M50 279l279 63v3l-279 63v167l501 -160v-143l-501 -160v167z" />
    <glyph glyph-name="multiply" unicode="&#xd7;" horiz-adv-x="639" 
d="M400 299l191 -200h-168l-102 114l-102 -114h-171l194 200l-188 199l165 1l102 -114l102 114h168z" />
    <glyph glyph-name="currency" unicode="&#xa4;" horiz-adv-x="532" 
d="M485 254l-98 -98l-58 59c-20 -7 -41 -11 -63 -11s-43 4 -62 11l-59 -59l-98 98l56 53c-10 21 -15 44 -15 68c0 23 5 46 14 66l-55 54l98 99l58 -60c19 7 41 11 63 11s44 -4 64 -11l57 60l98 -99l-55 -54c9 -20 14 -43 14 -66c0 -24 -5 -47 -14 -67zM266 311
c37 0 66 29 66 64s-29 63 -66 63s-66 -28 -66 -63s29 -64 66 -64z" />
    <glyph glyph-name="underscore" unicode="_" horiz-adv-x="566" 
d="M50 -139v139h466v-139h-466z" />
    <glyph glyph-name="bar" unicode="|" horiz-adv-x="275" 
d="M50 729h175v-972h-175v972z" />
    <glyph glyph-name="brokenbar" unicode="&#xa6;" horiz-adv-x="276" 
d="M50 729h176v-429h-176v429zM50 -241v429h176v-429h-176z" />
    <glyph glyph-name="dagger" unicode="&#x2020;" horiz-adv-x="585" 
d="M543 495v-152h-163v-495h-175v495h-163v152h163v155h175v-155h163z" />
    <glyph glyph-name="daggerdbl" unicode="&#x2021;" horiz-adv-x="589" 
d="M545 343h-162v-174h162v-153h-162v-168h-176v168h-163v153h163v174h-163v152h163v155h176v-155h162v-152z" />
    <glyph glyph-name="circumflex" unicode="&#x2c6;" horiz-adv-x="629" 
d="M230 565h-184v15l180 179h177l180 -179v-15h-184l-84 91z" />
    <glyph glyph-name="guilsinglleft" unicode="&#x2039;" horiz-adv-x="394" 
d="M346 495l-120 -229l116 -231h-184l-114 231l119 229h183z" />
    <glyph glyph-name="guilsinglright" unicode="&#x203a;" horiz-adv-x="394" 
d="M168 266l-120 229h183l119 -229l-114 -231h-184z" />
    <glyph glyph-name="OE" unicode="&#x152;" horiz-adv-x="1035" 
d="M985 548h-309v-123h264v-151h-264v-124h309v-150h-525c-262 0 -412 105 -412 349c0 246 145 350 412 350h525v-151zM500 152v396h-41c-155 0 -235 -43 -235 -198c0 -145 80 -198 235 -198h41z" />
    <glyph glyph-name="cent" unicode="&#xa2;" horiz-adv-x="597" 
d="M555 113c-42 -63 -116 -115 -213 -123v-88h-57v88c-129 15 -241 123 -241 261c0 137 111 247 241 263v87h57v-87c89 -7 163 -52 208 -118l-148 -82c-14 23 -35 39 -60 45v-219c24 7 43 23 59 45zM220 251c0 -43 25 -92 65 -108v212c-39 -16 -65 -57 -65 -104z" />
    <glyph glyph-name="sterling" unicode="&#xa3;" horiz-adv-x="660" 
d="M301 139h310v-139h-565v140s141 17 141 112c0 13 -2 27 -4 36h-101v139h59c-6 19 -15 51 -15 78c0 140 146 210 310 210c88 0 148 -27 148 -27v-142s-67 32 -149 32c-79 0 -131 -17 -131 -88c0 -21 6 -46 11 -63h200v-139h-154c3 -9 5 -23 5 -35c0 -56 -35 -90 -65 -108
v-6z" />
    <glyph glyph-name="yen" unicode="&#xa5;" horiz-adv-x="748" 
d="M515 699h187v-150h-55l-109 -179h78v-69h-121l-30 -50h151v-70h-153v-30h52v-151h-281v151h52v30h-155v70h154l-31 50h-123v69h81l-110 179h-56v150h188l139 -272h4z" />
    <glyph glyph-name="section" unicode="&#xa7;" horiz-adv-x="703" 
d="M594 61v-6c39 -32 61 -86 61 -148c0 -121 -78 -209 -312 -209c-104 0 -203 27 -264 69l46 144c58 -38 159 -60 218 -60c104 0 135 21 135 57c0 34 -16 54 -73 62l-134 16c-160 17 -223 83 -223 214c0 77 21 115 65 146v4c-42 30 -65 62 -65 151c0 121 79 209 313 209
c104 0 202 -27 264 -69l-47 -144c-58 38 -158 60 -217 60c-104 0 -135 -21 -135 -57c0 -34 15 -54 72 -62l135 -16c159 -17 222 -83 222 -214c0 -59 -21 -115 -61 -147zM354 133c86 0 125 25 125 70c0 46 -37 72 -130 72c-88 0 -124 -25 -124 -70c0 -44 38 -72 129 -72z" />
    <glyph glyph-name="copyright" unicode="&#xa9;" horiz-adv-x="840" 
d="M423 459c-71 0 -113 -50 -113 -116c0 -65 42 -114 113 -114c34 0 60 11 80 30l71 -50c-38 -39 -92 -61 -151 -61c-115 0 -207 86 -207 195s92 198 207 198c64 0 121 -28 158 -73l-71 -50c-18 25 -49 41 -87 41zM421 704c227 0 371 -142 372 -357
c0 -216 -148 -364 -375 -364s-370 143 -371 359c0 216 147 362 374 362zM421 69c172 0 272 117 272 275c0 159 -103 275 -275 275c-170 0 -271 -117 -271 -276s103 -274 274 -274z" />
    <glyph glyph-name="registered" unicode="&#xae;" horiz-adv-x="843" 
d="M621 412c0 -64 -30 -92 -75 -108l30 -65h45v-82h-111l-60 137h-88v-55h31v-82h-158v82h31v216h-31v82h253c78 0 133 -48 133 -125zM481 370c25 0 44 15 44 42s-19 43 -44 43h-119v-85h119zM423 708c228 0 372 -143 373 -360c0 -217 -146 -366 -376 -366
c-228 0 -372 144 -373 361c0 217 147 365 376 365zM423 68c172 0 274 118 274 277c0 161 -104 276 -276 276c-173 0 -274 -116 -274 -277c0 -159 104 -276 276 -276z" />
    <glyph glyph-name="ordfeminine" unicode="&#xaa;" horiz-adv-x="526" 
d="M438 455h40v-107h-149l-16 42h-3c-16 -39 -59 -53 -96 -53c-115 0 -166 78 -166 188c0 126 82 185 166 185c28 0 70 -18 88 -49h2l27 38h107v-244zM238 443c43 0 76 30 76 82c0 46 -32 76 -71 76s-70 -31 -70 -76c0 -52 33 -82 65 -82z" />
    <glyph glyph-name="guillemotleft" unicode="&#xab;" horiz-adv-x="678" 
d="M349 495l-120 -229l116 -231h-184l-114 231l119 229h183zM629 495l-120 -229l116 -231h-184l-114 231l119 229h183z" />
    <glyph glyph-name="guillemotright" unicode="&#xbb;" horiz-adv-x="678" 
d="M449 266l-120 229h183l119 -229l-114 -231h-184zM169 266l-120 229h183l119 -229l-114 -231h-184z" />
    <glyph glyph-name="dieresis" unicode="&#xa8;" horiz-adv-x="505" 
d="M213 735v-160h-163v160h163zM455 735v-160h-163v160h163z" />
    <glyph glyph-name="oe" unicode="&#x153;" horiz-adv-x="1024" 
d="M976 230v-21h-367c12 -41 41 -78 88 -78c38 0 65 16 90 47l150 -70c-45 -69 -129 -125 -239 -125c-68 0 -134 27 -184 71h-3c-49 -44 -115 -71 -188 -71c-152 0 -275 118 -275 263c0 146 123 264 275 264c73 0 140 -28 189 -72h3c50 45 115 72 183 72
c168 0 271 -117 278 -280zM323 131c55 0 100 50 100 113c0 62 -45 112 -100 112s-99 -50 -99 -112c0 -63 44 -113 99 -113zM610 288h176c-13 35 -37 68 -84 68s-77 -29 -92 -68z" />
    <glyph glyph-name="endash" unicode="&#x2013;" horiz-adv-x="497" 
d="M447 360v-139h-397v139h397z" />
    <glyph glyph-name="emdash" unicode="&#x2014;" horiz-adv-x="733" 
d="M683 360v-139h-633v139h633z" />
    <glyph glyph-name="minus" unicode="&#x2212;" horiz-adv-x="560" 
d="M510 360v-139h-460v139h460z" />
    <glyph glyph-name="logicalnot" unicode="&#xac;" horiz-adv-x="574" 
d="M42 436h482v-260h-139v121h-343v139z" />
    <glyph glyph-name="plusminus" unicode="&#xb1;" horiz-adv-x="573" 
d="M46 21v139h480v-139h-480zM356 530h171v-139h-171v-171h-138v171h-171v139h171v170h138v-170z" />
    <glyph glyph-name="twosuperior" unicode="&#xb2;" horiz-adv-x="341" 
d="M205 474h87v-84h-227v78l17 13c89 67 115 87 115 119c0 19 -10 28 -31 28c-18 0 -35 -10 -52 -29l-7 -9l-60 67l7 7c32 31 76 48 121 48c71 0 117 -42 117 -106c0 -50 -22 -78 -87 -130v-2z" />
    <glyph glyph-name="threesuperior" unicode="&#xb3;" horiz-adv-x="341" 
d="M232 572c40 -14 61 -44 61 -87c0 -73 -43 -106 -140 -106c-38 0 -74 9 -95 18l-10 4l36 81l10 -5c13 -7 36 -12 59 -12c45 0 45 11 45 21c0 9 0 24 -77 24h-9l-9 59l48 45v2h-83v84h213l-1 -78l-48 -47v-3z" />
    <glyph glyph-name="onesuperior" unicode="&#xb9;" horiz-adv-x="299" 
d="M199 699v-230h54v-84h-204v84h55v136l-55 -11v85l92 20h58z" />
    <glyph glyph-name="ordmasculine" unicode="&#xba;" horiz-adv-x="482" 
d="M241 708c107 0 194 -84 194 -186c0 -103 -87 -186 -194 -186s-194 83 -194 186c0 102 87 186 194 186zM241 441c39 0 71 35 71 79s-32 79 -71 79s-70 -35 -70 -79s31 -79 70 -79z" />
    <glyph glyph-name="bullet" unicode="&#x2022;" horiz-adv-x="276" 
d="M50 381h176v-172h-176v172z" />
    <glyph glyph-name="degree" unicode="&#xb0;" horiz-adv-x="450" 
d="M403 535c0 -94 -80 -170 -178 -170s-178 76 -178 170s80 171 178 171s178 -77 178 -171zM159 535c0 -35 30 -63 66 -63c37 0 67 28 67 63s-30 64 -67 64c-36 0 -66 -29 -66 -64z" />
    <glyph glyph-name="caron" unicode="&#x2c7;" horiz-adv-x="627" 
d="M45 738h184l85 -89l84 89h184v-15l-180 -179h-177l-180 179v15z" />
    <glyph glyph-name="Lslash" unicode="&#x141;" horiz-adv-x="749" 
d="M540 241h165v-241h-572v151h50v79l-136 -50v181l136 49v138h-50v151h280v-151h-54v-74l181 66l-2 -181l-179 -65v-143h181v90z" />
    <glyph glyph-name="Thorn" unicode="&#xde;" horiz-adv-x="723" 
d="M438 579c143 0 243 -89 243 -231s-99 -228 -243 -228h-155v-120h-233v151h57v397h-57v151h233v-120h155zM425 271c44 0 80 27 80 77c0 51 -36 80 -80 80h-142v-157h142z" />
    <glyph glyph-name="germandbls" unicode="&#xdf;" horiz-adv-x="725" 
d="M485 382c0 0 193 0 193 -175c0 -131 -103 -210 -260 -210h-33v153h5c83 0 111 17 111 73c0 48 -25 76 -152 76v151c50 0 81 17 81 60c0 37 -24 65 -79 65c-59 0 -75 -21 -75 -95v-330h52v-150h-280v150h52v370c0 134 67 208 275 208c151 0 230 -69 230 -184
c0 -128 -120 -157 -120 -157v-5z" />
    <glyph glyph-name="trademark" unicode="&#x2122;" horiz-adv-x="981" 
d="M422 611h-136v-232h31v-88h-164v88h31v232h-136v88h374v-88zM899 379h32v-88h-164v88h29v164h-2l-73 -130h-63l-71 130h-2v-164h29v-88h-164v88h31v232h-31v88h141l98 -174h2l98 174h140v-88h-30v-232z" />
    <glyph glyph-name="cedilla" unicode="&#xb8;" horiz-adv-x="368" 
d="M196 -43c78 0 127 -37 127 -116c0 -87 -60 -140 -165 -140c-55 0 -111 32 -111 32v101s48 -37 111 -37c59 0 68 15 68 42s-24 37 -70 37h-63l2 153h101v-72z" />
    <glyph glyph-name="periodcentered" unicode="&#xb7;" horiz-adv-x="263" 
d="M50 377h163v-159h-163v159z" />
    <glyph glyph-name="onequarter" unicode="&#xbc;" horiz-adv-x="770" 
d="M513 713h110l-444 -728h-103zM198 701v-230h54v-85h-204v85h55v135l-55 -11v85l93 20zM724 134v-78h-37v-56h-90v56h-144l2 75l111 184h108l-110 -179v-2h33v34h90v-34h37z" />
    <glyph glyph-name="onehalf" unicode="&#xbd;" horiz-adv-x="735" 
d="M509 716h110l-444 -728h-103zM197 712v-230h54v-84h-203v84h54v136l-54 -11v85l92 20h57zM602 85h86v-85h-227v79l17 13c89 67 115 87 115 119c0 18 -10 27 -31 27c-18 0 -35 -9 -51 -28l-8 -10l-60 68l7 7c32 30 76 48 121 48c71 0 117 -42 117 -107
c0 -49 -22 -78 -86 -129v-2z" />
    <glyph glyph-name="threequarters" unicode="&#xbe;" horiz-adv-x="753" 
d="M527 715h110l-444 -728h-102zM231 577c39 -14 61 -44 61 -87c0 -73 -43 -106 -140 -106c-38 0 -74 10 -95 18l-10 4l35 81l10 -5c14 -7 36 -12 60 -12c44 0 44 11 44 21c0 9 0 24 -77 24h-9l-9 59l48 44v3h-82v84h212v-78l-48 -47v-3zM707 135v-79h-37v-56h-90v56h-144
l1 76l112 183h108l-110 -179v-1h33v34h90v-34h37z" />
    <glyph glyph-name="tilde" unicode="&#x2dc;" horiz-adv-x="499" 
d="M163 745c74 0 116 -38 180 -38c56 0 107 42 107 42v-118s-52 -51 -114 -51c-74 0 -116 38 -180 38c-56 0 -107 -42 -107 -42v119s52 50 114 50z" />
    <glyph glyph-name="asciitilde" unicode="~" horiz-adv-x="499" 
d="M163 391c74 0 116 -38 180 -38c56 0 107 42 107 42v-112s-52 -51 -114 -51c-74 0 -116 38 -180 38c-56 0 -107 -42 -107 -42v113s52 50 114 50z" />
    <glyph glyph-name="ogonek" unicode="&#x2db;" horiz-adv-x="344" 
d="M297 7c0 0 -102 -31 -102 -104c0 -37 22 -51 48 -51c27 0 45 8 45 8l-1 -98s-29 -12 -77 -12c-64 0 -164 32 -164 117c0 109 126 154 126 154z" />
    <glyph glyph-name="lslash" unicode="&#x142;" horiz-adv-x="472" 
d="M426 515v-139l-111 -49v-111c0 -70 24 -85 53 -85c18 0 25 3 37 8v-143c-29 -7 -51 -9 -99 -9c-119 0 -167 57 -167 229v32l-94 -41v139l94 41v173h-49v139h225v-233z" />
    <glyph glyph-name="mu" unicode="&#xb5;" horiz-adv-x="757" 
d="M662 347v-98c0 -175 -86 -255 -239 -255c-57 0 -111 18 -138 67h-4v-252h-228v148h50v390h-53v148h286v-148h-55l1 -98c0 -54 37 -104 100 -104c82 0 101 42 101 104v98h-54v148h285v-148h-52z" />
    <glyph glyph-name="quotedblright" unicode="&#x201d;" horiz-adv-x="519" 
d="M266 699l-106 -253h-112l45 253h173zM473 699l-106 -253h-112l45 253h173z" />
    <glyph glyph-name="quotedblleft" unicode="&#x201c;" horiz-adv-x="519" 
d="M253 446l106 253h112l-45 -253h-173zM46 446l106 253h112l-45 -253h-173z" />
    <glyph glyph-name="quoteright" unicode="&#x2019;" horiz-adv-x="308" 
d="M265 699l-106 -253h-112l45 253h173z" />
    <glyph glyph-name="quoteleft" unicode="&#x2018;" horiz-adv-x="308" 
d="M43 446l106 253h112l-45 -253h-173z" />
    <glyph glyph-name="hungarumlaut" unicode="&#x2dd;" horiz-adv-x="519" 
d="M266 699l-106 -253h-112l45 253h173zM473 699l-106 -253h-112l45 253h173z" />
    <glyph glyph-name="grave" unicode="`" horiz-adv-x="235" 
d="M104 750l126 -172h-175l-179 172h228z" />
    <glyph glyph-name="acute" unicode="&#xb4;" horiz-adv-x="223" 
d="M-7 578l126 172h228l-179 -172h-175z" />
    <glyph glyph-name="fi" unicode="&#xfb01;" horiz-adv-x="760" 
d="M651 699v-135h-174v135h174zM651 151h53v-151h-280v151h53v194h-201v-194h53v-151h-281v151h53v194h-49v150h50v15c0 139 67 200 224 200c26 0 49 -4 67 -8v-147c-12 2 -24 4 -37 4c-60 0 -79 -15 -79 -49v-15h375z" />
    <glyph glyph-name="fl" unicode="&#xfb02;" horiz-adv-x="729" 
d="M356 566c-60 0 -79 -22 -79 -56l-1 -15h87v-138h-87v-206h53v-151h-281v151h53v206h-49v138h49l1 15c0 139 67 195 224 195c173 0 265 -7 265 -7v-476c0 -70 24 -85 52 -85c19 0 26 3 38 7v-142c-29 -7 -51 -9 -99 -9c-119 0 -167 57 -167 229v342s-37 2 -59 2z" />
    <glyph glyph-name="AV2" horiz-adv-x="843" 
d="M739 150h57v-150h-232v224h-286v-224h-231v150h57v213c0 202 111 348 317 348c207 0 318 -146 318 -348v-213zM278 368h286c-1 139 -50 194 -143 194c-91 0 -142 -60 -143 -194z" />
    <glyph glyph-name="UV2" horiz-adv-x="848" 
d="M743 150h57v-150h-185l-16 54h-7c-40 -36 -97 -69 -182 -69c-209 0 -306 77 -306 348v215h-57v151h236v-365c0 -145 47 -192 127 -192c59 0 121 15 156 44v362h-57v151h234v-549z" />
    <glyph glyph-name="RV1" horiz-adv-x="809" 
d="M621 264l53 -114h75v-150h-192l-106 229l-168 -21v-58h56v-150h-289v150h57v398h-57v151h466c143 0 244 -88 244 -230c0 -103 -33 -175 -139 -205zM487 380c55 7 96 39 96 89c0 51 -35 80 -80 80h-220v-192z" />
    <glyph glyph-name="RV2" horiz-adv-x="806" 
d="M610 261c25 -67 82 -103 147 -115l-9 -162c-169 22 -253 115 -292 245l-8 -1l-169 -21v-56h59v-151h-289v151h55v397h-55v151h465c143 0 243 -88 243 -230c0 -103 -32 -177 -138 -206zM484 380c55 7 97 38 97 89s-36 79 -80 79h-222v-191z" />
    <glyph glyph-name="RV3" horiz-adv-x="796" 
d="M590 253c39 -60 78 -98 135 -127l-72 -141c-85 40 -169 133 -220 232c-4 8 -9 16 -13 24h-139v-90h57v-151h-289v151h56v398h-56v150l455 1c143 0 244 -88 244 -230c0 -112 -62 -190 -158 -217zM491 393c44 0 80 26 80 77s-36 79 -80 79h-210v-156h210z" />
    <glyph glyph-name="KV1" horiz-adv-x="797" 
d="M681 151h67v-151h-189l-142 277h-133v-126h57v-151h-291v151h58v397h-58v151h291v-151h-57v-124h133l135 275h175v-151h-60l-95 -198z" />
    <glyph glyph-name="TT" horiz-adv-x="677" 
d="M631 345h-205v-195h57v-150h-290v150h57v195h-204v151h585v-151z" />
    <glyph glyph-name="OO" horiz-adv-x="588" 
d="M48 47v138h492v-138h-492zM294 246c-136 0 -246 105 -246 235s110 235 246 235s246 -105 246 -235s-110 -235 -246 -235zM294 570c-51 0 -92 -40 -92 -89c0 -48 41 -88 92 -88s92 40 92 88c0 49 -41 89 -92 89z" />
    <glyph glyph-name="Scaron" unicode="&#x160;" horiz-adv-x="700" 
d="M381 435c201 -23 285 -94 285 -223c0 -138 -115 -228 -320 -228c-112 0 -236 30 -299 104l109 112c49 -43 125 -63 190 -63c100 0 144 32 144 71c0 41 -40 65 -128 73l-28 3c-184 18 -263 71 -263 222c0 129 113 209 298 209c115 0 203 -32 274 -91l-115 -113
c-38 29 -106 52 -159 52c-75 0 -121 -23 -121 -58c0 -34 12 -53 104 -66zM100 953h184l85 -89l84 89h184v-15l-180 -179h-177l-180 179v15z" />
    <glyph glyph-name="scaron" unicode="&#x161;" horiz-adv-x="556" 
d="M338 297c126 -27 181 -57 181 -146c0 -82 -70 -164 -240 -164c-93 0 -204 51 -243 107l127 86c26 -25 80 -46 119 -46c37 0 52 15 52 28c0 14 -14 27 -55 34l-36 7c-128 23 -171 78 -171 147c0 100 96 163 224 163c80 0 160 -33 214 -98l-130 -88c-31 24 -61 33 -94 33
c-29 0 -40 -9 -40 -22c0 -17 14 -23 40 -29zM23 748h184l85 -89l84 89h184v-15l-180 -179h-177l-180 179v15z" />
    <glyph glyph-name="Ydieresis" unicode="&#x178;" horiz-adv-x="716" 
d="M499 699h187v-150h-55l-184 -301v-97h52v-151h-281v151h52v99l-184 299h-56v150h188l139 -272h4zM319 939v-160h-163v160h163zM561 939v-160h-163v160h163z" />
    <glyph glyph-name="ydieresis" unicode="&#xff;" horiz-adv-x="666" 
d="M449 495h184v-151h-56l-245 -560h-169v151h57l27 66l-157 343h-57v151h181l116 -300h2zM295 735v-160h-163v160h163zM537 735v-160h-163v160h163z" />
    <glyph glyph-name="agrave" unicode="&#xe0;" horiz-adv-x="704" 
d="M596 151h57v-151h-211l-22 59h-4c-23 -54 -84 -74 -136 -74c-162 0 -234 109 -234 265c0 178 116 261 234 261c53 0 99 -25 125 -70h3l38 54h150v-344zM314 134c61 0 107 42 107 116c0 64 -45 107 -100 107s-99 -44 -99 -107c0 -73 47 -116 92 -116zM311 750l126 -172
h-175l-179 172h228z" />
    <glyph glyph-name="Agrave" unicode="&#xc0;" horiz-adv-x="816" 
d="M720 150h59v-150h-196l-45 125h-260l-46 -125h-195v150h59l155 399h-52v150h307zM329 266h158l-77 213h-3zM347 954l126 -172h-175l-179 172h228z" />
    <glyph glyph-name="Aacute" unicode="&#xc1;" horiz-adv-x="832" 
d="M730 150h59v-150h-196l-45 125h-260l-46 -125h-195v150h59l155 399h-52v150h307zM339 266h158l-77 213h-3zM329 782l126 172h228l-179 -172h-175z" />
    <glyph glyph-name="aacute" unicode="&#xe1;" horiz-adv-x="710" 
d="M601 151h57v-151h-211l-22 59h-4c-23 -54 -84 -74 -136 -74c-162 0 -234 109 -234 265c0 178 116 261 234 261c53 0 99 -25 125 -70h3l38 54h150v-344zM319 134c61 0 107 42 107 116c0 64 -45 107 -100 107s-99 -44 -99 -107c0 -73 47 -116 92 -116zM253 578l126 172h228
l-179 -172h-175z" />
    <glyph glyph-name="Acircumflex" unicode="&#xc2;" horiz-adv-x="838" 
d="M730 150h59v-150h-196l-45 125h-260l-46 -125h-195v150h59l155 399h-52v150h307zM339 266h158l-77 213h-3zM302 769h-184v15l180 179h177l180 -179v-15h-184l-84 91z" />
    <glyph glyph-name="acircumflex" unicode="&#xe2;" horiz-adv-x="703" 
d="M593 151h57v-151h-211l-22 59h-4c-23 -54 -84 -74 -136 -74c-162 0 -234 109 -234 265c0 178 116 261 234 261c53 0 99 -25 125 -70h3l38 54h150v-344zM311 134c61 0 107 42 107 116c0 64 -45 107 -100 107s-99 -44 -99 -107c0 -73 47 -116 92 -116zM239 565h-184v15
l180 179h177l180 -179v-15h-184l-84 91z" />
    <glyph glyph-name="atilde" unicode="&#xe3;" horiz-adv-x="700" 
d="M593 151h57v-151h-211l-22 59h-4c-23 -54 -84 -74 -136 -74c-162 0 -234 109 -234 265c0 178 116 261 234 261c53 0 99 -25 125 -70h3l38 54h150v-344zM311 134c61 0 107 42 107 116c0 64 -45 107 -100 107s-99 -44 -99 -107c0 -73 47 -116 92 -116zM233 745
c74 0 116 -38 180 -38c56 0 107 42 107 42v-118s-52 -51 -114 -51c-74 0 -116 38 -180 38c-56 0 -107 -42 -107 -42v119s52 50 114 50z" />
    <glyph glyph-name="Adieresis" unicode="&#xc4;" horiz-adv-x="833" 
d="M730 150h59v-150h-196l-45 125h-260l-46 -125h-195v150h59l155 399h-52v150h307zM339 266h158l-77 213h-3zM348 939v-160h-163v160h163zM590 939v-160h-163v160h163z" />
    <glyph glyph-name="adieresis" unicode="&#xe4;" horiz-adv-x="702" 
d="M592 151h57v-151h-211l-22 59h-4c-23 -54 -84 -74 -136 -74c-162 0 -234 109 -234 265c0 178 116 261 234 261c53 0 99 -25 125 -70h3l38 54h150v-344zM310 134c61 0 107 42 107 116c0 64 -45 107 -100 107s-99 -44 -99 -107c0 -73 47 -116 92 -116zM296 735v-160h-163
v160h163zM538 735v-160h-163v160h163z" />
    <glyph glyph-name="Egrave" unicode="&#xc8;" horiz-adv-x="700" 
d="M656 548h-372v-123h328v-140h-328v-134h372v-151h-606v151h59v397h-59v151h606v-151zM330 954l126 -172h-175l-179 172h228z" />
    <glyph glyph-name="egrave" unicode="&#xe8;" horiz-adv-x="618" 
d="M584 231v-21h-368c13 -41 41 -78 88 -78c38 0 65 16 91 47l149 -70c-44 -69 -129 -125 -238 -125c-141 0 -272 113 -272 263c0 146 130 264 272 264c168 0 271 -117 278 -280zM218 289h176c-14 35 -37 68 -84 68c-48 0 -78 -29 -92 -68zM278 750l126 -172h-175l-179 172
h228z" />
    <glyph glyph-name="Eacute" unicode="&#xc9;" horiz-adv-x="673" 
d="M656 548h-372v-123h328v-140h-328v-134h372v-151h-606v151h59v397h-59v151h606v-151zM258 782l126 172h228l-179 -172h-175z" />
    <glyph glyph-name="eacute" unicode="&#xe9;" 
d="M584 231v-21h-368c13 -41 41 -78 88 -78c38 0 65 16 91 47l149 -70c-44 -69 -129 -125 -238 -125c-141 0 -272 113 -272 263c0 146 130 264 272 264c168 0 271 -117 278 -280zM218 289h176c-14 35 -37 68 -84 68c-48 0 -78 -29 -92 -68zM233 578l126 172h228l-179 -172
h-175z" />
    <glyph glyph-name="Ecircumflex" unicode="&#xca;" horiz-adv-x="708" 
d="M656 548h-372v-123h328v-140h-328v-134h372v-151h-606v151h59v397h-59v151h606v-151zM276 769h-184v15l180 179h177l180 -179v-15h-184l-84 91z" />
    <glyph glyph-name="ecircumflex" unicode="&#xea;" 
d="M584 231v-21h-368c13 -41 41 -78 88 -78c38 0 65 16 91 47l149 -70c-44 -69 -129 -125 -238 -125c-141 0 -272 113 -272 263c0 146 130 264 272 264c168 0 271 -117 278 -280zM218 289h176c-14 35 -37 68 -84 68c-48 0 -78 -29 -92 -68zM222 565h-184v15l180 179h177
l180 -179v-15h-184l-84 91z" />
    <glyph glyph-name="Edieresis" unicode="&#xcb;" horiz-adv-x="677" 
d="M656 548h-372v-123h328v-140h-328v-134h372v-151h-606v151h59v397h-59v151h606v-151zM327 939v-160h-163v160h163zM569 939v-160h-163v160h163z" />
    <glyph glyph-name="edieresis" unicode="&#xeb;" 
d="M584 231v-21h-368c13 -41 41 -78 88 -78c38 0 65 16 91 47l149 -70c-44 -69 -129 -125 -238 -125c-141 0 -272 113 -272 263c0 146 130 264 272 264c168 0 271 -117 278 -280zM218 289h176c-14 35 -37 68 -84 68c-48 0 -78 -29 -92 -68zM262 735v-160h-163v160h163z
M504 735v-160h-163v160h163z" />
    <glyph glyph-name="Igrave" unicode="&#xcc;" horiz-adv-x="375" 
d="M330 548h-52v-397h52v-151h-280v151h52v397h-52v151h280v-151zM154 954l126 -172h-175l-179 172h228z" />
    <glyph glyph-name="Iacute" unicode="&#xcd;" horiz-adv-x="352" 
d="M330 548h-52v-397h52v-151h-280v151h52v397h-52v151h280v-151zM122 782l126 172h228l-179 -172h-175z" />
    <glyph glyph-name="Icircumflex" unicode="&#xce;" horiz-adv-x="351" 
d="M330 548h-52v-397h52v-151h-280v151h52v397h-52v151h280v-151zM108 769h-184v15l180 179h177l180 -179v-15h-184l-84 91z" />
    <glyph glyph-name="Idieresis" unicode="&#xcf;" horiz-adv-x="374" 
d="M330 548h-52v-397h52v-151h-280v151h52v397h-52v151h280v-151zM149 939v-160h-163v160h163zM391 939v-160h-163v160h163z" />
    <glyph glyph-name="ntilde" unicode="&#xf1;" horiz-adv-x="772" 
d="M661 151h55v-151h-281v151h51v98c0 64 -25 108 -100 108c-62 0 -100 -53 -100 -108v-98h55v-151h-281v151h52v193h-52v151h200l22 -55h5c25 45 69 70 140 70c150 0 234 -83 234 -261v-98zM286 745c74 0 116 -38 180 -38c56 0 107 42 107 42v-118s-52 -51 -114 -51
c-74 0 -116 38 -180 38c-56 0 -107 -42 -107 -42v119s52 50 114 50z" />
    <glyph glyph-name="Atilde" unicode="&#xc3;" horiz-adv-x="835" 
d="M730 150h59v-150h-196l-45 125h-260l-46 -125h-195v150h59l155 399h-52v150h307zM339 266h158l-77 213h-3zM305 949c74 0 116 -38 180 -38c56 0 107 42 107 42v-118s-52 -51 -114 -51c-74 0 -116 38 -180 38c-56 0 -107 -42 -107 -42v119s52 50 114 50z" />
    <glyph glyph-name="Ntilde" unicode="&#xd1;" horiz-adv-x="844" 
d="M796 548h-51v-398h42v-150h-218l-289 409h-4v-259h54v-150h-280v150h51v398h-51v151h226l290 -421h3v270h-53v151h280v-151zM318 949c74 0 116 -38 180 -38c56 0 107 42 107 42v-118s-52 -51 -114 -51c-74 0 -116 38 -180 38c-56 0 -107 -42 -107 -42v119s52 50 114 50z
" />
    <glyph glyph-name="Ograve" unicode="&#xd2;" horiz-adv-x="854" 
d="M430 714c226 0 384 -157 384 -367c0 -203 -154 -363 -383 -363c-225 0 -384 160 -384 363c0 212 163 367 383 367zM431 140c130 0 207 87 207 208c0 116 -78 210 -208 210c-131 0 -207 -90 -207 -210c0 -121 77 -208 208 -208zM389 954l126 -172h-175l-179 172h228z" />
    <glyph glyph-name="Oacute" unicode="&#xd3;" horiz-adv-x="852" 
d="M430 714c226 0 384 -157 384 -367c0 -203 -154 -363 -383 -363c-225 0 -384 160 -384 363c0 212 163 367 383 367zM431 140c130 0 207 87 207 208c0 116 -78 210 -208 210c-131 0 -207 -90 -207 -210c0 -121 77 -208 208 -208zM372 782l126 172h228l-179 -172h-175z" />
    <glyph glyph-name="Ocircumflex" unicode="&#xd4;" horiz-adv-x="858" 
d="M430 714c226 0 384 -157 384 -367c0 -203 -154 -363 -383 -363c-225 0 -384 160 -384 363c0 212 163 367 383 367zM431 140c130 0 207 87 207 208c0 116 -78 210 -208 210c-131 0 -207 -90 -207 -210c0 -121 77 -208 208 -208zM351 769h-184v15l180 179h177l180 -179v-15
h-184l-84 91z" />
    <glyph glyph-name="Otilde" unicode="&#xd5;" horiz-adv-x="865" 
d="M430 714c226 0 384 -157 384 -367c0 -203 -154 -363 -383 -363c-225 0 -384 160 -384 363c0 212 163 367 383 367zM431 140c130 0 207 87 207 208c0 116 -78 210 -208 210c-131 0 -207 -90 -207 -210c0 -121 77 -208 208 -208zM350 949c74 0 116 -38 180 -38
c56 0 107 42 107 42v-118s-52 -51 -114 -51c-74 0 -116 38 -180 38c-56 0 -107 -42 -107 -42v119s52 50 114 50z" />
    <glyph glyph-name="Odieresis" unicode="&#xd6;" horiz-adv-x="854" 
d="M430 714c226 0 384 -157 384 -367c0 -203 -154 -363 -383 -363c-225 0 -384 160 -384 363c0 212 163 367 383 367zM431 140c130 0 207 87 207 208c0 116 -78 210 -208 210c-131 0 -207 -90 -207 -210c0 -121 77 -208 208 -208zM395 939v-160h-163v160h163zM637 939v-160
h-163v160h163z" />
    <glyph glyph-name="ograve" unicode="&#xf2;" horiz-adv-x="637" 
d="M322 511c152 0 276 -118 276 -263c0 -146 -124 -264 -276 -264s-275 118 -275 264c0 145 123 263 275 263zM322 132c55 0 100 51 100 113s-45 112 -100 112s-100 -50 -100 -112s45 -113 100 -113zM281 750l126 -172h-175l-179 172h228z" />
    <glyph glyph-name="oacute" unicode="&#xf3;" horiz-adv-x="639" 
d="M322 511c152 0 276 -118 276 -263c0 -146 -124 -264 -276 -264s-275 118 -275 264c0 145 123 263 275 263zM322 132c55 0 100 51 100 113s-45 112 -100 112s-100 -50 -100 -112s45 -113 100 -113zM238 578l126 172h228l-179 -172h-175z" />
    <glyph glyph-name="ocircumflex" unicode="&#xf4;" horiz-adv-x="650" 
d="M322 511c152 0 276 -118 276 -263c0 -146 -124 -264 -276 -264s-275 118 -275 264c0 145 123 263 275 263zM322 132c55 0 100 51 100 113s-45 112 -100 112s-100 -50 -100 -112s45 -113 100 -113zM231 565h-184v15l180 179h177l180 -179v-15h-184l-84 91z" />
    <glyph glyph-name="otilde" unicode="&#xf5;" horiz-adv-x="637" 
d="M322 511c152 0 276 -118 276 -263c0 -146 -124 -264 -276 -264s-275 118 -275 264c0 145 123 263 275 263zM322 132c55 0 100 51 100 113s-45 112 -100 112s-100 -50 -100 -112s45 -113 100 -113zM237 745c74 0 116 -38 180 -38c56 0 107 42 107 42v-118
s-52 -51 -114 -51c-74 0 -116 38 -180 38c-56 0 -107 -42 -107 -42v119s52 50 114 50z" />
    <glyph glyph-name="odieresis" unicode="&#xf6;" horiz-adv-x="636" 
d="M322 511c152 0 276 -118 276 -263c0 -146 -124 -264 -276 -264s-275 118 -275 264c0 145 123 263 275 263zM322 132c55 0 100 51 100 113s-45 112 -100 112s-100 -50 -100 -112s45 -113 100 -113zM277 735v-160h-163v160h163zM519 735v-160h-163v160h163z" />
    <glyph glyph-name="Ugrave" unicode="&#xd9;" horiz-adv-x="836" 
d="M510 699h280v-150h-52v-215c0 -203 -112 -349 -320 -349c-209 0 -320 146 -320 349v215h-51v150h281v-150h-51v-215c0 -143 46 -197 141 -197c93 0 142 59 142 197v215h-50v150zM380 954l126 -172h-175l-179 172h228z" />
    <glyph glyph-name="Uacute" unicode="&#xda;" horiz-adv-x="834" 
d="M510 699h280v-150h-52v-215c0 -203 -112 -349 -320 -349c-209 0 -320 146 -320 349v215h-51v150h281v-150h-51v-215c0 -143 46 -197 141 -197c93 0 142 59 142 197v215h-50v150zM332 782l126 172h228l-179 -172h-175z" />
    <glyph glyph-name="Ucircumflex" unicode="&#xdb;" horiz-adv-x="834" 
d="M510 699h280v-150h-52v-215c0 -203 -112 -349 -320 -349c-209 0 -320 146 -320 349v215h-51v150h281v-150h-51v-215c0 -143 46 -197 141 -197c93 0 142 59 142 197v215h-50v150zM334 769h-184v15l180 179h177l180 -179v-15h-184l-84 91z" />
    <glyph glyph-name="Udieresis" unicode="&#xdc;" horiz-adv-x="836" 
d="M510 699h280v-150h-52v-215c0 -203 -112 -349 -320 -349c-209 0 -320 146 -320 349v215h-51v150h281v-150h-51v-215c0 -143 46 -197 141 -197c93 0 142 59 142 197v215h-50v150zM379 939v-160h-163v160h163zM621 939v-160h-163v160h163z" />
    <glyph glyph-name="Yacute" unicode="&#xdd;" horiz-adv-x="741" 
d="M515 699h187v-150h-55l-184 -301v-97h52v-151h-281v151h52v99l-184 299h-56v150h188l139 -272h4zM286 782l126 172h228l-179 -172h-175z" />
    <glyph glyph-name="ugrave" unicode="&#xf9;" horiz-adv-x="730" 
d="M641 151h52v-151h-201l-23 53h-7c-26 -45 -96 -69 -137 -69c-118 0 -234 82 -234 261v99h-55v151h231v-250c0 -63 33 -112 99 -112c61 0 99 57 99 112v99h-55v151h231v-344zM317 750l126 -172h-175l-179 172h228z" />
    <glyph glyph-name="uacute" unicode="&#xfa;" horiz-adv-x="722" 
d="M641 151h52v-151h-201l-23 53h-7c-26 -45 -96 -69 -137 -69c-118 0 -234 82 -234 261v99h-55v151h231v-250c0 -63 33 -112 99 -112c61 0 99 57 99 112v99h-55v151h231v-344zM281 578l126 172h228l-179 -172h-175z" />
    <glyph glyph-name="ucircumflex" unicode="&#xfb;" horiz-adv-x="726" 
d="M641 151h52v-151h-201l-23 53h-7c-26 -45 -96 -69 -137 -69c-118 0 -234 82 -234 261v99h-55v151h231v-250c0 -63 33 -112 99 -112c61 0 99 57 99 112v99h-55v151h231v-344zM271 565h-184v15l180 179h177l180 -179v-15h-184l-84 91z" />
    <glyph glyph-name="udieresis" unicode="&#xfc;" horiz-adv-x="726" 
d="M641 151h52v-151h-201l-23 53h-7c-26 -45 -96 -69 -137 -69c-118 0 -234 82 -234 261v99h-55v151h231v-250c0 -63 33 -112 99 -112c61 0 99 57 99 112v99h-55v151h231v-344zM325 735v-160h-163v160h163zM567 735v-160h-163v160h163z" />
    <glyph glyph-name="yacute" unicode="&#xfd;" horiz-adv-x="682" 
d="M463 495h184v-151h-56l-245 -560h-169v151h57l27 66l-157 343h-57v151h181l116 -300h2zM270 578l126 172h228l-179 -172h-175z" />
    <glyph glyph-name="Zcaron" unicode="&#x17d;" horiz-adv-x="630" 
d="M279 154v-3h320v-151h-549l1 149l319 394v5h-320v151h549l-1 -151zM50 942h184l85 -89l84 89h184v-15l-180 -179h-177l-180 179v15z" />
    <glyph glyph-name="zcaron" unicode="&#x17e;" horiz-adv-x="586" 
d="M296 153h249v-153h-486v139l240 202v2h-235v152h472v-139l-240 -201v-2zM20 738h184l85 -89l84 89h184v-15l-180 -179h-177l-180 179v15z" />
    <glyph glyph-name="&V1" horiz-adv-x="808" 
d="M765 429v-151l-102 -1c-6 -180 -126 -296 -298 -296c-206 0 -317 161 -317 365c0 211 116 370 319 370c76 0 140 -22 189 -61l-116 -112c-20 14 -45 21 -75 21c-80 0 -124 -56 -136 -152zM367 134c81 0 118 46 122 142l-258 -1c15 -88 60 -141 136 -141z" />
    <glyph glyph-name="&V2" horiz-adv-x="850" 
d="M806 287h-123v-3c29 -28 39 -63 39 -97c0 -141 -153 -204 -337 -204c-183 0 -337 61 -337 202c0 163 140 179 140 179v4s-96 14 -96 159c0 98 84 187 294 187c72 0 147 -8 198 -28l-71 -146c-46 15 -76 22 -128 22c-69 0 -118 -29 -118 -68c0 -42 35 -65 66 -65v-139
c-87 -2 -109 -34 -109 -76s34 -80 161 -80c124 0 162 38 162 80c0 39 -19 76 -103 76v140l362 14v-157z" />
    <glyph glyph-name="&V3" horiz-adv-x="863" 
d="M819 511c0 -122 -34 -185 -138 -209v-3c27 -25 42 -65 42 -112c0 -141 -154 -205 -338 -205s-338 62 -338 203c0 169 177 180 177 180v4s-132 20 -132 159c0 97 84 187 294 187c72 0 147 -8 199 -28l-72 -146c-46 15 -76 22 -128 22c-69 0 -118 -29 -118 -69
c0 -49 30 -62 66 -65v-139c-88 -2 -109 -34 -109 -76s34 -80 161 -80c125 0 163 38 163 80c0 52 -51 75 -95 75v138c163 0 195 21 195 83z" />
    <glyph glyph-name="igrave" unicode="&#xec;" horiz-adv-x="388" 
d="M281 151h53v-151h-280v151h53v194h-53v150h228zM150 750l126 -172h-175l-179 172h228z" />
    <glyph glyph-name="iacute" unicode="&#xed;" horiz-adv-x="375" 
d="M276 151h53v-151h-280v151h53v194h-53v150h228zM101 578l126 172h228l-179 -172h-175z" />
    <glyph glyph-name="icircumflex" unicode="&#xee;" horiz-adv-x="391" 
d="M283 151h53v-151h-280v151h53v194h-53v150h228zM104 565h-184v15l180 179h177l180 -179v-15h-184l-84 91z" />
    <glyph glyph-name="idieresis" unicode="&#xef;" horiz-adv-x="379" 
d="M275 151h53v-151h-280v151h53v194h-53v150h228zM144 735v-160h-163v160h163zM386 735v-160h-163v160h163z" />
    <glyph glyph-name="paragraph" unicode="&#xb6;" horiz-adv-x="557" 
d="M508 611h-63v-523h63v-88h-393v88h77v288c-87 4 -145 78 -145 164c0 89 70 161 160 159h301v-88zM351 88v523h-64v-523h64z" />
    <glyph glyph-name="Sacute" unicode="&#x15a;" horiz-adv-x="705" 
d="M381 435c201 -23 285 -94 285 -223c0 -138 -115 -228 -320 -228c-112 0 -236 30 -299 104l109 112c49 -43 125 -63 190 -63c100 0 144 32 144 71c0 41 -40 65 -128 73l-28 3c-184 18 -263 71 -263 222c0 129 113 209 298 209c115 0 203 -32 274 -91l-115 -113
c-38 29 -106 52 -159 52c-75 0 -121 -23 -121 -58c0 -34 12 -53 104 -66zM290 782l126 172h228l-179 -172h-175z" />
    <glyph glyph-name="Tcaron" unicode="&#x164;" horiz-adv-x="639" 
d="M617 548h-210v-397h53v-151h-281v151h52v397h-209v151h595v-151zM48 942h184l85 -89l84 89h184v-15l-180 -179h-177l-180 179v15z" />
    <glyph glyph-name="Zacute" unicode="&#x179;" horiz-adv-x="639" 
d="M279 154v-3h320v-151h-549l1 149l319 394v5h-320v151h549l-1 -151zM233 782l126 172h228l-179 -172h-175z" />
    <glyph glyph-name="zacute" unicode="&#x17a;" horiz-adv-x="595" 
d="M296 153h249v-153h-486v139l240 202v2h-235v152h472v-139l-240 -201v-2zM208 578l126 172h228l-179 -172h-175z" />
    <glyph glyph-name="sacute" unicode="&#x15b;" horiz-adv-x="527" 
d="M326 297c126 -27 181 -57 181 -146c0 -82 -70 -164 -240 -164c-93 0 -204 51 -243 107l127 86c26 -25 80 -46 119 -46c37 0 52 15 52 28c0 14 -14 27 -55 34l-36 7c-128 23 -171 78 -171 147c0 100 96 163 224 163c80 0 160 -33 214 -98l-130 -88c-31 24 -61 33 -94 33
c-29 0 -40 -9 -40 -22c0 -17 14 -23 40 -29zM191 578l126 172h228l-179 -172h-175z" />
    <glyph glyph-name="Zdotaccent" unicode="&#x17b;" horiz-adv-x="639" 
d="M279 154v-3h320v-151h-549l1 149l319 394v5h-320v151h549l-1 -151zM249 757v172h176v-172h-176z" />
    <glyph glyph-name="zdotaccent" unicode="&#x17c;" horiz-adv-x="587" 
d="M296 153h249v-153h-486v139l240 202v2h-235v152h472v-139l-240 -201v-2zM203 555v172h176v-172h-176z" />
    <glyph glyph-name="Racute" unicode="&#x154;" horiz-adv-x="801" 
d="M623 269l54 -118h83v-151h-203l-111 251h-163v-100h58v-151h-291v151h57v397h-57v151h466c143 0 244 -89 244 -231c0 -118 -55 -169 -137 -199zM503 391c45 0 80 27 80 77c0 51 -35 80 -80 80h-220v-157h220zM304 782l126 172h228l-179 -172h-175z" />
    <glyph glyph-name="Abreve" unicode="&#x102;" horiz-adv-x="825" 
d="M730 150h59v-150h-196l-45 125h-260l-46 -125h-195v150h59l155 399h-52v150h307zM339 266h158l-77 213h-3zM370 927c0 -38 20 -56 45 -56c26 0 44 18 44 56h126c0 -121 -77 -161 -170 -161c-91 0 -171 38 -171 161h126z" />
    <glyph glyph-name="Lacute" unicode="&#x139;" horiz-adv-x="660" 
d="M458 151v89h164v-240h-572v151h51v397h-51v151h281v-151h-55v-397h182zM143 782l126 172h228l-179 -172h-175z" />
    <glyph glyph-name="Ecaron" unicode="&#x11a;" horiz-adv-x="692" 
d="M656 548h-372v-123h328v-140h-328v-134h372v-151h-606v151h59v397h-59v151h606v-151zM92 942h184l85 -89l84 89h184v-15l-180 -179h-177l-180 179v15z" />
    <glyph glyph-name="Dcaron" unicode="&#x10e;" horiz-adv-x="808" 
d="M373 699c267 0 412 -104 412 -350c0 -244 -150 -349 -412 -349h-323v151h54v397h-54v151h323zM373 151c156 0 236 54 236 199c0 155 -80 198 -236 198h-94v-397h94zM104 942h184l85 -89l84 89h184v-15l-180 -179h-177l-180 179v15z" />
    <glyph glyph-name="racute" unicode="&#x155;" horiz-adv-x="496" 
d="M391 510c40 0 66 -10 99 -30l-70 -150c-15 8 -32 14 -59 14c-62 0 -85 -53 -85 -108v-85h54v-151h-281v151h52v193h-52v151h199l24 -55h4c26 45 64 70 115 70zM186 578l126 172h228l-179 -172h-175z" />
    <glyph glyph-name="abreve" unicode="&#x103;" horiz-adv-x="705" 
d="M598 151h57v-151h-211l-22 59h-4c-23 -54 -84 -74 -136 -74c-162 0 -234 109 -234 265c0 178 116 261 234 261c53 0 99 -25 125 -70h3l38 54h150v-344zM316 134c61 0 107 42 107 116c0 64 -45 107 -100 107s-99 -44 -99 -107c0 -73 47 -116 92 -116zM316 723
c0 -38 20 -56 45 -56c26 0 44 18 44 56h126c0 -121 -77 -161 -170 -161c-91 0 -171 38 -171 161h126z" />
    <glyph glyph-name="lacute" unicode="&#x13a;" horiz-adv-x="365" 
d="M345 142v-142c-29 -7 -51 -9 -99 -9c-119 0 -167 57 -167 229v331h-49v148h225v-479c0 -70 24 -85 52 -85c19 0 26 3 38 7zM87 768l126 172h228l-179 -172h-175z" />
    <glyph glyph-name="cacute" unicode="&#x107;" horiz-adv-x="584" 
d="M404 182l154 -72c-45 -69 -129 -125 -239 -125c-141 0 -272 113 -272 263c0 147 130 264 272 264c100 0 185 -47 234 -119l-148 -82c-18 29 -46 47 -82 47c-57 0 -100 -50 -100 -110c0 -53 38 -115 95 -115c37 0 65 18 86 49zM228 578l126 172h228l-179 -172h-175z" />
    <glyph glyph-name="ccaron" unicode="&#x10d;" horiz-adv-x="582" 
d="M404 182l154 -72c-45 -69 -129 -125 -239 -125c-141 0 -272 113 -272 263c0 147 130 264 272 264c100 0 185 -47 234 -119l-148 -82c-18 29 -46 47 -82 47c-57 0 -100 -50 -100 -110c0 -53 38 -115 95 -115c37 0 65 18 86 49zM47 738h184l85 -89l84 89h184v-15l-180 -179
h-177l-180 179v15z" />
    <glyph glyph-name="ecaron" unicode="&#x11b;" 
d="M584 231v-21h-368c13 -41 41 -78 88 -78c38 0 65 16 91 47l149 -70c-44 -69 -129 -125 -238 -125c-141 0 -272 113 -272 263c0 146 130 264 272 264c168 0 271 -117 278 -280zM218 289h176c-14 35 -37 68 -84 68c-48 0 -78 -29 -92 -68zM28 738h184l85 -89l84 89h184v-15
l-180 -179h-177l-180 179v15z" />
    <glyph glyph-name="Nacute" unicode="&#x143;" horiz-adv-x="832" 
d="M796 548h-51v-398h42v-150h-218l-289 409h-4v-259h54v-150h-280v150h51v398h-51v151h226l290 -421h3v270h-53v151h280v-151zM346 782l126 172h228l-179 -172h-175z" />
    <glyph glyph-name="Ncaron" unicode="&#x147;" horiz-adv-x="817" 
d="M796 548h-51v-398h42v-150h-218l-289 409h-4v-259h54v-150h-280v150h51v398h-51v151h226l290 -421h3v270h-53v151h280v-151zM155 942h184l85 -89l84 89h184v-15l-180 -179h-177l-180 179v15z" />
    <glyph glyph-name="nacute" unicode="&#x144;" horiz-adv-x="775" 
d="M661 151h55v-151h-281v151h51v98c0 64 -25 108 -100 108c-62 0 -100 -53 -100 -108v-98h55v-151h-281v151h52v193h-52v151h200l22 -55h5c25 45 69 70 140 70c150 0 234 -83 234 -261v-98zM289 578l126 172h228l-179 -172h-175z" />
    <glyph glyph-name="ncaron" unicode="&#x148;" horiz-adv-x="782" 
d="M661 151h55v-151h-281v151h51v98c0 64 -25 108 -100 108c-62 0 -100 -53 -100 -108v-98h55v-151h-281v151h52v193h-52v151h200l22 -55h5c25 45 69 70 140 70c150 0 234 -83 234 -261v-98zM111 738h184l85 -89l84 89h184v-15l-180 -179h-177l-180 179v15z" />
    <glyph glyph-name="Ohungarumlaut" unicode="&#x150;" horiz-adv-x="855" 
d="M430 714c226 0 384 -157 384 -367c0 -203 -154 -363 -383 -363c-225 0 -384 160 -384 363c0 212 163 367 383 367zM431 140c130 0 207 87 207 208c0 116 -78 210 -208 210c-131 0 -207 -90 -207 -210c0 -121 77 -208 208 -208zM494 1027l-106 -253h-112l45 253h173z
M701 1027l-106 -253h-112l45 253h173z" />
    <glyph glyph-name="ohungarumlaut" unicode="&#x151;" horiz-adv-x="644" 
d="M322 511c152 0 276 -118 276 -263c0 -146 -124 -264 -276 -264s-275 118 -275 264c0 145 123 263 275 263zM322 132c55 0 100 51 100 113s-45 112 -100 112s-100 -50 -100 -112s45 -113 100 -113zM382 825l-106 -253h-112l45 253h173zM589 825l-106 -253h-112l45 253h173
z" />
    <glyph glyph-name="Rcaron" unicode="&#x158;" horiz-adv-x="801" 
d="M623 269l54 -118h83v-151h-203l-111 251h-163v-100h58v-151h-291v151h57v397h-57v151h466c143 0 244 -89 244 -231c0 -118 -55 -169 -137 -199zM503 391c45 0 80 27 80 77c0 51 -35 80 -80 80h-220v-157h220zM122 942h184l85 -89l84 89h184v-15l-180 -179h-177l-180 179
v15z" />
    <glyph glyph-name="rcaron" unicode="&#x159;" horiz-adv-x="508" 
d="M391 510c40 0 66 -10 99 -30l-70 -150c-15 8 -32 14 -59 14c-62 0 -85 -53 -85 -108v-85h54v-151h-281v151h52v193h-52v151h199l24 -55h4c26 45 64 70 115 70zM-17 738h184l85 -89l84 89h184v-15l-180 -179h-177l-180 179v15z" />
    <glyph glyph-name="Uring" unicode="&#x16e;" horiz-adv-x="836" 
d="M510 699h280v-150h-52v-215c0 -203 -112 -349 -320 -349c-209 0 -320 146 -320 349v215h-51v150h281v-150h-51v-215c0 -143 46 -197 141 -197c93 0 142 59 142 197v215h-50v150zM598 927c0 -94 -80 -170 -178 -170s-178 76 -178 170s80 171 178 171s178 -77 178 -171z
M354 927c0 -35 30 -63 66 -63c37 0 67 28 67 63s-30 64 -67 64c-36 0 -66 -29 -66 -64z" />
    <glyph glyph-name="uring" unicode="&#x16f;" horiz-adv-x="739" 
d="M641 151h52v-151h-201l-23 53h-7c-26 -45 -96 -69 -137 -69c-118 0 -234 82 -234 261v99h-55v151h231v-250c0 -63 33 -112 99 -112c61 0 99 57 99 112v99h-55v151h231v-344zM537 727c0 -94 -80 -170 -178 -170s-178 76 -178 170s80 171 178 171s178 -77 178 -171z
M293 727c0 -35 30 -63 66 -63c37 0 67 28 67 63s-30 64 -67 64c-36 0 -66 -29 -66 -64z" />
    <glyph glyph-name="Uhungarumlaut" unicode="&#x170;" horiz-adv-x="836" 
d="M510 699h280v-150h-52v-215c0 -203 -112 -349 -320 -349c-209 0 -320 146 -320 349v215h-51v150h281v-150h-51v-215c0 -143 46 -197 141 -197c93 0 142 59 142 197v215h-50v150zM475 1006l-106 -253h-112l45 253h173zM682 1006l-106 -253h-112l45 253h173z" />
    <glyph glyph-name="uhungarumlaut" unicode="&#x171;" horiz-adv-x="722" 
d="M641 151h52v-151h-201l-23 53h-7c-26 -45 -96 -69 -137 -69c-118 0 -234 82 -234 261v99h-55v151h231v-250c0 -63 33 -112 99 -112c61 0 99 57 99 112v99h-55v151h231v-344zM417 815l-106 -253h-112l45 253h173zM624 815l-106 -253h-112l45 253h173z" />
    <glyph glyph-name="Aogonek" unicode="&#x104;" horiz-adv-x="828" 
d="M764 0c-27 -11 -83 -42 -83 -97c0 -37 22 -51 48 -51c27 0 45 8 45 8l-1 -98s-29 -12 -77 -12c-64 0 -164 32 -164 117c0 67 48 110 84 133h-29l-45 125h-260l-46 -125h-195v150h59l155 399h-52v150h307l214 -549h59v-150h-19zM333 266h158l-77 213h-3z" />
    <glyph glyph-name="Eogonek" unicode="&#x118;" horiz-adv-x="699" 
d="M650 548h-372v-123h328v-140h-328v-134h372v-151h-19c-26 -11 -83 -41 -83 -97c0 -37 22 -51 48 -51c27 0 45 8 45 8l-1 -98s-29 -12 -77 -12c-64 0 -164 32 -164 117c0 67 48 110 84 133h-439v151h59v397h-59v151h606v-151z" />
    <glyph glyph-name="eogonek" unicode="&#x119;" 
d="M584 231v-21h-368c13 -41 41 -78 88 -78c38 0 65 16 91 47l149 -70c-30 -48 -81 -90 -145 -111c-30 -13 -80 -44 -80 -95c0 -37 22 -51 48 -51c27 0 45 8 45 8l-1 -98s-29 -12 -77 -12c-64 0 -164 32 -164 117c0 60 38 100 72 125c-114 28 -208 128 -208 255
c0 146 130 264 272 264c168 0 271 -117 278 -280zM218 289h176c-14 35 -37 68 -84 68c-48 0 -78 -29 -92 -68z" />
    <glyph glyph-name="aogonek" unicode="&#x105;" horiz-adv-x="698" 
d="M631 0c-27 -12 -83 -42 -83 -97c0 -37 22 -51 48 -51c27 0 45 8 45 8l-1 -98s-29 -12 -77 -12c-64 0 -164 32 -164 117c0 67 48 110 85 133h-45l-22 59h-4c-23 -54 -84 -74 -136 -74c-162 0 -234 109 -234 265c0 178 116 261 234 261c56 0 99 -25 125 -70h3l38 54h150
v-344h57v-151h-19zM311 134c61 0 107 42 107 116c0 64 -45 107 -100 107s-99 -44 -99 -107c0 -73 47 -116 92 -116z" />
    <glyph glyph-name="dcroat" unicode="&#x111;" horiz-adv-x="697" 
d="M595 151h53v-151h-207l-19 58h-7c-23 -54 -84 -73 -136 -73c-163 0 -235 109 -235 265c0 179 114 261 232 261c59 0 112 -22 140 -69h4v62h-42v139h42v56h175v-56h46v-139h-46v-353zM315 133c50 0 104 37 104 117c0 55 -45 108 -99 108c-49 0 -100 -44 -100 -108
c0 -73 50 -117 95 -117z" />
    <glyph glyph-name="Gbreve" unicode="&#x11e;" horiz-adv-x="810" 
d="M579 350h176v-350h-113l-34 58h-3c-30 -49 -113 -73 -175 -73c-240 0 -383 162 -383 365c0 202 152 365 383 365c126 0 214 -47 283 -132l-132 -94c-39 55 -97 75 -151 75c-140 0 -208 -93 -208 -214s68 -214 208 -214c96 0 149 48 149 171v43zM385 927
c0 -38 20 -56 45 -56c26 0 44 18 44 56h126c0 -121 -77 -161 -170 -161c-91 0 -171 38 -171 161h126z" />
    <glyph glyph-name="gbreve" unicode="&#x11f;" horiz-adv-x="681" 
d="M449 495h203v-150h-53v-300c0 -199 -61 -281 -318 -281c-88 0 -170 19 -215 45l43 148c43 -23 93 -42 170 -42c105 0 144 35 144 136v7h-6c-23 -54 -82 -74 -134 -74c-163 0 -235 112 -235 268c0 179 116 258 235 258c58 0 105 -25 128 -66h4zM319 131
c50 0 104 37 104 118c0 55 -45 107 -99 107c-49 0 -100 -44 -100 -107c0 -74 49 -118 95 -118zM316 723c0 -38 20 -56 45 -56c26 0 44 18 44 56h126c0 -121 -77 -161 -170 -161c-91 0 -171 38 -171 161h126z" />
    <glyph glyph-name="Idotaccent" unicode="&#x130;" horiz-adv-x="390" 
d="M330 548h-52v-397h52v-151h-280v151h52v397h-52v151h280v-151zM104 762v172h176v-172h-176z" />
    <glyph glyph-name="Cacute" unicode="&#x106;" horiz-adv-x="773" 
d="M595 211l138 -97c-78 -92 -191 -131 -302 -131c-218 0 -384 150 -384 364c0 218 170 367 384 367c120 0 229 -48 302 -132l-139 -100c-39 47 -93 75 -164 75c-130 0 -207 -89 -207 -209c0 -121 78 -209 208 -209c63 0 122 21 164 72zM354 782l126 172h228l-179 -172h-175
z" />
    <glyph glyph-name="Ccaron" unicode="&#x10c;" horiz-adv-x="773" 
d="M595 211l138 -97c-78 -92 -191 -131 -302 -131c-218 0 -384 150 -384 364c0 218 170 367 384 367c120 0 229 -48 302 -132l-139 -100c-39 47 -93 75 -164 75c-130 0 -207 -89 -207 -209c0 -121 78 -209 208 -209c63 0 122 21 164 72zM162 942h184l85 -89l84 89h184v-15
l-180 -179h-177l-180 179v15z" />
    <glyph glyph-name="ellipsis" unicode="&#x2026;" horiz-adv-x="852" 
d="M50 172h176v-172h-176v172zM338 172h176v-172h-176v172zM626 172h176v-172h-176v172z" />
    </font>
</defs>
</svg>
