<?xml version="1.0" standalone="no"?>
<!DOCTYPE svg PUBLIC "-//W3C//DTD SVG 1.1//EN" "http://www.w3.org/Graphics/SVG/1.1/DTD/svg11.dtd" >
<svg xmlns="http://www.w3.org/2000/svg" xmlns:xlink="http://www.w3.org/1999/xlink" version="1.1">
<metadata>
Created by FontForge 20160407 at Fri Dec  2 14:00:57 2016
 By Jimmy Wärting
Copyright (c) 2015 by Jan-Christian Bruun. All rights reserved.
</metadata>
<defs>
<font id="ArkibalSerif-Bold" horiz-adv-x="639" >
  <font-face 
    font-family="Arkibal Serif"
    font-weight="700"
    font-stretch="normal"
    units-per-em="1000"
    panose-1="2 0 5 4 0 0 0 2 0 4"
    ascent="750"
    descent="-250"
    x-height="495"
    cap-height="699"
    bbox="-138 -304 1304 1073"
    underline-thickness="50"
    underline-position="-100"
    unicode-range="U+0020-FB02"
  />
<missing-glyph horiz-adv-x="249" 
 />
    <glyph glyph-name=".notdef" horiz-adv-x="249" 
 />
    <glyph glyph-name=".null" horiz-adv-x="0" 
 />
    <glyph glyph-name="CR" horiz-adv-x="249" 
 />
    <glyph glyph-name="space" unicode=" " horiz-adv-x="266" 
 />
    <glyph glyph-name="l" unicode="l" horiz-adv-x="377" 
d="M327 126v-130c-24 -6 -54 -9 -78 -9c-100 0 -165 44 -165 216v368h-57v128h200v-509c0 -54 24 -71 52 -71c13 0 35 3 48 7z" />
    <glyph glyph-name="o" unicode="o" horiz-adv-x="645" 
d="M598 247c0 -132 -111 -263 -275 -263c-152 0 -276 118 -276 263c0 146 124 264 276 264s275 -118 275 -264zM323 384c-84 0 -132 -65 -132 -134c0 -82 47 -138 132 -138c78 0 131 56 131 138c0 69 -42 134 -131 134z" />
    <glyph glyph-name="r" unicode="r" horiz-adv-x="517" 
d="M402 511c42 0 77 -15 99 -30l-60 -129c-14 14 -45 22 -68 22c-76 0 -117 -45 -117 -137v-109h57v-128h-258v128h57v239h-57v128h179l22 -64h2c28 50 55 80 144 80z" />
    <glyph glyph-name="c" unicode="c" horiz-adv-x="587" 
d="M429 169l125 -59c-48 -75 -135 -125 -234 -125c-152 0 -276 118 -276 263c0 146 124 264 276 264c96 0 181 -47 230 -119l-119 -65c-21 33 -57 56 -111 56c-84 0 -132 -65 -132 -133c0 -83 47 -138 132 -138c48 0 86 21 109 56z" />
    <glyph glyph-name="n" unicode="n" horiz-adv-x="755" 
d="M659 128h57v-128h-256v128h57v110c0 92 -37 145 -125 145c-81 0 -138 -51 -138 -145v-110h57v-128h-258v128h57v240h-57v127h179l22 -64h2c28 50 79 80 169 80c152 0 234 -83 234 -261v-122z" />
    <glyph glyph-name="d" unicode="d" horiz-adv-x="704" 
d="M594 128h57v-128h-177l-24 65h-1c-36 -57 -89 -80 -164 -80c-161 0 -241 117 -241 263c0 145 90 263 241 263c76 0 132 -29 163 -79h2v139h-56v128h200v-571zM319 113c80 0 131 62 131 135c0 72 -49 135 -131 135c-85 0 -131 -61 -131 -135c0 -72 42 -135 131 -135z" />
    <glyph glyph-name="e" unicode="e" horiz-adv-x="626" 
d="M587 238v-36h-398c15 -55 58 -90 126 -90c48 0 86 21 109 56l125 -60c-49 -74 -135 -124 -234 -124c-152 0 -276 118 -276 263c0 146 124 264 276 264c161 0 272 -117 272 -273zM189 292h252c-14 51 -55 91 -126 91c-66 0 -110 -40 -126 -91z" />
    <glyph glyph-name="m" unicode="m" horiz-adv-x="1053" 
d="M956 128h57v-128h-257v128h57v110c0 92 -23 145 -101 145c-72 0 -108 -51 -108 -145v-110h56v-128h-257v128h57v110c0 92 -24 145 -102 145c-72 0 -107 -51 -107 -145v-110h57v-128h-258v128h57v240h-57v127h165l20 -64h2c25 50 71 80 150 80c80 0 140 -28 177 -88h2
c24 50 77 88 182 88c130 0 208 -77 208 -261v-122z" />
    <glyph glyph-name="u" unicode="u" horiz-adv-x="752" 
d="M653 128h57v-128h-178l-22 65h-2c-28 -50 -80 -81 -169 -81c-152 0 -235 84 -235 262v122h-57v127h199v-237c0 -92 38 -145 126 -145c81 0 137 51 137 145v110h-57v127h201v-367z" />
    <glyph glyph-name="a" unicode="a" horiz-adv-x="692" 
d="M181 248c0 -72 42 -135 131 -135c80 0 132 62 132 135c0 72 -49 136 -132 136c-85 0 -131 -61 -131 -136zM587 128h57v-128h-177l-28 65h-1c-36 -57 -86 -79 -160 -79c-162 0 -241 117 -241 262c0 146 90 263 241 263c76 0 128 -29 159 -79h2l28 63h120v-367z" />
    <glyph glyph-name="b" unicode="b" horiz-adv-x="670" 
d="M384 511c151 0 241 -118 241 -263c0 -146 -79 -263 -241 -263c-74 0 -128 23 -164 80h-1l-24 -65h-120v571h-57v128h201v-267h2c31 50 87 79 163 79zM350 113c89 0 132 63 132 135c0 74 -47 135 -132 135c-82 0 -131 -63 -131 -135c0 -73 51 -135 131 -135z" />
    <glyph glyph-name="h" unicode="h" horiz-adv-x="752" 
d="M656 128h57v-128h-255v128h56v110c0 92 -37 145 -125 145c-81 0 -138 -51 -138 -145v-110h57v-128h-258v128h57v444h-57v127h201v-268h2c27 50 79 80 168 80c153 0 235 -83 235 -261v-122z" />
    <glyph glyph-name="ae" unicode="&#xe6;" horiz-adv-x="956" 
d="M909 240v-36h-399c15 -55 59 -90 127 -90c47 0 86 21 108 56l125 -60c-48 -74 -135 -124 -233 -124c-58 0 -111 17 -155 46h-3c-44 -29 -97 -46 -155 -46c-152 0 -276 118 -276 263c0 146 124 264 276 264c57 0 110 -16 154 -45h5c44 29 97 45 154 45
c160 0 272 -117 272 -273zM192 252c0 -83 47 -138 132 -138c25 0 48 6 67 16c-20 36 -30 76 -30 119c0 44 11 85 30 121c-18 10 -40 15 -67 15c-84 0 -132 -65 -132 -133zM511 294h251c-14 51 -55 91 -125 91c-67 0 -111 -40 -126 -91z" />
    <glyph glyph-name="oslash" unicode="&#xf8;" horiz-adv-x="649" 
d="M535 416c40 -46 64 -105 64 -169c0 -132 -111 -263 -275 -263c-63 0 -121 20 -168 54l-44 -44l-43 42l43 43c-40 46 -64 104 -64 168c0 146 124 264 276 264c63 0 120 -20 167 -54l44 44l43 -42zM324 383c-84 0 -132 -65 -132 -133c0 -28 5 -53 15 -73h3l186 185v3
c-19 12 -43 18 -72 18zM324 112c78 0 131 56 131 138c0 24 -5 48 -15 68h-3l-186 -186v-2c20 -12 44 -18 73 -18z" />
    <glyph glyph-name="aring" unicode="&#xe5;" horiz-adv-x="698" 
d="M326 562c-83 0 -151 65 -151 144c0 80 68 144 151 144s151 -64 151 -144c0 -79 -68 -144 -151 -144zM326 777c-43 0 -78 -32 -78 -71c0 -41 39 -71 78 -71c43 0 78 32 78 71c0 40 -39 73 -78 71zM190 248c0 -72 42 -135 131 -135c80 0 132 62 132 135
c0 72 -49 136 -132 136c-85 0 -131 -61 -131 -136zM596 128h57v-128h-177l-28 65h-1c-36 -57 -86 -79 -160 -79c-162 0 -241 117 -241 262c0 146 90 263 241 263c76 0 128 -29 159 -79h2l28 63h120v-367z" />
    <glyph glyph-name="AE" unicode="&#xc6;" horiz-adv-x="973" 
d="M741 128h195v-128h-299l-53 135h-324l-53 -135h-160v128h57l179 443h-57v128h568v-128h-233l63 -155h220v-122h-171zM309 257h227l-113 284h-2z" />
    <glyph glyph-name="i" unicode="i" horiz-adv-x="361" 
d="M252 128h57v-128h-258v128h58v239h-58v128h201v-367zM252 699v-135h-143v135h143z" />
    <glyph glyph-name="k" unicode="k" 
d="M537 128h59v-128h-124l-154 213l-66 -63v-22h57v-128h-259v128h58v444h-58v127h202v-395l190 191h124v-128h-87l-67 -64z" />
    <glyph glyph-name="q" unicode="q" horiz-adv-x="696" 
d="M286 510c74 0 127 -23 163 -80h2l23 65h177v-128h-57v-443h57v-128h-258v128h58v139h-2c-32 -50 -88 -79 -163 -79c-152 0 -242 118 -242 263c0 146 80 263 242 263zM319 112c83 0 132 63 132 135c0 73 -52 135 -132 135c-89 0 -131 -63 -131 -135
c0 -74 46 -135 131 -135z" />
    <glyph glyph-name="f" unicode="f" horiz-adv-x="406" 
d="M341 582c-60 0 -86 -23 -86 -69v-18h103v-128h-104v-239h57v-128h-258v128h58v239h-64v128h65v18c0 131 52 197 209 197c23 0 47 -3 67 -8v-125c-14 3 -32 5 -47 5z" />
    <glyph glyph-name="g" unicode="g" horiz-adv-x="686" 
d="M311 112c80 0 131 62 131 135c0 72 -49 136 -131 136c-85 0 -131 -61 -131 -136c0 -72 42 -135 131 -135zM466 495h177v-128h-57v-319c0 -204 -104 -284 -319 -284c-152 0 -214 45 -214 45l39 132s70 -49 175 -49c143 0 174 43 174 156v16h-2c-36 -57 -88 -79 -162 -79
c-162 0 -241 117 -241 262c0 146 90 263 241 263c76 0 128 -29 159 -79h2z" />
    <glyph glyph-name="y" unicode="y" horiz-adv-x="690" 
d="M485 495h164v-128h-57l-245 -583h-150v128h57l33 77l-183 378h-57v128h161l85 -211l57 -131h2l49 131z" />
    <glyph glyph-name="t" unicode="t" horiz-adv-x="378" 
d="M339 117v-126c-11 -1 -23 -2 -35 -2c-157 0 -209 66 -209 197v181h-65v128h64v143l143 31v-174h104v-128h-103v-181c0 -46 26 -69 86 -69h15z" />
    <glyph glyph-name="p" unicode="p" horiz-adv-x="696" 
d="M414 510c162 0 242 -117 242 -263c0 -145 -90 -263 -242 -263c-75 0 -131 29 -163 79h-2v-139h58v-128h-258v128h57v443h-57v128h177l23 -65h2c36 57 89 80 163 80zM381 112c85 0 131 61 131 135c0 72 -42 135 -131 135c-80 0 -132 -62 -132 -135c0 -72 49 -135 132 -135
z" />
    <glyph glyph-name="j" unicode="j" horiz-adv-x="327" 
d="M37 495h201v-688l-144 -36v596h-57v128zM94 699h144v-135h-144v135z" />
    <glyph glyph-name="period" unicode="." horiz-adv-x="276" 
d="M190 136v-136h-140v136h140z" />
    <glyph glyph-name="v" unicode="v" horiz-adv-x="682" 
d="M481 495h159v-127h-57l-153 -368h-174l-153 368h-58v127h159l85 -211l53 -149h2l53 149z" />
    <glyph glyph-name="w" unicode="w" horiz-adv-x="925" 
d="M722 495h164v-128h-58l-138 -367h-159l-66 236h-2l-66 -236h-159l-139 367h-57v128h164l68 -212l44 -149h2l42 149l61 212h82l61 -212l41 -149h3l43 149z" />
    <glyph glyph-name="z" unicode="z" horiz-adv-x="587" 
d="M268 128h269v-128h-487v117l262 248v2h-256v128h472v-118l-260 -247v-2z" />
    <glyph glyph-name="A" unicode="A" horiz-adv-x="847" 
d="M741 128h57v-128h-161l-53 135h-324l-53 -135h-160v128h57l180 443h-57v128h282zM308 256h227l-112 290h-2z" />
    <glyph glyph-name="B" unicode="B" horiz-adv-x="795" 
d="M637 355c60 -16 111 -71 111 -154c0 -128 -100 -201 -244 -201h-454v128h58v443h-58v128h438c157 0 244 -74 244 -203c0 -65 -37 -119 -95 -140v-1zM251 571v-161h224c84 0 113 26 113 79c0 52 -32 82 -113 82h-224zM491 127c85 0 113 25 113 78c0 56 -30 84 -113 84
h-240v-162h240z" />
    <glyph glyph-name="C" unicode="C" horiz-adv-x="779" 
d="M622 193l109 -78c-67 -80 -172 -131 -300 -131c-226 0 -384 161 -384 364c0 211 162 366 383 366c127 0 232 -49 300 -130l-108 -80c-41 52 -106 83 -192 83c-152 0 -239 -93 -239 -238c-1 -140 89 -237 240 -237c84 0 150 30 191 81z" />
    <glyph glyph-name="D" unicode="D" horiz-adv-x="832" 
d="M405 699c267 0 385 -103 385 -349c0 -245 -123 -350 -385 -350h-355v128h57v443h-57v128h355zM405 128c193 0 241 77 241 222c0 156 -51 221 -241 221h-154v-443h154z" />
    <glyph glyph-name="E" unicode="E" horiz-adv-x="706" 
d="M654 571h-403v-155h359v-122h-359v-166h403v-128h-604v128h57v443h-57v128h604v-128z" />
    <glyph glyph-name="F" unicode="F" horiz-adv-x="700" 
d="M654 571h-403v-155h359v-122h-359v-166h57v-128h-258v128h57v443h-57v128h604v-128z" />
    <glyph glyph-name="G" unicode="G" horiz-adv-x="803" 
d="M618 350h144v-350h-112l-35 65h-2c-33 -51 -89 -80 -182 -80c-226 0 -384 160 -384 363c0 212 163 367 383 367c127 0 232 -50 301 -130l-109 -80c-41 52 -106 82 -192 82c-152 0 -239 -93 -239 -238c0 -140 90 -236 240 -236c118 0 187 47 187 198v39z" />
    <glyph glyph-name="H" unicode="H" horiz-adv-x="857" 
d="M809 571h-57v-443h57v-128h-257v128h57v158h-359v-158h57v-128h-257v128h57v443h-57v128h257v-128h-57v-158h359v158h-57v128h257v-128z" />
    <glyph glyph-name="I" unicode="I" horiz-adv-x="355" 
d="M307 571h-57v-443h57v-128h-257v128h57v443h-57v128h257v-128z" />
    <glyph glyph-name="J" unicode="J" horiz-adv-x="680" 
d="M213 699h424v-128h-57v-261c0 -204 -106 -326 -304 -326c-105 0 -181 30 -232 81l96 96c28 -32 77 -49 136 -49c115 0 161 56 161 199v260h-224v128z" />
    <glyph glyph-name="K" unicode="K" horiz-adv-x="779" 
d="M656 128h61v-128h-147l-197 297l-123 -133v-36h57v-128h-257v128h57v443h-57v128h257v-128h-57v-218l306 346h141v-128h-73l-158 -171z" />
    <glyph glyph-name="L" unicode="L" horiz-adv-x="665" 
d="M485 235h143v-235h-578v128h57v443h-56v128h257v-128h-57v-443h234v107z" />
    <glyph glyph-name="M" unicode="M" horiz-adv-x="934" 
d="M885 571h-57v-443h57v-128h-258v128h57v332h-3l-167 -251h-93l-167 251h-3v-332h57v-128h-258v128h57v443h-57v128h193l223 -338h3l223 338h193v-128z" />
    <glyph glyph-name="N" unicode="N" horiz-adv-x="846" 
d="M809 571h-57v-443h56v-128h-204l-351 487h-2v-359h57v-128h-258v128h57v443h-57v128h205l350 -483h3v355h-57v128h258v-128z" />
    <glyph glyph-name="O" unicode="O" horiz-adv-x="861" 
d="M430 714c226 0 384 -157 384 -367c0 -203 -155 -363 -383 -363c-226 0 -384 161 -384 364c0 211 162 366 383 366zM431 112c150 0 239 93 239 236c0 141 -87 239 -240 239c-152 0 -239 -93 -239 -238c0 -140 90 -237 240 -237z" />
    <glyph glyph-name="P" unicode="P" horiz-adv-x="759" 
d="M505 699c144 0 244 -88 244 -231c0 -141 -99 -228 -244 -228h-255v-112h57v-128h-257v128h57v444h-57v127h455zM492 367c70 0 113 28 113 101c0 69 -39 103 -113 103h-242v-204h242z" />
    <glyph glyph-name="Q" unicode="Q" horiz-adv-x="859" 
d="M672 345c2 141 -84 240 -237 242c-152 3 -241 -89 -243 -234c-2 -140 86 -238 236 -240c150 -3 241 89 244 232zM437 715c226 -4 382 -164 378 -374c-2 -150 -89 -275 -227 -328l86 -173h-162l-62 146c-12 -1 -12 -1 -24 -1c-225 4 -381 166 -378 369
c4 212 169 364 389 361z" />
    <glyph glyph-name="R" unicode="R" horiz-adv-x="785" 
d="M615 260l62 -132h57v-128h-152l-108 240h-223v-112h57v-128h-258v128h58v444h-58v127h456c144 0 244 -88 244 -231c0 -101 -52 -175 -135 -208zM493 368c70 0 113 28 113 100c0 69 -39 104 -113 104h-242v-204h242z" />
    <glyph glyph-name="S" unicode="S" horiz-adv-x="695" 
d="M363 422c201 -26 285 -81 285 -210c0 -138 -115 -228 -320 -228c-112 0 -236 30 -299 104l97 100c47 -50 137 -76 202 -76c126 0 176 34 176 91c0 53 -43 78 -160 93l-28 4c-191 26 -263 80 -263 206c0 129 113 209 298 209c115 0 203 -32 274 -91l-100 -98
c-43 41 -121 62 -174 62c-122 0 -154 -33 -154 -76c0 -34 19 -68 137 -86z" />
    <glyph glyph-name="T" unicode="T" horiz-adv-x="679" 
d="M641 572h-225v-444h57v-128h-258v128h57v444h-226v127h595v-127z" />
    <glyph glyph-name="U" unicode="U" horiz-adv-x="846" 
d="M543 699h258v-127h-57v-238c0 -203 -112 -349 -320 -349c-209 0 -320 146 -320 349v238h-57v127h258v-127h-57v-238c0 -151 65 -221 176 -221c105 0 176 70 176 221v238h-57v127z" />
    <glyph glyph-name="V" unicode="V" horiz-adv-x="835" 
d="M636 699h161v-127h-58l-231 -572h-174l-231 572h-58v127h161l161 -415l53 -149h2l53 149z" />
    <glyph glyph-name="W" unicode="W" horiz-adv-x="1169" 
d="M952 699h178v-127h-60l-191 -572h-159l-130 439h-2l-141 -439h-157l-183 572h-60v127h179l108 -415l39 -149h2l43 149l105 415h132l105 -415l43 -149h2l39 149z" />
    <glyph glyph-name="X" unicode="X" horiz-adv-x="697" 
d="M599 128h57v-128h-134l-167 255h-3l-165 -255h-137v128h57l149 225v5l-141 214h-57v127h141l153 -239h3l153 239h141v-127h-58l-142 -215v-4z" />
    <glyph glyph-name="Y" unicode="Y" horiz-adv-x="735" 
d="M545 699h148v-127h-58l-195 -327v-117h57v-128h-258v128h57v118l-193 326h-57v127h147l176 -312h2z" />
    <glyph glyph-name="Z" unicode="Z" horiz-adv-x="649" 
d="M244 130v-2h355v-128h-549v118l354 450v3h-354v128h548v-115z" />
    <glyph glyph-name="zero" unicode="0" horiz-adv-x="727" 
d="M365 713c204 0 315 -160 315 -363c0 -211 -116 -369 -318 -369c-204 0 -315 160 -315 363c0 224 123 369 318 369zM365 109c108 0 171 75 171 236c0 157 -58 240 -174 240c-114 0 -172 -85 -172 -236c0 -161 61 -240 175 -240z" />
    <glyph glyph-name="x" unicode="x" horiz-adv-x="601" 
d="M495 128h57v-128h-131l-118 160h-3l-118 -160h-132v128h57l98 123v3l-90 113h-58v128h132l111 -149h3l111 149h131v-128h-58l-90 -113v-3z" />
    <glyph glyph-name="Oslash" unicode="&#xd8;" horiz-adv-x="863" 
d="M735 579c51 -62 80 -142 80 -231c0 -203 -155 -363 -383 -363c-88 0 -165 24 -226 65l-70 -70l-75 75l66 66c-51 61 -79 140 -79 227c0 211 162 367 383 367c87 0 164 -24 226 -65l69 70l75 -75zM191 349c0 -49 12 -93 33 -130h2l335 336v2c-35 19 -79 30 -130 30
c-153 0 -240 -93 -240 -238zM432 113c150 0 239 93 239 236c0 50 -11 95 -32 131h-3l-334 -334v-3c35 -19 79 -30 130 -30z" />
    <glyph glyph-name="Aring" unicode="&#xc5;" horiz-adv-x="832" 
d="M739 128h57v-128h-160l-53 135h-324l-53 -135h-161v128h57l180 443h-57v128h86c-21 23 -33 54 -33 88c0 73 59 132 132 132s132 -59 132 -132c0 -34 -13 -65 -34 -89zM410 834c-26 0 -47 -21 -47 -47s21 -47 47 -47s47 21 47 47s-21 47 -47 47zM307 256h227l-112 290h-2z
" />
    <glyph glyph-name="one" unicode="1" horiz-adv-x="530" 
d="M339 127h146v-127h-436v127h146v430l-146 -31v129l214 44h76v-572z" />
    <glyph glyph-name="two" unicode="2" horiz-adv-x="623" 
d="M284 127h290v-127h-492v125c243 184 350 265 350 349c0 66 -40 108 -131 108c-82 0 -130 -19 -196 -71l-57 119c70 49 147 80 248 80c187 0 278 -85 278 -223c0 -132 -79 -220 -290 -357v-3z" />
    <glyph glyph-name="three" unicode="3" horiz-adv-x="610" 
d="M342 407c156 -12 220 -86 220 -197c0 -156 -88 -227 -310 -227c-83 0 -163 15 -203 36l25 129c37 -19 103 -37 178 -37c127 0 166 36 166 101c0 50 -41 97 -245 97l-14 92l195 169v1h-300v128h477v-129l-189 -161v-2z" />
    <glyph glyph-name="four" unicode="4" horiz-adv-x="641" 
d="M595 257v-128h-78v-129h-143v129h-332v129l250 441h155l-255 -439v-3h182v121h143v-121h78z" />
    <glyph glyph-name="five" unicode="5" horiz-adv-x="619" 
d="M339 434c136 0 232 -65 232 -210c0 -140 -102 -242 -279 -242c-155 0 -244 61 -244 61l33 120s103 -54 191 -54c114 0 155 44 155 103c0 55 -36 98 -154 98c-65 0 -141 -18 -178 -33l-15 7v415h454v-128h-310v-158l2 -2c34 15 70 23 113 23z" />
    <glyph glyph-name="six" unicode="6" horiz-adv-x="653" 
d="M606 222c0 -151 -93 -239 -268 -239c-203 0 -290 104 -290 355c0 258 99 375 319 375c78 0 157 -23 209 -67l-66 -108c-39 33 -83 47 -143 47c-131 0 -177 -61 -177 -202v-5h2c23 53 100 80 175 80c141 0 239 -74 239 -236zM332 331c-90 0 -136 -49 -136 -110
c0 -71 45 -110 131 -110c98 0 135 38 135 110c0 65 -40 110 -130 110z" />
    <glyph glyph-name="seven" unicode="7" horiz-adv-x="586" 
d="M45 699h499v-116l-194 -583h-155l204 566v5h-210v-86h-144v214z" />
    <glyph glyph-name="eight" unicode="8" horiz-adv-x="689" 
d="M527 377v-2c60 -17 114 -75 114 -164c0 -152 -99 -228 -296 -228c-218 0 -297 80 -297 222c0 69 40 127 111 139v1c-69 25 -95 59 -95 160c0 140 112 209 280 209c176 0 274 -78 274 -201c0 -75 -33 -120 -91 -136zM335 423c15 -3 52 -10 52 -10c51 12 87 46 87 87
c0 51 -32 86 -130 86c-107 0 -137 -34 -137 -82c0 -46 27 -59 128 -81zM345 294c-23 5 -34 7 -54 9c-66 -15 -100 -40 -100 -90c0 -57 37 -103 154 -103c112 0 151 41 151 97c0 41 -39 65 -151 87z" />
    <glyph glyph-name="nine" unicode="9" horiz-adv-x="654" 
d="M48 473c0 151 93 239 268 239c203 0 290 -104 290 -355c0 -258 -99 -375 -319 -375c-78 0 -173 21 -230 55l55 114c41 -26 115 -41 175 -41c131 0 176 61 176 202v5h-2c-23 -53 -99 -80 -174 -80c-141 0 -239 74 -239 236zM322 364c90 0 136 49 136 111
c0 70 -46 109 -131 109c-98 0 -135 -38 -135 -109c0 -65 39 -111 130 -111z" />
    <glyph glyph-name="exclam" unicode="!" horiz-adv-x="269" 
d="M59 0v149h143v-149h-143zM190 251h-120l-21 465h161z" />
    <glyph glyph-name="dollar" unicode="$" horiz-adv-x="706" 
d="M663 211c0 -126 -97 -212 -270 -226v-95h-71v94c-107 3 -219 34 -278 103l96 100c42 -45 119 -70 182 -75v188c-185 26 -254 81 -254 205c0 119 95 196 254 208v95h71v-94c102 -5 181 -36 247 -91l-101 -98c-35 35 -96 55 -146 60v-166c190 -27 270 -82 270 -208z
M211 511c0 -31 17 -62 111 -81v155c-86 -7 -111 -37 -111 -74zM393 113c89 8 126 40 126 89c0 48 -34 73 -126 88v-177z" />
    <glyph glyph-name="percent" unicode="%" horiz-adv-x="932" 
d="M631 714h98l-444 -729h-91zM402 546c0 -94 -80 -171 -178 -171s-178 77 -178 171s80 170 178 170s178 -76 178 -170zM136 546c0 -45 42 -81 88 -81c44 0 88 32 88 81c0 46 -42 80 -88 80c-45 0 -85 -33 -88 -80zM717 326c98 0 178 -76 178 -170s-80 -171 -178 -171
s-178 77 -178 171s80 170 178 170zM717 75c43 0 88 34 88 81c0 45 -42 80 -88 80c-43 0 -88 -32 -88 -80c0 -46 42 -81 88 -81z" />
    <glyph glyph-name="ampersand" unicode="&#x26;" horiz-adv-x="800" 
d="M631 139l121 -139h-189l-38 42c-26 -21 -100 -54 -181 -54c-197 0 -298 90 -298 227c0 102 48 166 149 198v2c-17 21 -42 60 -42 108c0 116 79 190 248 190c64 0 117 -20 119 -21l-1 -129s-49 23 -112 23c-62 0 -83 -21 -83 -68c0 -25 24 -55 39 -72l171 -197
c3 16 6 39 6 85h143c0 -87 -13 -142 -52 -195zM338 116c33 0 80 16 99 28l-152 174c-71 -16 -95 -50 -95 -101s30 -101 148 -101z" />
    <glyph glyph-name="parenleft" unicode="(" horiz-adv-x="421" 
d="M213 -185c0 0 -168 210 -168 482c0 273 166 490 166 490h146s-168 -221 -168 -486c0 -264 187 -486 187 -486h-163z" />
    <glyph glyph-name="parenright" unicode=")" horiz-adv-x="421" 
d="M208 -185h-163s187 222 187 486c0 265 -168 486 -168 486h146s166 -217 166 -490c0 -272 -168 -482 -168 -482z" />
    <glyph glyph-name="plus" unicode="+" horiz-adv-x="565" 
d="M523 408v-128h-177v-177h-127v177h-177v128h177v176h127v-176h177z" />
    <glyph glyph-name="comma" unicode="," horiz-adv-x="309" 
d="M47 -82l45 254h143l-89 -254h-99z" />
    <glyph glyph-name="colon" unicode=":" horiz-adv-x="275" 
d="M190 136v-136h-140v136h140zM190 495v-136h-140v136h140z" />
    <glyph glyph-name="semicolon" unicode=";" horiz-adv-x="315" 
d="M46 -82l45 254h143l-89 -254h-99zM238 495v-136h-140v136h140z" />
    <glyph glyph-name="slash" unicode="/" horiz-adv-x="493" 
d="M41 -194l260 970h113l-261 -970h-112z" />
    <glyph glyph-name="quotedblbase" unicode="&#x201e;" horiz-adv-x="519" 
d="M48 -82l45 254h143l-89 -254h-99zM237 -82l45 254h143l-89 -254h-99z" />
    <glyph glyph-name="equal" unicode="=" horiz-adv-x="505" 
d="M50 472h405v-128h-405v128zM50 127v128h405v-128h-405z" />
    <glyph glyph-name="question" unicode="?" horiz-adv-x="551" 
d="M162 0v144h143v-144h-143zM248 712c178 0 259 -90 259 -213c0 -199 -201 -212 -201 -212v-73h-143v173c18 0 36 0 67 2c81 6 133 40 133 104c0 57 -40 91 -148 91c-105 0 -169 -53 -169 -53v135s69 46 202 46z" />
    <glyph glyph-name="at" unicode="@" horiz-adv-x="1052" 
d="M644 459h97v-273c0 -20 4 -37 31 -37c52 0 90 40 90 169c0 154 -96 284 -303 284c-244 0 -368 -125 -368 -327c0 -200 122 -324 366 -324c122 0 208 31 208 31v-130s-77 -29 -205 -29c-322 0 -513 180 -513 452c0 268 202 455 514 455c279 0 445 -195 445 -409
c0 -199 -78 -272 -236 -272c-85 0 -127 49 -132 64h-2c-10 -16 -47 -65 -128 -65c-137 0 -212 82 -212 206c0 128 84 216 213 216c64 0 94 -27 109 -52h2zM528 157c65 0 100 35 100 99c0 62 -38 106 -100 106c-59 0 -103 -31 -103 -106c0 -62 35 -99 103 -99z" />
    <glyph glyph-name="backslash" unicode="\" horiz-adv-x="493" 
d="M413 -194h-112l-261 970h113z" />
    <glyph glyph-name="hyphen" unicode="-" horiz-adv-x="363" 
d="M50 227v128h264v-128h-264z" />
    <glyph glyph-name="quotesinglbase" unicode="&#x201a;" horiz-adv-x="309" 
d="M47 -82l45 254h143l-89 -254h-99z" />
    <glyph glyph-name="bracketleft" unicode="[" horiz-adv-x="398" 
d="M50 787h277v-128h-133v-717h133v-128h-277v973z" />
    <glyph glyph-name="bracketright" unicode="]" horiz-adv-x="398" 
d="M326 787v-973h-277v128h133v717h-133v128h277z" />
    <glyph glyph-name="quotedbl" unicode="&#x22;" horiz-adv-x="381" 
d="M50 442v257h96v-257h-96zM208 699h96v-257h-96v257z" />
    <glyph glyph-name="Ccedilla" unicode="&#xc7;" horiz-adv-x="775" 
d="M728 117c-60 -72 -151 -120 -262 -129v-36c82 0 131 -37 131 -117c0 -86 -60 -139 -164 -139c-56 0 -112 28 -112 28v102s48 -34 111 -34c48 0 68 15 68 41c0 27 -18 41 -70 41h-63l1 116c-193 26 -324 175 -324 360c0 211 162 367 383 366c127 0 232 -49 300 -130
l-108 -80c-41 52 -106 83 -192 83c-153 0 -240 -93 -240 -238c0 -140 90 -237 241 -237c84 0 150 30 190 81z" />
    <glyph glyph-name="Eth" unicode="&#xd0;" horiz-adv-x="880" 
d="M450 128c193 0 241 77 241 222c0 156 -51 221 -241 221h-155v-158h174v-127h-174v-158h155zM449 699c267 0 385 -103 385 -349c0 -245 -123 -350 -385 -350h-355v128h57v158h-103v127h103v158h-57v128h355z" />
    <glyph glyph-name="ccedilla" unicode="&#xe7;" horiz-adv-x="584" 
d="M554 111c-40 -62 -108 -108 -187 -121v-33c82 0 131 -37 131 -117c0 -86 -60 -139 -164 -139c-56 0 -112 28 -112 28v102s48 -34 111 -34c48 0 68 15 68 41c0 27 -18 41 -70 41h-63l1 112c-128 22 -225 130 -225 258c0 146 124 264 276 264c96 0 181 -47 230 -119
l-119 -65c-21 33 -57 57 -111 57c-84 0 -132 -65 -132 -134c0 -82 47 -138 132 -138c48 0 86 21 109 56z" />
    <glyph glyph-name="eth" unicode="&#xf0;" horiz-adv-x="652" 
d="M503 648c70 -60 102 -161 102 -310c0 -251 -87 -355 -290 -355c-184 0 -268 96 -268 239c0 162 98 236 239 236c75 0 152 -27 175 -80h2v5c0 83 -16 138 -55 170l-69 -70h-116l99 101c-11 1 -23 2 -36 2c-60 0 -104 -15 -143 -48l-66 108c52 44 131 67 209 67
c55 0 102 -7 142 -21l37 37h119zM326 111c85 0 131 39 131 110c0 61 -46 110 -136 110c-91 0 -130 -45 -130 -110c0 -72 37 -110 135 -110z" />
    <glyph glyph-name="divide" unicode="&#xf7;" horiz-adv-x="572" 
d="M352 581v-129h-131v129h131zM221 38v128h131v-128h-131zM42 355h488v-98h-488v98z" />
    <glyph glyph-name="Euro" unicode="&#x20ac;" horiz-adv-x="738" 
d="M490 113c41 0 77 7 108 20l77 -107c-53 -26 -116 -41 -185 -41c-181 1 -319 104 -366 250h-80v81h64c-1 11 -2 22 -2 33c0 12 1 24 2 36h-64v81h81c48 149 187 250 364 249c76 0 144 -17 201 -49l-77 -105c-34 17 -76 27 -124 27c-106 0 -180 -45 -215 -122h254v-81h-276
c-1 -11 -2 -23 -2 -35s1 -23 2 -34h276v-81h-253c36 -75 111 -122 215 -122z" />
    <glyph glyph-name="florin" unicode="&#x192;" horiz-adv-x="437" 
d="M392 603c-81 0 -102 -24 -102 -91h102v-127h-102v-397c0 -132 -57 -206 -245 -206v128c68 0 102 30 102 78v397h-65v127h65c0 164 57 218 245 218v-127z" />
    <glyph glyph-name="thorn" unicode="&#xfe;" horiz-adv-x="695" 
d="M383 121c89 0 131 63 131 135c0 74 -46 135 -131 135c-73 0 -120 -50 -129 -111v-48c10 -62 58 -111 129 -111zM418 519c151 0 241 -118 241 -263c0 -146 -80 -263 -241 -263c-75 0 -126 23 -162 80h-2v-162h57v-128h-261v128h57v690h-57v128h261v-128h-58v-161h1
c32 50 88 79 164 79z" />
    <glyph glyph-name="quotesingle" unicode="'" horiz-adv-x="211" 
d="M50 442v257h96v-257h-96z" />
    <glyph glyph-name="numbersign" unicode="#" horiz-adv-x="852" 
d="M806 397h-169l-20 -94h154v-128h-181l-40 -182h-138l41 182h-131l-39 -182h-139l41 182h-139v128h168l21 94h-154v128h183l40 182h133l-39 -182h133l41 182h132l-39 -182h141v-128zM481 303l22 94h-133l-20 -94h131z" />
    <glyph glyph-name="s" unicode="s" horiz-adv-x="551" 
d="M334 297c126 -27 181 -62 181 -146c0 -89 -66 -164 -236 -164c-93 0 -208 51 -247 107l109 74c24 -27 79 -53 144 -53c72 0 86 19 86 39s-18 32 -84 44l-48 9c-128 23 -171 69 -171 143c0 100 96 163 224 163c80 0 160 -33 214 -98l-110 -74c-33 34 -81 46 -114 46
c-53 0 -70 -19 -70 -32c0 -17 11 -33 70 -46z" />
    <glyph glyph-name="asterisk" unicode="*" horiz-adv-x="527" 
d="M483 509l-142 -31l95 -111l-97 -72l-75 127l-76 -127l-97 72l96 111l-143 31l38 116l135 -59l-14 146h121l-12 -146l135 59z" />
    <glyph glyph-name="fraction" unicode="&#x2044;" horiz-adv-x="493" 
d="M153 -194h-112l260 970h113z" />
    <glyph glyph-name="asciicircum" unicode="^" horiz-adv-x="609" 
d="M421 292l-115 261h-3l-114 -261h-144l189 407h142l188 -407h-143z" />
    <glyph glyph-name="braceleft" unicode="{" horiz-adv-x="505" 
d="M296 7c0 -81 19 -105 135 -105v-128c-220 0 -278 67 -278 197v141c0 83 -41 124 -93 124h-18v128h18c53 0 93 36 93 117v120c0 155 88 216 278 216v-127c-114 0 -135 -22 -135 -99v-134c0 -115 -57 -146 -98 -156v-4c42 -12 98 -41 98 -155v-135z" />
    <glyph glyph-name="braceright" unicode="}" horiz-adv-x="506" 
d="M184 7v135c0 114 56 143 98 155v4c-41 10 -98 41 -98 156v134c0 77 -21 99 -135 99v127c190 0 278 -61 278 -216v-120c0 -81 40 -117 93 -117h18v-128h-18c-52 0 -93 -41 -93 -124v-141c0 -130 -58 -197 -278 -197v128c116 0 135 24 135 105z" />
    <glyph glyph-name="breve" unicode="&#x2d8;" horiz-adv-x="435" 
d="M291 723h112c0 -94 -80 -170 -178 -170c-99 0 -178 76 -178 170h111c0 -42 30 -68 67 -68c36 0 66 26 66 68z" />
    <glyph glyph-name="ring" unicode="&#x2da;" horiz-adv-x="450" 
d="M403 535c0 -94 -80 -170 -178 -170s-178 76 -178 170s80 171 178 171s178 -77 178 -171zM159 535c0 -35 30 -63 66 -63c37 0 67 28 67 63s-30 64 -67 64c-36 0 -66 -29 -66 -64z" />
    <glyph glyph-name="dotaccent" unicode="&#x2d9;" horiz-adv-x="276" 
d="M190 698v-136h-140v136h140z" />
    <glyph glyph-name="perthousand" unicode="&#x2030;" horiz-adv-x="1318" 
d="M633 714h98l-444 -729h-91zM404 546c0 -94 -80 -171 -178 -171s-178 77 -178 171s80 170 178 170s178 -76 178 -170zM138 546c0 -45 42 -81 88 -81c44 0 88 32 88 81c0 46 -42 80 -88 80c-45 0 -85 -33 -88 -80zM719 326c98 0 178 -76 178 -170s-80 -171 -178 -171
s-178 77 -178 171s80 170 178 170zM719 75c43 0 88 34 88 81c0 45 -42 80 -88 80c-43 0 -88 -32 -88 -80c0 -46 42 -81 88 -81zM1126 326c98 0 178 -76 178 -170s-80 -171 -178 -171s-178 77 -178 171s80 170 178 170zM1126 75c43 0 88 34 88 81c0 45 -42 80 -88 80
c-43 0 -88 -32 -88 -80c0 -46 42 -81 88 -81z" />
    <glyph glyph-name="questiondown" unicode="&#xbf;" horiz-adv-x="551" 
d="M389 423v-144h-144v144h144zM303 -301c-178 0 -259 90 -259 213c0 199 200 212 200 212v73h144v-173c-18 0 -36 0 -67 -2c-82 -6 -133 -40 -133 -104c0 -57 40 -91 148 -91c105 0 169 53 169 53v-135s-69 -46 -202 -46z" />
    <glyph glyph-name="dotlessi" unicode="&#x131;" horiz-adv-x="352" 
d="M302 163h-139v299h-120v129h259v-428z" />
    <glyph glyph-name="less" unicode="&#x3c;" horiz-adv-x="591" 
d="M539 253v-138l-499 158v143l499 161v-138l-353 -92v-2z" />
    <glyph glyph-name="greater" unicode="&#x3e;" horiz-adv-x="591" 
d="M50 253l353 92v2l-353 92v138l499 -161v-143l-499 -158v138z" />
    <glyph glyph-name="multiply" unicode="&#xd7;" 
d="M561 499l-189 -200l189 -199h-144l-113 124l-112 -124h-144l188 199l-188 200h141l115 -127l116 127h141z" />
    <glyph glyph-name="currency" unicode="&#xa4;" horiz-adv-x="532" 
d="M485 254l-98 -98l-58 59c-20 -7 -41 -11 -63 -11s-43 4 -62 11l-59 -59l-98 98l56 53c-10 21 -15 44 -15 68c0 23 5 46 14 66l-55 54l98 99l58 -60c19 7 41 11 63 11s44 -4 64 -11l57 60l98 -99l-55 -54c9 -20 14 -43 14 -66c0 -24 -5 -47 -14 -67zM266 311
c37 0 66 29 66 64s-29 63 -66 63s-66 -28 -66 -63s29 -64 66 -64z" />
    <glyph glyph-name="underscore" unicode="_" horiz-adv-x="566" 
d="M50 -128v128h466v-128h-466z" />
    <glyph glyph-name="bar" unicode="|" horiz-adv-x="275" 
d="M50 729h143v-972h-143v972z" />
    <glyph glyph-name="brokenbar" unicode="&#xa6;" horiz-adv-x="276" 
d="M50 729h143v-428h-143v428zM50 -241v429h143v-429h-143z" />
    <glyph glyph-name="dagger" unicode="&#x2020;" horiz-adv-x="585" 
d="M543 482v-127h-179v-508h-143v508h-179v127h179v168h143v-168h179z" />
    <glyph glyph-name="daggerdbl" unicode="&#x2021;" horiz-adv-x="589" 
d="M545 154v-127h-179v-181h-143v181h-179v127h179v200h-179v127h179v168h143v-168h179v-127h-179v-200h179z" />
    <glyph glyph-name="circumflex" unicode="&#x2c6;" horiz-adv-x="629" 
d="M562 565h-163l-95 104l-94 -104h-164v9l186 185h144l186 -185v-9z" />
    <glyph glyph-name="guilsinglleft" unicode="&#x2039;" horiz-adv-x="394" 
d="M307 495l-120 -229l116 -231h-146l-113 231l118 229h145z" />
    <glyph glyph-name="guilsinglright" unicode="&#x203a;" horiz-adv-x="394" 
d="M168 266l-120 229h145l118 -229l-113 -231h-146z" />
    <glyph glyph-name="OE" unicode="&#x152;" horiz-adv-x="1035" 
d="M985 571h-342v-155h298v-122h-298v-166h342v-128h-552c-262 0 -385 105 -385 350c0 246 118 349 385 349h552v-128zM500 128v443h-67c-190 0 -241 -65 -241 -221c0 -145 48 -222 241 -222h67z" />
    <glyph glyph-name="cent" unicode="&#xa2;" horiz-adv-x="597" 
d="M555 113c-45 -69 -121 -117 -209 -124v-88h-57v88c-137 15 -245 127 -245 261c0 136 108 248 245 263v87h57v-87c85 -7 159 -52 204 -117l-119 -66c-17 28 -45 49 -85 55v-268c36 6 65 26 83 54zM188 253c0 -71 36 -123 101 -135v265c-65 -13 -101 -70 -101 -130z" />
    <glyph glyph-name="sterling" unicode="&#xa3;" horiz-adv-x="660" 
d="M266 128h345v-128h-565v129s141 28 141 123c0 13 -2 33 -4 42h-101v127h59c-6 19 -15 57 -15 84c0 140 120 210 310 210c88 0 148 -27 148 -27v-133s-67 32 -149 32c-111 0 -166 -26 -166 -97c0 -21 5 -50 13 -69h233v-127h-189c3 -9 5 -29 5 -41
c0 -56 -35 -105 -65 -123v-2z" />
    <glyph glyph-name="yen" unicode="&#xa5;" horiz-adv-x="748" 
d="M546 699h147v-128h-57l-152 -255h128v-59h-164l-7 -12v-32h171v-59h-171v-27h57v-127h-258v127h57v27h-170v59h170v33l-7 11h-163v59h128l-151 255h-58v128h148l176 -313h2z" />
    <glyph glyph-name="section" unicode="&#xa7;" horiz-adv-x="703" 
d="M570 59c49 -33 73 -77 73 -143c0 -138 -110 -218 -315 -218c-172 0 -265 69 -265 69l41 121s89 -63 224 -63c126 0 171 24 171 82c0 52 -43 77 -160 92l-28 4c-191 26 -263 80 -263 207c0 58 24 107 69 142v1c-49 33 -69 80 -69 148c0 129 113 209 298 209
c157 0 265 -69 265 -69l-41 -123s-113 64 -224 64c-122 0 -154 -33 -154 -76c0 -34 19 -68 137 -86l29 -4c201 -26 285 -80 285 -209c0 -65 -26 -112 -73 -145v-3zM367 124c94 -12 132 23 132 74c0 52 -37 77 -154 92l-8 1c-114 10 -145 -34 -145 -76c0 -34 19 -68 137 -86
c12 -2 29 -4 38 -5z" />
    <glyph glyph-name="copyright" unicode="&#xa9;" horiz-adv-x="840" 
d="M423 459c-71 0 -113 -50 -113 -116c0 -65 42 -114 113 -114c34 0 60 11 80 30l71 -50c-38 -39 -92 -61 -151 -61c-115 0 -207 86 -207 195s92 198 207 198c64 0 121 -28 158 -73l-71 -50c-18 25 -49 41 -87 41zM421 704c227 0 371 -142 372 -357
c0 -216 -148 -364 -375 -364s-370 143 -371 359c0 216 147 362 374 362zM421 69c172 0 272 117 272 275c0 159 -103 275 -275 275c-170 0 -271 -117 -271 -276s103 -274 274 -274z" />
    <glyph glyph-name="registered" unicode="&#xae;" horiz-adv-x="843" 
d="M621 412c0 -64 -30 -92 -75 -108l30 -64h45v-82h-111l-60 136h-88v-54h31v-82h-158v82h31v216h-31v82h253c78 0 133 -49 133 -126zM481 370c25 0 44 15 44 42c0 28 -19 44 -44 44h-119v-86h119zM423 708c228 0 372 -143 373 -360c0 -217 -146 -366 -376 -366
c-228 0 -372 144 -373 361c0 217 147 365 376 365zM423 68c172 0 274 118 274 277c0 161 -104 276 -276 276c-173 0 -274 -116 -274 -277c0 -159 104 -276 276 -276z" />
    <glyph glyph-name="ordfeminine" unicode="&#xaa;" horiz-adv-x="526" 
d="M436 440h40v-90h-125l-19 46h-1c-25 -41 -61 -57 -113 -57c-114 0 -170 83 -170 185c0 103 64 186 170 186c54 0 90 -21 112 -56h2l19 45h85v-259zM242 429c56 0 92 44 92 95s-34 96 -92 96c-60 0 -93 -43 -93 -96c0 -50 30 -95 93 -95z" />
    <glyph glyph-name="guillemotleft" unicode="&#xab;" horiz-adv-x="678" 
d="M311 495l-120 -229l116 -231h-146l-114 231l118 229h146zM565 495l-120 -229l116 -231h-146l-114 231l119 229h145z" />
    <glyph glyph-name="guillemotright" unicode="&#xbb;" horiz-adv-x="678" 
d="M423 266l-120 229h146l118 -229l-114 -231h-146zM169 266l-120 229h145l119 -229l-114 -231h-146z" />
    <glyph glyph-name="dieresis" unicode="&#xa8;" horiz-adv-x="505" 
d="M190 735v-137h-140v137h140zM411 735v-137h-140v137h140z" />
    <glyph glyph-name="oe" unicode="&#x153;" horiz-adv-x="1024" 
d="M1004 237v-36h-398c15 -55 58 -90 126 -90c48 0 86 21 109 56l125 -60c-49 -74 -135 -124 -234 -124c-81 0 -154 34 -204 87c-49 -52 -119 -87 -204 -87c-152 0 -276 118 -276 263c0 146 124 264 276 264c81 0 154 -33 204 -86c50 53 123 86 204 86
c161 0 272 -117 272 -273zM324 111c78 0 132 56 132 138c0 69 -43 133 -132 133c-84 0 -132 -65 -132 -133c0 -83 47 -138 132 -138zM606 291h252c-14 51 -56 91 -126 91c-67 0 -110 -40 -126 -91z" />
    <glyph glyph-name="endash" unicode="&#x2013;" horiz-adv-x="497" 
d="M50 227v128h398v-128h-398z" />
    <glyph glyph-name="emdash" unicode="&#x2014;" horiz-adv-x="733" 
d="M50 227v128h635v-128h-635z" />
    <glyph glyph-name="minus" unicode="&#x2212;" horiz-adv-x="560" 
d="M50 227v128h461v-128h-461z" />
    <glyph glyph-name="logicalnot" unicode="&#xac;" horiz-adv-x="574" 
d="M42 436h482v-260h-139v132h-343v128z" />
    <glyph glyph-name="plusminus" unicode="&#xb1;" horiz-adv-x="573" 
d="M47 24v128h480v-128h-480zM351 522h176v-127h-176v-177h-128v177h-177v127h177v177h128v-177z" />
    <glyph glyph-name="twosuperior" unicode="&#xb2;" horiz-adv-x="341" 
d="M190 466v-2h99v-74h-219v79c92 60 132 99 132 131c0 25 -13 37 -39 37c-24 0 -43 -10 -61 -35l-55 60c36 33 80 50 125 50c71 0 117 -42 117 -106c0 -58 -26 -91 -99 -140z" />
    <glyph glyph-name="threesuperior" unicode="&#xb3;" horiz-adv-x="341" 
d="M217 571c39 -7 76 -27 76 -87c0 -73 -43 -106 -140 -106c-38 0 -74 9 -95 18l-10 4l33 69c13 -7 43 -18 72 -18c45 0 55 12 55 30c0 17 -11 36 -88 36h-9l-8 51l64 55v2h-99v74h212l-1 -68l-62 -58v-2z" />
    <glyph glyph-name="onesuperior" unicode="&#xb9;" horiz-adv-x="299" 
d="M194 699v-240h59v-74h-204v74h60v159l-60 -14v75l92 20h53z" />
    <glyph glyph-name="ordmasculine" unicode="&#xba;" horiz-adv-x="482" 
d="M242 336v0c-107 0 -195 83 -195 186c0 102 88 186 195 186s193 -84 193 -186c0 -103 -86 -186 -193 -186zM242 618c-60 0 -94 -46 -94 -94c0 -59 34 -98 94 -98c55 0 92 40 92 98c0 48 -29 94 -92 94z" />
    <glyph glyph-name="bullet" unicode="&#x2022;" horiz-adv-x="276" 
d="M50 381h166v-162h-166v162z" />
    <glyph glyph-name="degree" unicode="&#xb0;" horiz-adv-x="450" 
d="M225 706c98 0 178 -77 178 -171s-80 -170 -178 -170s-178 76 -178 170s80 171 178 171zM225 450c48 0 86 39 86 86s-38 85 -86 85c-47 0 -85 -38 -85 -85s38 -86 85 -86z" />
    <glyph glyph-name="caron" unicode="&#x2c7;" horiz-adv-x="627" 
d="M398 738h163v-9l-186 -185h-144l-186 185v9h164l94 -104z" />
    <glyph glyph-name="Lslash" unicode="&#x141;" horiz-adv-x="749" 
d="M530 244h143v-244h-578v127h57v103l-105 -38v149l105 38v192h-56v128h257v-128h-57v-139l243 88v-149l-243 -89v-155h234v117z" />
    <glyph glyph-name="Thorn" unicode="&#xde;" horiz-adv-x="723" 
d="M424 247c70 0 114 28 114 101c0 69 -40 103 -114 103h-173v-204h173zM437 579c144 0 244 -88 244 -231c0 -141 -99 -228 -244 -228h-186v-120h-201v128h57v443h-57v128h201v-120h186z" />
    <glyph glyph-name="germandbls" unicode="&#xdf;" horiz-adv-x="725" 
d="M500 386c0 0 183 3 183 -178c0 -131 -103 -210 -260 -210c-43 0 -77 3 -77 3v128s22 -3 49 -3c100 0 144 26 144 99c0 60 -53 88 -185 88v128c75 0 114 29 114 78c0 54 -36 82 -112 82c-77 0 -107 -39 -107 -140v-333h56v-128h-257v128h57v341c0 178 67 260 275 260
c151 0 230 -69 230 -184c0 -132 -110 -157 -110 -157v-2z" />
    <glyph glyph-name="trademark" unicode="&#x2122;" horiz-adv-x="981" 
d="M48 611v88h374v-88h-136v-234h58v-86h-217v86h57v234h-136zM992 612h-58v-235h58v-86h-219v86h57v166h-2l-67 -119h-72l-67 119h-2v-166h58v-86h-218v86h56v235h-56v87h177l87 -156h2l87 156h179v-87z" />
    <glyph glyph-name="cedilla" unicode="&#xb8;" horiz-adv-x="368" 
d="M196 -43c78 0 127 -37 127 -116c0 -87 -60 -140 -165 -140c-55 0 -111 32 -111 32v101s48 -37 111 -37c59 0 68 15 68 42s-24 37 -70 37h-63l2 153h101v-72z" />
    <glyph glyph-name="periodcentered" unicode="&#xb7;" horiz-adv-x="263" 
d="M190 368v-136h-140v136h140z" />
    <glyph glyph-name="onequarter" unicode="&#xbc;" horiz-adv-x="770" 
d="M517 711h98l-444 -729h-91zM252 459v-74h-204v74h60v159l-60 -14v75l92 20h53v-240h59zM658 132h39v-74h-39v-58h-85v58h-147l2 73l111 184h100l-110 -180v-2h44v35h85v-36z" />
    <glyph glyph-name="onehalf" unicode="&#xbd;" horiz-adv-x="735" 
d="M584 76v-2h99v-74h-219v79c92 60 132 99 132 131c0 25 -13 37 -39 37c-18 0 -43 -9 -64 -33l-52 57c36 34 80 51 125 51c71 0 117 -42 117 -106c0 -58 -26 -92 -99 -140zM252 459v-74h-204v74h60v159l-60 -14v75l92 20h53v-240h59zM521 711h98l-444 -729h-91z" />
    <glyph glyph-name="threequarters" unicode="&#xbe;" horiz-adv-x="753" 
d="M292 484c0 -73 -43 -106 -140 -106c-38 0 -74 9 -95 18l-10 4l34 69c13 -7 43 -18 71 -18c45 0 55 13 55 30s-11 36 -88 36h-9l-8 51l64 55v2h-99v74h213v-68l-63 -58v-2c39 -7 75 -27 75 -87zM668 132h39v-74h-38v-58h-86v58h-147l2 73l111 184h100l-110 -180v-2h44v35
h85v-36zM551 711h98l-444 -729h-91z" />
    <glyph glyph-name="tilde" unicode="&#x2dc;" horiz-adv-x="499" 
d="M336 593c-74 0 -116 35 -180 35c-56 0 -107 -39 -107 -39v108s52 46 114 46c74 0 116 -35 180 -35c56 0 107 39 107 39v-108s-52 -46 -114 -46z" />
    <glyph glyph-name="asciitilde" unicode="~" horiz-adv-x="499" 
d="M336 241c-74 0 -116 35 -180 35c-56 0 -107 -39 -107 -39v108s52 46 114 46c74 0 116 -35 180 -35c56 0 107 39 107 39v-108s-52 -46 -114 -46z" />
    <glyph glyph-name="ogonek" unicode="&#x2db;" horiz-adv-x="344" 
d="M277 7c0 0 -98 -28 -98 -107c0 -32 21 -51 64 -51c27 0 45 9 45 9v-105s-30 -12 -78 -12c-103 0 -164 49 -164 134c0 109 126 144 126 144z" />
    <glyph glyph-name="lslash" unicode="&#x142;" horiz-adv-x="472" 
d="M426 514v-139l-143 -63v-128c0 -54 24 -71 53 -71c12 0 34 3 47 7v-130c-24 -6 -54 -9 -78 -9c-100 0 -165 44 -165 216v51l-95 -42v139l95 42v183h-57v129h200v-248z" />
    <glyph glyph-name="mu" unicode="&#xb5;" horiz-adv-x="757" 
d="M657 367v-122c0 -178 -82 -261 -235 -261c-89 0 -141 30 -169 80h-2l1 -268h-202v128h58v443h-58v128h259v-128h-57v-110c0 -94 56 -144 138 -144c88 0 125 52 125 144v110h-57v128h256v-128h-57z" />
    <glyph glyph-name="quotedblright" unicode="&#x201d;" horiz-adv-x="519" 
d="M48 445l45 254h143l-89 -254h-99zM245 445l45 254h143l-89 -254h-99z" />
    <glyph glyph-name="quotedblleft" unicode="&#x201c;" horiz-adv-x="519" 
d="M431 699l-45 -254h-143l89 254h99zM234 699l-45 -254h-143l89 254h99z" />
    <glyph glyph-name="quoteright" unicode="&#x2019;" horiz-adv-x="308" 
d="M47 445l45 254h143l-89 -254h-99z" />
    <glyph glyph-name="quoteleft" unicode="&#x2018;" horiz-adv-x="308" 
d="M231 699l-45 -254h-143l89 254h99z" />
    <glyph glyph-name="hungarumlaut" unicode="&#x2dd;" horiz-adv-x="519" 
d="M48 445l45 254h143l-89 -254h-99zM237 445l45 254h143l-89 -254h-99z" />
    <glyph glyph-name="grave" unicode="`" horiz-adv-x="205" 
d="M64 750l125 -172h-146l-181 172h202z" />
    <glyph glyph-name="acute" unicode="&#xb4;" horiz-adv-x="243" 
d="M45 578l125 172h202l-181 -172h-146z" />
    <glyph glyph-name="fi" unicode="&#xfb01;" horiz-adv-x="714" 
d="M601 128h57v-128h-258v128h58v239h-202v-239h57v-128h-258v128h57v239h-64v128h65v18c0 131 52 197 209 197c24 0 47 -3 67 -8v-125c-13 3 -31 5 -46 5c-61 0 -87 -23 -87 -69v-18h345v-367zM601 699v-135h-143v135h143z" />
    <glyph glyph-name="fl" unicode="&#xfb02;" horiz-adv-x="729" 
d="M343 582c-61 0 -87 -23 -87 -69v-18h103v-128h-103v-239h57v-128h-258v128h57v239h-64v128h65v18c0 131 52 197 209 197c92 0 267 -17 267 -17l1 -503c0 -54 24 -71 52 -71c13 0 35 3 47 7v-130c-24 -6 -53 -9 -78 -9c-100 0 -165 44 -165 216v373s-55 6 -103 6z" />
    <glyph glyph-name="AV2" horiz-adv-x="843" 
d="M744 128h57v-128h-200v237h-353v-237h-201v128h57v237c0 203 112 349 320 349c209 0 320 -146 320 -349v-237zM601 358v7c0 151 -66 221 -177 221c-105 0 -176 -70 -176 -221v-7h353z" />
    <glyph glyph-name="UV2" horiz-adv-x="848" 
d="M743 127h58v-127h-186l-16 54h-2c-39 -41 -124 -69 -187 -69c-219 0 -306 77 -306 348v238h-57v128h201v-365c0 -175 71 -222 162 -222c59 0 132 18 190 52v407h-57v128h200v-572z" />
    <glyph glyph-name="RV1" horiz-adv-x="809" 
d="M614 263l63 -135h57v-128h-153l-107 240l-223 -28v-84h57v-128h-258v128h57v443h-57v128h455c144 0 244 -88 244 -231c0 -101 -44 -177 -135 -205zM492 368c73 8 114 28 114 100c0 69 -40 103 -114 103h-241v-231z" />
    <glyph glyph-name="RV2" horiz-adv-x="806" 
d="M590 260c23 -78 87 -128 158 -135l-9 -141c-176 23 -256 124 -290 253l-200 -25v-84h57v-128h-257v128h57v443h-57v128h455c144 0 244 -88 244 -231c0 -101 -37 -183 -155 -208h-3zM491 368c72 8 113 28 113 100c0 69 -39 103 -113 103h-242v-231z" />
    <glyph glyph-name="RV3" horiz-adv-x="796" 
d="M593 257c24 -55 97 -118 153 -146l-62 -123c-85 40 -169 133 -220 232c-4 7 -8 14 -12 20h-202v-112h57v-128h-258v128h57v444h-57v127h455c144 0 244 -88 244 -231c0 -101 -49 -184 -148 -209zM491 368c70 0 114 28 114 100c0 69 -40 104 -114 104h-241v-204h241z" />
    <glyph glyph-name="KV1" horiz-adv-x="797" 
d="M738 572h-57l-107 -222l123 -222h57v-128h-157l-145 288h-201v-160h57v-128h-258v128h57v444h-57v127h258v-127h-57v-157h201l129 284h157v-127z" />
    <glyph glyph-name="TT" horiz-adv-x="677" 
d="M631 367h-221v-239h57v-128h-257v128h57v239h-221v128h585v-128z" />
    <glyph glyph-name="OO" horiz-adv-x="588" 
d="M48 52v128h492v-128h-492zM294 247v0c-135 0 -245 105 -245 234c0 130 110 235 245 235c136 0 245 -105 245 -235c0 -129 -109 -234 -245 -234zM294 602c-75 0 -117 -58 -117 -119c0 -73 42 -123 117 -123c70 0 117 50 117 123c0 62 -37 119 -117 119z" />
    <glyph glyph-name="Scaron" unicode="&#x160;" horiz-adv-x="693" 
d="M368 422c201 -26 285 -81 285 -210c0 -138 -115 -228 -320 -228c-112 0 -236 30 -299 104l97 100c47 -50 137 -76 202 -76c126 0 176 34 176 91c0 53 -43 78 -160 93l-28 4c-191 26 -263 80 -263 206c0 129 113 209 298 209c115 0 203 -32 274 -91l-100 -98
c-43 41 -121 62 -174 62c-122 0 -154 -33 -154 -76c0 -34 19 -68 137 -86zM444 953h163v-9l-186 -185h-144l-186 185v9h164l94 -104z" />
    <glyph glyph-name="scaron" unicode="&#x161;" horiz-adv-x="542" 
d="M325 297c126 -27 181 -62 181 -146c0 -89 -66 -164 -236 -164c-93 0 -208 51 -247 107l109 74c24 -27 79 -53 144 -53c72 0 86 19 86 39s-18 32 -84 44l-48 9c-128 23 -171 69 -171 143c0 100 96 163 224 163c80 0 160 -33 214 -98l-110 -74c-33 34 -81 46 -114 46
c-53 0 -70 -19 -70 -32c0 -17 11 -33 70 -46zM370 748h163v-9l-186 -185h-144l-186 185v9h164l94 -104z" />
    <glyph glyph-name="Ydieresis" unicode="&#x178;" horiz-adv-x="679" 
d="M516 699h148v-127h-58l-195 -327v-117h57v-128h-258v128h57v118l-193 326h-57v127h147l176 -312h2zM294 939v-137h-140v137h140zM515 939v-137h-140v137h140z" />
    <glyph glyph-name="ydieresis" unicode="&#xff;" horiz-adv-x="646" 
d="M459 495h164v-128h-57l-245 -583h-150v128h57l33 77l-183 378h-57v128h161l85 -211l57 -131h2l49 131zM288 735v-137h-140v137h140zM509 735v-137h-140v137h140z" />
    <glyph glyph-name="agrave" unicode="&#xe0;" horiz-adv-x="694" 
d="M192 248c0 -72 42 -135 131 -135c80 0 132 62 132 135c0 72 -49 136 -132 136c-85 0 -131 -61 -131 -136zM598 128h57v-128h-177l-28 65h-1c-36 -57 -86 -79 -160 -79c-162 0 -241 117 -241 262c0 146 90 263 241 263c76 0 128 -29 159 -79h2l28 63h120v-367zM238 750
l125 -172h-146l-181 172h202z" />
    <glyph glyph-name="Agrave" unicode="&#xc0;" horiz-adv-x="805" 
d="M721 128h57v-128h-161l-53 135h-324l-53 -135h-160v128h57l180 443h-57v128h282zM288 256h227l-112 290h-2zM327 954l125 -172h-146l-181 172h202z" />
    <glyph glyph-name="Aacute" unicode="&#xc1;" horiz-adv-x="843" 
d="M741 128h57v-128h-161l-53 135h-324l-53 -135h-160v128h57l180 443h-57v128h282zM308 256h227l-112 290h-2zM358 782l125 172h202l-181 -172h-146z" />
    <glyph glyph-name="aacute" unicode="&#xe1;" horiz-adv-x="690" 
d="M192 248c0 -72 42 -135 131 -135c80 0 132 62 132 135c0 72 -49 136 -132 136c-85 0 -131 -61 -131 -136zM598 128h57v-128h-177l-28 65h-1c-36 -57 -86 -79 -160 -79c-162 0 -241 117 -241 262c0 146 90 263 241 263c76 0 128 -29 159 -79h2l28 63h120v-367zM253 578
l125 172h202l-181 -172h-146z" />
    <glyph glyph-name="Acircumflex" unicode="&#xc2;" horiz-adv-x="820" 
d="M729 128h57v-128h-161l-53 135h-324l-53 -135h-160v128h57l180 443h-57v128h282zM296 256h227l-112 290h-2zM666 769h-163l-95 104l-94 -104h-164v9l186 185h144l186 -185v-9z" />
    <glyph glyph-name="acircumflex" unicode="&#xe2;" horiz-adv-x="689" 
d="M192 248c0 -72 42 -135 131 -135c80 0 132 62 132 135c0 72 -49 136 -132 136c-85 0 -131 -61 -131 -136zM598 128h57v-128h-177l-28 65h-1c-36 -57 -86 -79 -160 -79c-162 0 -241 117 -241 262c0 146 90 263 241 263c76 0 128 -29 159 -79h2l28 63h120v-367zM587 565
h-163l-95 104l-94 -104h-164v9l186 185h144l186 -185v-9z" />
    <glyph glyph-name="atilde" unicode="&#xe3;" horiz-adv-x="689" 
d="M192 248c0 -72 42 -135 131 -135c80 0 132 62 132 135c0 72 -49 136 -132 136c-85 0 -131 -61 -131 -136zM598 128h57v-128h-177l-28 65h-1c-36 -57 -86 -79 -160 -79c-162 0 -241 117 -241 262c0 146 90 263 241 263c76 0 128 -29 159 -79h2l28 63h120v-367zM425 593
c-74 0 -116 35 -180 35c-56 0 -107 -39 -107 -39v108s52 46 114 46c74 0 116 -35 180 -35c56 0 107 39 107 39v-108s-52 -46 -114 -46z" />
    <glyph glyph-name="Adieresis" unicode="&#xc4;" horiz-adv-x="829" 
d="M734 128h57v-128h-161l-53 135h-324l-53 -135h-160v128h57l180 443h-57v128h282zM301 256h227l-112 290h-2zM372 939v-137h-140v137h140zM593 939v-137h-140v137h140z" />
    <glyph glyph-name="adieresis" unicode="&#xe4;" horiz-adv-x="690" 
d="M192 248c0 -72 42 -135 131 -135c80 0 132 62 132 135c0 72 -49 136 -132 136c-85 0 -131 -61 -131 -136zM598 128h57v-128h-177l-28 65h-1c-36 -57 -86 -79 -160 -79c-162 0 -241 117 -241 262c0 146 90 263 241 263c76 0 128 -29 159 -79h2l28 63h120v-367zM299 735
v-137h-140v137h140zM520 735v-137h-140v137h140z" />
    <glyph glyph-name="Egrave" unicode="&#xc8;" horiz-adv-x="695" 
d="M654 571h-403v-155h359v-122h-359v-166h403v-128h-604v128h57v443h-57v128h604v-128zM308 954l125 -172h-146l-181 172h202z" />
    <glyph glyph-name="egrave" unicode="&#xe8;" horiz-adv-x="634" 
d="M595 238v-36h-398c15 -55 58 -90 126 -90c48 0 86 21 109 56l125 -60c-49 -74 -135 -124 -234 -124c-152 0 -276 118 -276 263c0 146 124 264 276 264c161 0 272 -117 272 -273zM197 292h252c-14 51 -55 91 -126 91c-66 0 -110 -40 -126 -91zM259 750l125 -172h-146
l-181 172h202z" />
    <glyph glyph-name="Eacute" unicode="&#xc9;" horiz-adv-x="704" 
d="M654 571h-403v-155h359v-122h-359v-166h403v-128h-604v128h57v443h-57v128h604v-128zM258 782l125 172h202l-181 -172h-146z" />
    <glyph glyph-name="eacute" unicode="&#xe9;" horiz-adv-x="629" 
d="M595 238v-36h-398c15 -55 58 -90 126 -90c48 0 86 21 109 56l125 -60c-49 -74 -135 -124 -234 -124c-152 0 -276 118 -276 263c0 146 124 264 276 264c161 0 272 -117 272 -273zM197 292h252c-14 51 -55 91 -126 91c-66 0 -110 -40 -126 -91zM246 578l125 172h202
l-181 -172h-146z" />
    <glyph glyph-name="Ecircumflex" unicode="&#xca;" horiz-adv-x="697" 
d="M654 571h-403v-155h359v-122h-359v-166h403v-128h-604v128h57v443h-57v128h604v-128zM607 769h-163l-95 104l-94 -104h-164v9l186 185h144l186 -185v-9z" />
    <glyph glyph-name="ecircumflex" unicode="&#xea;" horiz-adv-x="638" 
d="M595 238v-36h-398c15 -55 58 -90 126 -90c48 0 86 21 109 56l125 -60c-49 -74 -135 -124 -234 -124c-152 0 -276 118 -276 263c0 146 124 264 276 264c161 0 272 -117 272 -273zM197 292h252c-14 51 -55 91 -126 91c-66 0 -110 -40 -126 -91zM577 565h-163l-95 104
l-94 -104h-164v9l186 185h144l186 -185v-9z" />
    <glyph glyph-name="Edieresis" unicode="&#xcb;" horiz-adv-x="703" 
d="M654 571h-403v-155h359v-122h-359v-166h403v-128h-604v128h57v443h-57v128h604v-128zM318 939v-137h-140v137h140zM539 939v-137h-140v137h140z" />
    <glyph glyph-name="edieresis" unicode="&#xeb;" 
d="M595 238v-36h-398c15 -55 58 -90 126 -90c48 0 86 21 109 56l125 -60c-49 -74 -135 -124 -234 -124c-152 0 -276 118 -276 263c0 146 124 264 276 264c161 0 272 -117 272 -273zM197 292h252c-14 51 -55 91 -126 91c-66 0 -110 -40 -126 -91zM283 735v-137h-140v137h140z
M504 735v-137h-140v137h140z" />
    <glyph glyph-name="Igrave" unicode="&#xcc;" horiz-adv-x="352" 
d="M304 571h-57v-443h57v-128h-257v128h57v443h-57v128h257v-128zM117 954l125 -172h-146l-181 172h202z" />
    <glyph glyph-name="Iacute" unicode="&#xcd;" horiz-adv-x="352" 
d="M307 571h-57v-443h57v-128h-257v128h57v443h-57v128h257v-128zM103 782l125 172h202l-181 -172h-146z" />
    <glyph glyph-name="Icircumflex" unicode="&#xce;" horiz-adv-x="359" 
d="M311 571h-57v-443h57v-128h-257v128h57v443h-57v128h257v-128zM441 769h-163l-95 104l-94 -104h-164v9l186 185h144l186 -185v-9z" />
    <glyph glyph-name="Idieresis" unicode="&#xcf;" horiz-adv-x="356" 
d="M308 571h-57v-443h57v-128h-257v128h57v443h-57v128h257v-128zM139 939v-137h-140v137h140zM360 939v-137h-140v137h140z" />
    <glyph glyph-name="ntilde" unicode="&#xf1;" horiz-adv-x="755" 
d="M663 128h57v-128h-256v128h57v110c0 92 -37 145 -125 145c-81 0 -138 -51 -138 -145v-110h57v-128h-258v128h57v240h-57v127h179l22 -64h2c28 50 79 80 169 80c152 0 234 -83 234 -261v-122zM448 593c-74 0 -116 35 -180 35c-56 0 -107 -39 -107 -39v108s52 46 114 46
c74 0 116 -35 180 -35c56 0 107 39 107 39v-108s-52 -46 -114 -46z" />
    <glyph glyph-name="Atilde" unicode="&#xc3;" horiz-adv-x="786" 
d="M714 128h57v-128h-161l-53 135h-324l-53 -135h-160v128h57l180 443h-57v128h282zM281 256h227l-112 290h-2zM462 797c-74 0 -116 35 -180 35c-56 0 -107 -39 -107 -39v108s52 46 114 46c74 0 116 -35 180 -35c56 0 107 39 107 39v-108s-52 -46 -114 -46z" />
    <glyph glyph-name="Ntilde" unicode="&#xd1;" horiz-adv-x="853" 
d="M809 571h-57v-443h56v-128h-204l-351 487h-2v-359h57v-128h-258v128h57v443h-57v128h205l350 -483h3v355h-57v128h258v-128zM517 797c-74 0 -116 35 -180 35c-56 0 -107 -39 -107 -39v108s52 46 114 46c74 0 116 -35 180 -35c56 0 107 39 107 39v-108s-52 -46 -114 -46z
" />
    <glyph glyph-name="Ograve" unicode="&#xd2;" horiz-adv-x="852" 
d="M430 714c226 0 384 -157 384 -367c0 -203 -155 -363 -383 -363c-226 0 -384 161 -384 364c0 211 162 366 383 366zM431 112c150 0 239 93 239 236c0 141 -87 239 -240 239c-152 0 -239 -93 -239 -238c0 -140 90 -237 240 -237zM370 954l125 -172h-146l-181 172h202z" />
    <glyph glyph-name="Oacute" unicode="&#xd3;" horiz-adv-x="857" 
d="M430 714c226 0 384 -157 384 -367c0 -203 -155 -363 -383 -363c-226 0 -384 161 -384 364c0 211 162 366 383 366zM431 112c150 0 239 93 239 236c0 141 -87 239 -240 239c-152 0 -239 -93 -239 -238c0 -140 90 -237 240 -237zM362 782l125 172h202l-181 -172h-146z" />
    <glyph glyph-name="Ocircumflex" unicode="&#xd4;" horiz-adv-x="856" 
d="M430 714c226 0 384 -157 384 -367c0 -203 -155 -363 -383 -363c-226 0 -384 161 -384 364c0 211 162 366 383 366zM431 112c150 0 239 93 239 236c0 141 -87 239 -240 239c-152 0 -239 -93 -239 -238c0 -140 90 -237 240 -237zM690 769h-163l-95 104l-94 -104h-164v9
l186 185h144l186 -185v-9z" />
    <glyph glyph-name="Otilde" unicode="&#xd5;" horiz-adv-x="858" 
d="M430 714c226 0 384 -157 384 -367c0 -203 -155 -363 -383 -363c-226 0 -384 161 -384 364c0 211 162 366 383 366zM431 112c150 0 239 93 239 236c0 141 -87 239 -240 239c-152 0 -239 -93 -239 -238c0 -140 90 -237 240 -237zM522 797c-74 0 -116 35 -180 35
c-56 0 -107 -39 -107 -39v108s52 46 114 46c74 0 116 -35 180 -35c56 0 107 39 107 39v-108s-52 -46 -114 -46z" />
    <glyph glyph-name="Odieresis" unicode="&#xd6;" horiz-adv-x="855" 
d="M430 714c226 0 384 -157 384 -367c0 -203 -155 -363 -383 -363c-226 0 -384 161 -384 364c0 211 162 366 383 366zM431 112c150 0 239 93 239 236c0 141 -87 239 -240 239c-152 0 -239 -93 -239 -238c0 -140 90 -237 240 -237zM391 939v-137h-140v137h140zM612 939v-137
h-140v137h140z" />
    <glyph glyph-name="ograve" unicode="&#xf2;" horiz-adv-x="633" 
d="M598 247c0 -132 -111 -263 -275 -263c-152 0 -276 118 -276 263c0 146 124 264 276 264s275 -118 275 -264zM323 384c-84 0 -132 -65 -132 -134c0 -82 47 -138 132 -138c78 0 131 56 131 138c0 69 -42 134 -131 134zM270 750l125 -172h-146l-181 172h202z" />
    <glyph glyph-name="oacute" unicode="&#xf3;" horiz-adv-x="638" 
d="M598 247c0 -132 -111 -263 -275 -263c-152 0 -276 118 -276 263c0 146 124 264 276 264s275 -118 275 -264zM323 384c-84 0 -132 -65 -132 -134c0 -82 47 -138 132 -138c78 0 131 56 131 138c0 69 -42 134 -131 134zM251 578l125 172h202l-181 -172h-146z" />
    <glyph glyph-name="ocircumflex" unicode="&#xf4;" horiz-adv-x="641" 
d="M598 247c0 -132 -111 -263 -275 -263c-152 0 -276 118 -276 263c0 146 124 264 276 264s275 -118 275 -264zM323 384c-84 0 -132 -65 -132 -134c0 -82 47 -138 132 -138c78 0 131 56 131 138c0 69 -42 134 -131 134zM580 565h-163l-95 104l-94 -104h-164v9l186 185h144
l186 -185v-9z" />
    <glyph glyph-name="otilde" unicode="&#xf5;" horiz-adv-x="638" 
d="M598 247c0 -132 -111 -263 -275 -263c-152 0 -276 118 -276 263c0 146 124 264 276 264s275 -118 275 -264zM323 384c-84 0 -132 -65 -132 -134c0 -82 47 -138 132 -138c78 0 131 56 131 138c0 69 -42 134 -131 134zM414 593c-74 0 -116 35 -180 35
c-56 0 -107 -39 -107 -39v108s52 46 114 46c74 0 116 -35 180 -35c56 0 107 39 107 39v-108s-52 -46 -114 -46z" />
    <glyph glyph-name="odieresis" unicode="&#xf6;" horiz-adv-x="647" 
d="M598 247c0 -132 -111 -263 -275 -263c-152 0 -276 118 -276 263c0 146 124 264 276 264s275 -118 275 -264zM323 384c-84 0 -132 -65 -132 -134c0 -82 47 -138 132 -138c78 0 131 56 131 138c0 69 -42 134 -131 134zM283 735v-137h-140v137h140zM504 735v-137h-140v137
h140z" />
    <glyph glyph-name="Ugrave" unicode="&#xd9;" horiz-adv-x="836" 
d="M543 699h258v-127h-57v-238c0 -203 -112 -349 -320 -349c-209 0 -320 146 -320 349v238h-57v127h258v-127h-57v-238c0 -151 65 -221 176 -221c105 0 176 70 176 221v238h-57v127zM363 954l125 -172h-146l-181 172h202z" />
    <glyph glyph-name="Uacute" unicode="&#xda;" horiz-adv-x="834" 
d="M543 699h258v-127h-57v-238c0 -203 -112 -349 -320 -349c-209 0 -320 146 -320 349v238h-57v127h258v-127h-57v-238c0 -151 65 -221 176 -221c105 0 176 70 176 221v238h-57v127zM347 782l125 172h202l-181 -172h-146z" />
    <glyph glyph-name="Ucircumflex" unicode="&#xdb;" horiz-adv-x="834" 
d="M537 699h258v-127h-57v-238c0 -203 -112 -349 -320 -349c-209 0 -320 146 -320 349v238h-57v127h258v-127h-57v-238c0 -151 65 -221 176 -221c105 0 176 70 176 221v238h-57v127zM681 769h-163l-95 104l-94 -104h-164v9l186 185h144l186 -185v-9z" />
    <glyph glyph-name="Udieresis" unicode="&#xdc;" horiz-adv-x="836" 
d="M538 699h258v-127h-57v-238c0 -203 -112 -349 -320 -349c-209 0 -320 146 -320 349v238h-57v127h258v-127h-57v-238c0 -151 65 -221 176 -221c105 0 176 70 176 221v238h-57v127zM382 939v-137h-140v137h140zM603 939v-137h-140v137h140z" />
    <glyph glyph-name="Yacute" unicode="&#xdd;" horiz-adv-x="700" 
d="M525 699h148v-127h-58l-195 -327v-117h57v-128h-258v128h57v118l-193 326h-57v127h147l176 -312h2zM286 782l125 172h202l-181 -172h-146z" />
    <glyph glyph-name="ugrave" unicode="&#xf9;" horiz-adv-x="713" 
d="M626 128h57v-128h-178l-22 65h-2c-28 -50 -80 -81 -169 -81c-152 0 -235 84 -235 262v122h-57v127h199v-237c0 -92 38 -145 126 -145c81 0 137 51 137 145v110h-57v127h201v-367zM282 750l125 -172h-146l-181 172h202z" />
    <glyph glyph-name="uacute" unicode="&#xfa;" horiz-adv-x="732" 
d="M633 128h57v-128h-178l-22 65h-2c-28 -50 -80 -81 -169 -81c-152 0 -235 84 -235 262v122h-57v127h199v-237c0 -92 38 -145 126 -145c81 0 137 51 137 145v110h-57v127h201v-367zM280 578l125 172h202l-181 -172h-146z" />
    <glyph glyph-name="ucircumflex" unicode="&#xfb;" horiz-adv-x="703" 
d="M624 128h57v-128h-178l-22 65h-2c-28 -50 -80 -81 -169 -81c-152 0 -235 84 -235 262v122h-57v127h199v-237c0 -92 38 -145 126 -145c81 0 137 51 137 145v110h-57v127h201v-367zM597 565h-163l-95 104l-94 -104h-164v9l186 185h144l186 -185v-9z" />
    <glyph glyph-name="udieresis" unicode="&#xfc;" horiz-adv-x="731" 
d="M639 128h57v-128h-178l-22 65h-2c-28 -50 -80 -81 -169 -81c-152 0 -235 84 -235 262v122h-57v127h199v-237c0 -92 38 -145 126 -145c81 0 137 51 137 145v110h-57v127h201v-367zM318 735v-137h-140v137h140zM539 735v-137h-140v137h140z" />
    <glyph glyph-name="yacute" unicode="&#xfd;" horiz-adv-x="646" 
d="M459 495h164v-128h-57l-245 -583h-150v128h57l33 77l-183 378h-57v128h161l85 -211l57 -131h2l49 131zM256 578l125 172h202l-181 -172h-146z" />
    <glyph glyph-name="Zcaron" unicode="&#x17d;" horiz-adv-x="630" 
d="M244 130v-2h355v-128h-549v118l354 450v3h-354v128h548v-115zM414 942h163v-9l-186 -185h-144l-186 185v9h164l94 -104z" />
    <glyph glyph-name="zcaron" unicode="&#x17e;" horiz-adv-x="577" 
d="M268 128h269v-128h-487v117l262 248v2h-256v128h472v-118l-260 -247v-2zM390 738h163v-9l-186 -185h-144l-186 185v9h164l94 -104z" />
    <glyph glyph-name="&V1" horiz-adv-x="808" 
d="M765 430v-144h-88c-23 -177 -134 -302 -314 -302c-204 0 -315 160 -315 363c0 223 123 369 318 369c76 0 139 -23 188 -61l-96 -94c-26 18 -57 27 -95 27c-98 0 -154 -63 -168 -176zM366 111c94 0 153 56 167 175h-338c16 -117 74 -175 171 -175z" />
    <glyph glyph-name="&V2" horiz-adv-x="850" 
d="M386 714c121 0 198 -28 198 -28l-61 -126s-45 26 -138 26c-87 0 -150 -35 -150 -81c0 -57 44 -81 98 -81v-128c-104 0 -141 -40 -141 -82c0 -52 47 -103 193 -103c141 0 193 35 193 94c0 46 -54 91 -134 91v129l362 9v-138h-144v-2c44 -24 60 -73 60 -107
c0 -141 -153 -204 -337 -204c-183 0 -337 61 -337 202c0 171 150 180 150 180v2s-106 7 -106 160c0 98 84 187 294 187z" />
    <glyph glyph-name="&V3" horiz-adv-x="863" 
d="M721 188c0 -141 -153 -204 -337 -204c-183 0 -337 61 -337 202c0 171 151 180 151 180v2s-107 7 -107 160c0 98 84 187 294 187c121 0 198 -28 198 -28l-61 -126s-44 26 -138 26c-86 0 -149 -35 -149 -81c0 -57 43 -81 97 -81v-128c-104 0 -140 -40 -140 -82
c0 -52 46 -103 192 -103c142 0 193 35 193 94c0 46 -54 91 -134 91l-1 129c208 0 232 9 232 93l145 1c0 -156 -71 -202 -169 -215v-2s71 -21 71 -115z" />
    <glyph glyph-name="paragraph" unicode="&#xb6;" horiz-adv-x="557" 
d="M508 699v-88h-63v-611h-94v611h-64v-611h-95v376c-87 3 -145 79 -145 163c0 92 69 160 160 160h301z" />
    <glyph glyph-name="exclamdown" unicode="&#xa1;" horiz-adv-x="238" 
d="M46 420h137v-118h-137v118zM172 222l19 -367h-155l20 367h116z" />
    <glyph glyph-name="ellipsis" unicode="&#x2026;" horiz-adv-x="852" 
d="M190 136v-136h-140v136h140zM414 136v-136h-140v136h140zM638 136v-136h-140v136h140z" />
    <glyph glyph-name="igrave" unicode="&#xec;" horiz-adv-x="367" 
d="M254 128h57v-128h-258v128h58v239h-58v128h201v-367zM123 750l125 -172h-146l-181 172h202z" />
    <glyph glyph-name="iacute" unicode="&#xed;" horiz-adv-x="356" 
d="M249 128h57v-128h-258v128h58v239h-58v128h201v-367zM100 578l125 172h202l-181 -172h-146z" />
    <glyph glyph-name="icircumflex" unicode="&#xee;" horiz-adv-x="372" 
d="M260 128h57v-128h-258v128h58v239h-58v128h201v-367zM438 565h-163l-95 104l-94 -104h-164v9l186 185h144l186 -185v-9z" />
    <glyph glyph-name="idieresis" unicode="&#xef;" horiz-adv-x="356" 
d="M251 128h57v-128h-258v128h58v239h-58v128h201v-367zM139 735v-137h-140v137h140zM360 735v-137h-140v137h140z" />
    <glyph glyph-name="Sacute" unicode="&#x15a;" horiz-adv-x="689" 
d="M366 422c201 -26 285 -81 285 -210c0 -138 -115 -228 -320 -228c-112 0 -236 30 -299 104l97 100c47 -50 137 -76 202 -76c126 0 176 34 176 91c0 53 -43 78 -160 93l-28 4c-191 26 -263 80 -263 206c0 129 113 209 298 209c115 0 203 -32 274 -91l-100 -98
c-43 41 -121 62 -174 62c-122 0 -154 -33 -154 -76c0 -34 19 -68 137 -86zM289 782l125 172h202l-181 -172h-146z" />
    <glyph glyph-name="Tcaron" unicode="&#x164;" horiz-adv-x="647" 
d="M624 572h-225v-444h57v-128h-258v128h57v444h-226v127h595v-127zM421 942h163v-9l-186 -185h-144l-186 185v9h164l94 -104z" />
    <glyph glyph-name="Zacute" unicode="&#x179;" 
d="M244 130v-2h355v-128h-549v118l354 450v3h-354v128h548v-115zM248 782l125 172h202l-181 -172h-146z" />
    <glyph glyph-name="sacute" unicode="&#x15b;" horiz-adv-x="543" 
d="M326 297c126 -27 181 -62 181 -146c0 -89 -66 -164 -236 -164c-93 0 -208 51 -247 107l109 74c24 -27 79 -53 144 -53c72 0 86 19 86 39s-18 32 -84 44l-48 9c-128 23 -171 69 -171 143c0 100 96 163 224 163c80 0 160 -33 214 -98l-110 -74c-33 34 -81 46 -114 46
c-53 0 -70 -19 -70 -32c0 -17 11 -33 70 -46zM212 578l125 172h202l-181 -172h-146z" />
    <glyph glyph-name="zacute" unicode="&#x17a;" horiz-adv-x="578" 
d="M268 128h269v-128h-487v117l262 248v2h-256v128h472v-118l-260 -247v-2zM219 578l125 172h202l-181 -172h-146z" />
    <glyph glyph-name="Zdotaccent" unicode="&#x17b;" 
d="M244 130v-2h355v-128h-549v118l354 450v3h-354v128h548v-115zM391 902v-136h-140v136h140z" />
    <glyph glyph-name="zdotaccent" unicode="&#x17c;" horiz-adv-x="576" 
d="M268 128h269v-128h-487v117l262 248v2h-256v128h472v-118l-260 -247v-2zM368 698v-136h-140v136h140z" />
    <glyph glyph-name="Racute" unicode="&#x154;" horiz-adv-x="801" 
d="M615 260l62 -132h57v-128h-152l-108 240h-223v-112h57v-128h-258v128h58v444h-58v127h456c144 0 244 -88 244 -231c0 -101 -52 -175 -135 -208zM493 368c70 0 113 28 113 100c0 69 -39 104 -113 104h-242v-204h242zM312 782l125 172h202l-181 -172h-146z" />
    <glyph glyph-name="racute" unicode="&#x155;" horiz-adv-x="483" 
d="M396 511c42 0 77 -15 99 -30l-60 -129c-14 14 -45 22 -68 22c-76 0 -117 -45 -117 -137v-109h57v-128h-258v128h57v239h-57v128h179l22 -64h2c28 50 55 80 144 80zM195 578l125 172h202l-181 -172h-146z" />
    <glyph glyph-name="Abreve" unicode="&#x102;" horiz-adv-x="831" 
d="M735 128h57v-128h-161l-53 135h-324l-53 -135h-160v128h57l180 443h-57v128h282zM302 256h227l-112 290h-2zM479 927h112c0 -94 -80 -170 -178 -170c-99 0 -178 76 -178 170h111c0 -42 30 -68 67 -68c36 0 66 26 66 68z" />
    <glyph glyph-name="abreve" unicode="&#x103;" horiz-adv-x="688" 
d="M192 248c0 -72 42 -135 131 -135c80 0 132 62 132 135c0 72 -49 136 -132 136c-85 0 -131 -61 -131 -136zM598 128h57v-128h-177l-28 65h-1c-36 -57 -86 -79 -160 -79c-162 0 -241 117 -241 262c0 146 90 263 241 263c76 0 128 -29 159 -79h2l28 63h120v-367zM424 723
h112c0 -94 -80 -170 -178 -170c-99 0 -178 76 -178 170h111c0 -42 30 -68 67 -68c36 0 66 26 66 68z" />
    <glyph glyph-name="Lacute" unicode="&#x139;" horiz-adv-x="660" 
d="M485 235h143v-235h-578v128h57v443h-56v128h257v-128h-57v-443h234v107zM116 782l125 172h202l-181 -172h-146z" />
    <glyph glyph-name="lacute" unicode="&#x13a;" horiz-adv-x="348" 
d="M325 126v-130c-24 -6 -54 -9 -78 -9c-100 0 -165 44 -165 216v368h-57v128h200v-509c0 -54 24 -71 52 -71c13 0 35 3 48 7zM82 783l125 172h202l-181 -172h-146z" />
    <glyph glyph-name="Cacute" unicode="&#x106;" horiz-adv-x="773" 
d="M622 193l109 -78c-67 -80 -172 -131 -300 -131c-226 0 -384 161 -384 364c0 211 162 366 383 366c127 0 232 -49 300 -130l-108 -80c-41 52 -106 83 -192 83c-152 0 -239 -93 -239 -238c-1 -140 89 -237 240 -237c84 0 150 30 191 81zM362 782l125 172h202l-181 -172
h-146z" />
    <glyph glyph-name="cacute" unicode="&#x107;" horiz-adv-x="582" 
d="M432 169l125 -59c-48 -75 -135 -125 -234 -125c-152 0 -276 118 -276 263c0 146 124 264 276 264c96 0 181 -47 230 -119l-119 -65c-21 33 -57 56 -111 56c-84 0 -132 -65 -132 -133c0 -83 47 -138 132 -138c48 0 86 21 109 56zM253 578l125 172h202l-181 -172h-146z" />
    <glyph glyph-name="Ccaron" unicode="&#x10c;" horiz-adv-x="773" 
d="M622 193l109 -78c-67 -80 -172 -131 -300 -131c-226 0 -384 161 -384 364c0 211 162 366 383 366c127 0 232 -49 300 -130l-108 -80c-41 52 -106 83 -192 83c-152 0 -239 -93 -239 -238c-1 -140 89 -237 240 -237c84 0 150 30 191 81zM522 942h163v-9l-186 -185h-144
l-186 185v9h164l94 -104z" />
    <glyph glyph-name="ccaron" unicode="&#x10d;" horiz-adv-x="565" 
d="M416 169l125 -59c-48 -75 -135 -125 -234 -125c-152 0 -276 118 -276 263c0 146 124 264 276 264c96 0 181 -47 230 -119l-119 -65c-21 33 -57 56 -111 56c-84 0 -132 -65 -132 -133c0 -83 47 -138 132 -138c48 0 86 21 109 56zM402 738h163v-9l-186 -185h-144l-186 185
v9h164l94 -104z" />
    <glyph glyph-name="Ecaron" unicode="&#x11a;" horiz-adv-x="700" 
d="M654 571h-403v-155h359v-122h-359v-166h403v-128h-604v128h57v443h-57v128h604v-128zM452 942h163v-9l-186 -185h-144l-186 185v9h164l94 -104z" />
    <glyph glyph-name="ecaron" unicode="&#x11b;" horiz-adv-x="623" 
d="M589 238v-36h-398c15 -55 58 -90 126 -90c48 0 86 21 109 56l125 -60c-49 -74 -135 -124 -234 -124c-152 0 -276 118 -276 263c0 146 124 264 276 264c161 0 272 -117 272 -273zM191 292h252c-14 51 -55 91 -126 91c-66 0 -110 -40 -126 -91zM412 738h163v-9l-186 -185
h-144l-186 185v9h164l94 -104z" />
    <glyph glyph-name="Dcaron" unicode="&#x10e;" horiz-adv-x="825" 
d="M405 699c267 0 385 -103 385 -349c0 -245 -123 -350 -385 -350h-355v128h57v443h-57v128h355zM405 128c193 0 241 77 241 222c0 156 -51 221 -241 221h-154v-443h154zM469 942h163v-9l-186 -185h-144l-186 185v9h164l94 -104z" />
    <glyph glyph-name="Nacute" unicode="&#x143;" horiz-adv-x="853" 
d="M809 571h-57v-443h56v-128h-204l-351 487h-2v-359h57v-128h-258v128h57v443h-57v128h205l350 -483h3v355h-57v128h258v-128zM370 782l125 172h202l-181 -172h-146z" />
    <glyph glyph-name="nacute" unicode="&#x144;" horiz-adv-x="758" 
d="M663 128h57v-128h-256v128h57v110c0 92 -37 145 -125 145c-81 0 -138 -51 -138 -145v-110h57v-128h-258v128h57v240h-57v127h179l22 -64h2c28 50 79 80 169 80c152 0 234 -83 234 -261v-122zM297 578l125 172h202l-181 -172h-146z" />
    <glyph glyph-name="Ncaron" unicode="&#x147;" horiz-adv-x="858" 
d="M809 571h-57v-443h56v-128h-204l-351 487h-2v-359h57v-128h-258v128h57v443h-57v128h205l350 -483h3v355h-57v128h258v-128zM525 942h163v-9l-186 -185h-144l-186 185v9h164l94 -104z" />
    <glyph glyph-name="ncaron" unicode="&#x148;" horiz-adv-x="758" 
d="M663 128h57v-128h-256v128h57v110c0 92 -37 145 -125 145c-81 0 -138 -51 -138 -145v-110h57v-128h-258v128h57v240h-57v127h179l22 -64h2c28 50 79 80 169 80c152 0 234 -83 234 -261v-122zM486 738h163v-9l-186 -185h-144l-186 185v9h164l94 -104z" />
    <glyph glyph-name="Ohungarumlaut" unicode="&#x150;" horiz-adv-x="858" 
d="M430 714c226 0 384 -157 384 -367c0 -203 -155 -363 -383 -363c-226 0 -384 161 -384 364c0 211 162 366 383 366zM431 112c150 0 239 93 239 236c0 141 -87 239 -240 239c-152 0 -239 -93 -239 -238c0 -140 90 -237 240 -237zM292 776l45 254h143l-89 -254h-99zM481 776
l45 254h143l-89 -254h-99z" />
    <glyph glyph-name="ohungarumlaut" unicode="&#x151;" horiz-adv-x="640" 
d="M598 247c0 -132 -111 -263 -275 -263c-152 0 -276 118 -276 263c0 146 124 264 276 264s275 -118 275 -264zM323 384c-84 0 -132 -65 -132 -134c0 -82 47 -138 132 -138c78 0 131 56 131 138c0 69 -42 134 -131 134zM181 577l45 254h143l-89 -254h-99zM370 577l45 254
h143l-89 -254h-99z" />
    <glyph glyph-name="Rcaron" unicode="&#x158;" horiz-adv-x="801" 
d="M615 260l62 -132h57v-128h-152l-108 240h-223v-112h57v-128h-258v128h58v444h-58v127h456c144 0 244 -88 244 -231c0 -101 -52 -175 -135 -208zM493 368c70 0 113 28 113 100c0 69 -39 104 -113 104h-242v-204h242zM487 942h163v-9l-186 -185h-144l-186 185v9h164
l94 -104z" />
    <glyph glyph-name="rcaron" unicode="&#x159;" horiz-adv-x="499" 
d="M396 511c42 0 77 -15 99 -30l-60 -129c-14 14 -45 22 -68 22c-76 0 -117 -45 -117 -137v-109h57v-128h-258v128h57v239h-57v128h179l22 -64h2c28 50 55 80 144 80zM362 738h163v-9l-186 -185h-144l-186 185v9h164l94 -104z" />
    <glyph glyph-name="Uring" unicode="&#x16e;" horiz-adv-x="836" 
d="M543 699h258v-127h-57v-238c0 -203 -112 -349 -320 -349c-209 0 -320 146 -320 349v238h-57v127h258v-127h-57v-238c0 -151 65 -221 176 -221c105 0 176 70 176 221v238h-57v127zM603 902c0 -94 -80 -170 -178 -170s-178 76 -178 170s80 171 178 171s178 -77 178 -171z
M359 902c0 -35 30 -63 66 -63c37 0 67 28 67 63s-30 64 -67 64c-36 0 -66 -29 -66 -64z" />
    <glyph glyph-name="uring" unicode="&#x16f;" horiz-adv-x="741" 
d="M653 128h57v-128h-178l-22 65h-2c-28 -50 -80 -81 -169 -81c-152 0 -235 84 -235 262v122h-57v127h199v-237c0 -92 38 -145 126 -145c81 0 137 51 137 145v110h-57v127h201v-367zM550 693c0 -94 -80 -170 -178 -170s-178 76 -178 170s80 171 178 171s178 -77 178 -171z
M306 693c0 -35 30 -63 66 -63c37 0 67 28 67 63s-30 64 -67 64c-36 0 -66 -29 -66 -64z" />
    <glyph glyph-name="Uhungarumlaut" unicode="&#x170;" horiz-adv-x="836" 
d="M543 699h258v-127h-57v-238c0 -203 -112 -349 -320 -349c-209 0 -320 146 -320 349v238h-57v127h258v-127h-57v-238c0 -151 65 -221 176 -221c105 0 176 70 176 221v238h-57v127zM293 778l45 254h143l-89 -254h-99zM482 778l45 254h143l-89 -254h-99z" />
    <glyph glyph-name="uhungarumlaut" unicode="&#x171;" horiz-adv-x="737" 
d="M637 128h57v-128h-178l-22 65h-2c-28 -50 -80 -81 -169 -81c-152 0 -235 84 -235 262v122h-57v127h199v-237c0 -92 38 -145 126 -145c81 0 137 51 137 145v110h-57v127h201v-367zM219 575l45 254h143l-89 -254h-99zM408 575l45 254h143l-89 -254h-99z" />
    <glyph glyph-name="dcroat" unicode="&#x111;" horiz-adv-x="697" 
d="M651 518h-57v-390h57v-128h-177l-24 65h-1c-36 -57 -89 -80 -164 -80c-161 0 -241 117 -241 263c0 145 90 263 241 263c76 0 132 -29 163 -79h2v86h-63v128h63v53h144v-53h57v-128zM319 113c80 0 131 62 131 135c0 72 -49 135 -131 135c-85 0 -131 -61 -131 -135
c0 -72 42 -135 131 -135z" />
    <glyph glyph-name="Aogonek" unicode="&#x104;" horiz-adv-x="828" 
d="M302 256h227l-112 290h-2zM754 0c-29 -14 -71 -44 -71 -96c0 -32 21 -51 64 -51c27 0 45 9 45 9v-105s-30 -12 -78 -12c-103 0 -164 49 -164 134c0 65 44 103 80 124l-52 132h-324l-53 -135h-160v128h57l180 443h-57v128h282l232 -571h57v-128h-38z" />
    <glyph glyph-name="aogonek" unicode="&#x105;" horiz-adv-x="698" 
d="M187 248c0 -72 42 -135 131 -135c80 0 132 62 132 135c0 72 -49 136 -132 136c-85 0 -131 -61 -131 -136zM595 0c-26 -16 -54 -44 -54 -86c0 -32 21 -51 64 -51c27 0 45 9 45 9v-105s-30 -12 -78 -12c-103 0 -164 49 -164 134c0 55 32 91 64 114l-27 62h-1
c-36 -57 -86 -79 -160 -79c-162 0 -241 117 -241 262c0 146 90 263 241 263c76 0 128 -29 159 -79h2l28 63h120v-367h57v-128h-55z" />
    <glyph glyph-name="Eogonek" unicode="&#x118;" horiz-adv-x="699" 
d="M648 571h-403v-155h359v-122h-359v-166h403v-128h-30c-28 -12 -79 -42 -79 -100c0 -32 21 -51 64 -51c27 0 45 9 45 9v-105s-30 -12 -78 -12c-103 0 -164 49 -164 134c0 66 46 105 82 125h-444v128h57v443h-57v128h604v-128z" />
    <glyph glyph-name="eogonek" unicode="&#x119;" 
d="M195 292h252c-14 51 -55 91 -126 91c-66 0 -110 -40 -126 -91zM593 238v-36h-398c15 -55 58 -90 126 -90c48 0 86 21 109 56l125 -60c-35 -53 -90 -94 -154 -112c-29 -15 -70 -45 -70 -96c0 -32 21 -51 64 -51c27 0 45 9 45 9v-105s-30 -12 -78 -12
c-103 0 -164 49 -164 134c0 57 34 93 66 115c-124 25 -219 131 -219 257c0 146 124 264 276 264c161 0 272 -117 272 -273z" />
    <glyph glyph-name="Gbreve" unicode="&#x11e;" horiz-adv-x="810" 
d="M618 350h144v-350h-112l-35 65h-2c-33 -51 -89 -80 -182 -80c-226 0 -384 160 -384 363c0 212 163 367 383 367c127 0 232 -50 301 -130l-109 -80c-41 52 -106 82 -192 82c-152 0 -239 -93 -239 -238c0 -140 90 -236 240 -236c118 0 187 47 187 198v39zM507 927h112
c0 -94 -80 -170 -178 -170c-99 0 -178 76 -178 170h111c0 -42 30 -68 67 -68c36 0 66 26 66 68z" />
    <glyph glyph-name="gbreve" unicode="&#x11f;" horiz-adv-x="679" 
d="M323 112c80 0 131 62 131 135c0 72 -49 136 -131 136c-85 0 -131 -61 -131 -136c0 -72 42 -135 131 -135zM478 495h177v-128h-57v-319c0 -204 -104 -284 -319 -284c-152 0 -214 45 -214 45l39 132s70 -49 175 -49c143 0 174 43 174 156v16h-2c-36 -57 -88 -79 -162 -79
c-162 0 -241 117 -241 262c0 146 90 263 241 263c76 0 128 -29 159 -79h2zM422 723h112c0 -94 -80 -170 -178 -170c-99 0 -178 76 -178 170h111c0 -42 30 -68 67 -68c36 0 66 26 66 68z" />
    <glyph glyph-name="Idotaccent" unicode="&#x130;" horiz-adv-x="355" 
d="M307 571h-57v-443h57v-128h-257v128h57v443h-57v128h257v-128zM248 902v-136h-140v136h140z" />
    <glyph glyph-name="_0144" horiz-adv-x="0" 
 />
    </font>
</defs>
</svg>
