<svg xmlns="http://www.w3.org/2000/svg" viewBox="0 0 24 24" class="icon-arrows-split"><path class="primary" d="M18.7 8.12l-2.36 2.37A8 8 0 0 0 14 16.14V21a1 1 0 0 1-1 1h-2a1 1 0 0 1-1-1v-4.86a12 12 0 0 1 3.51-8.48l2.37-2.37-1.59-1.58A1 1 0 0 1 15 2h6a1 1 0 0 1 1 1v6a1 1 0 0 1-1.7.7l-1.6-1.58z"/><path class="secondary" d="M8.12 5.3l2.37 2.36A12 12 0 0 1 14 16.14V21a1 1 0 0 1-1 1h-2a1 1 0 0 1-1-1v-4.86a8 8 0 0 0-2.34-5.65L5.29 8.12 3.71 9.71A1 1 0 0 1 2 9V3a1 1 0 0 1 1-1h6a1 1 0 0 1 .7 1.7L8.13 5.3z"/></svg>